<?xml version="1.0" encoding="UTF-8"?><svg xmlns="http://www.w3.org/2000/svg" viewBox="0 0 97.88 131.31"><defs><style>.d{fill:#0b4290;}.e{fill:none;stroke:#0b4290;stroke-linecap:round;stroke-linejoin:round;stroke-width:3px;}</style></defs><g id="a"/><g id="b"><g id="c"><g><g><path class="d" d="M0,65.52C0,46.17,0,26.82,0,7.47,0,2.42,2.37,.03,7.39,.02,29.66,.02,51.93,.03,74.2,0c1.42,0,2.49,.45,3.5,1.43,6.21,6.03,12.44,12.03,18.71,18,1.03,.98,1.47,2.02,1.47,3.45-.03,33.74-.02,67.48-.03,101.23,0,4.74-2.45,7.2-7.19,7.2-27.96,0-55.92,0-83.88,0-4.22,0-6.78-2.57-6.78-6.86C0,104.8,0,85.16,0,65.52Zm4.33,.12c0,19.45,0,38.89,0,58.34,0,2.46,.55,3.02,2.99,3.02,27.77,0,55.53,0,83.3,0,2.38,0,2.91-.54,2.91-2.93,0-9.82,0-19.64,0-29.46,0-22.95-.02-45.9,.03-68.84,0-1.5-.41-1.89-1.87-1.85-3.89,.1-7.78,.04-11.67,.03-4.27,0-6.83-2.53-6.86-6.78-.02-3.65,0-7.29,0-10.94q0-1.89-1.91-1.9c-21.2,0-42.4,0-63.6,0-2.9,0-3.31,.41-3.31,3.26,0,19.35,0,38.7,0,58.05ZM89.74,19.63l.19-.37c-4.03-3.89-8.06-7.78-12.42-11.98,0,3.83-.04,7.16,.02,10.49,.02,1.21,.9,1.83,2.05,1.84,3.39,.04,6.77,.02,10.16,.02Z"/><path class="d" d="M72.24,116.84c-.44,.59-.76,1-1.05,1.42-1.37,1.95-2.69,3.93-4.11,5.84-1.23,1.66-3.18,1.7-3.83-.08-1.09-2.99-2.96-4.27-6.13-4.31-1.91-.02-2.54-1.88-1.4-3.56,1.91-2.82,3.85-5.61,5.84-8.36,.55-.77,.51-1.24-.07-2-4.41-5.69-3.77-13.54,1.44-18.36,5.23-4.84,13.11-4.88,18.43-.11,5.27,4.73,6.02,12.6,1.66,18.33-.71,.93-.66,1.48-.02,2.36,1.89,2.59,3.7,5.24,5.52,7.88,1.45,2.11,.78,3.85-1.77,3.91-2.8,.07-4.37,1.19-5.36,3.81-.86,2.26-2.79,2.29-4.21,.3-1.63-2.28-3.22-4.59-4.95-7.06Zm10.96-.89c-.42-.66-.66-1.06-.93-1.45-1.5-2.15-3.02-4.29-4.49-6.46-.96-1.41-.82-2.25,.32-3.49,.82-.89,1.7-1.77,2.28-2.81,2.34-4.2,.97-9.54-3-12.09-4.3-2.76-9.67-1.8-12.73,2.27-2.82,3.76-2.22,9.18,1.37,12.41,1.51,1.36,1.64,2.23,.49,3.9-1.46,2.12-2.95,4.22-4.41,6.33-.26,.37-.48,.76-.89,1.44,2.37-.29,3.5,.92,4.26,2.88,1.58-2.26,2.96-4.25,4.35-6.23,1.68-2.39,3.12-2.38,4.82,.05,1.2,1.71,2.38,3.43,3.59,5.14,.2,.29,.48,.52,.87,.94,.63-2.05,1.93-2.97,4.11-2.82Z"/><path class="d" d="M49.78,57.77c-11.09,0-22.17,0-33.26,0-2.29,0-3.34-.66-3.38-2.11-.04-1.5,1.05-2.22,3.42-2.22,22.12,0,44.25,0,66.37,0,.53,0,1.08-.02,1.6,.07,1.16,.2,1.84,.94,1.83,2.11,0,1.17-.71,1.89-1.87,2.08-.52,.09-1.07,.07-1.6,.07-11.04,0-22.07,0-33.11,0Z"/><path class="d" d="M49.81,43.35c-11.04,0-22.08,0-33.12,0-.1,0-.19,0-.29,0-2.24,0-3.32-.75-3.26-2.23,.07-1.49,1.16-2.15,3.38-2.15,22.17,0,44.35,0,66.52,0,.29,0,.58-.01,.87,.01,1.54,.13,2.46,.95,2.46,2.18,0,1.3-.96,2.16-2.59,2.17-6.86,.02-13.71,0-20.57,0-4.47,0-8.95,0-13.42,0h0Z"/><path class="d" d="M49.7,72.23c-11.14,0-22.27,0-33.41-.01-.62,0-1.39,.02-1.82-.31-.58-.46-1.24-1.26-1.23-1.9,0-.64,.68-1.45,1.28-1.86,.49-.34,1.3-.28,1.98-.28,22.18-.01,44.35-.01,66.53,0,.53,0,1.08,0,1.6,.1,1.09,.22,1.73,.94,1.75,2.03,.02,1.09-.58,1.85-1.67,2.09-.51,.12-1.06,.14-1.59,.14-11.14,0-22.27,0-33.41,0Z"/><path class="d" d="M31.7,28.92c-5.1,0-10.2,0-15.3,0-.58,0-1.32,.11-1.7-.19-.64-.53-1.42-1.32-1.45-2.04-.03-.63,.8-1.42,1.43-1.89,.39-.3,1.12-.19,1.7-.19,10.3,0,20.59,0,30.89,0,.29,0,.58-.01,.87,.01,1.44,.12,2.3,.93,2.31,2.14,0,1.21-.87,2.1-2.29,2.15-1.94,.07-3.88,.03-5.83,.03-3.55,0-7.09,0-10.64,0Z"/><path class="d" d="M31.81,82.3c5.15,0,10.3,0,15.44,0,.53,0,1.08,.01,1.59,.13,1.03,.24,1.58,.98,1.59,2,.01,1.08-.58,1.85-1.67,2.09-.47,.1-.96,.1-1.45,.1-10.34,0-20.69,0-31.03,0-2.1,0-3.17-.76-3.14-2.2,.03-1.43,1.07-2.12,3.22-2.13,5.15,0,10.3,0,15.44,0Z"/></g><g><g><polygon class="e" points="13.9 99.95 28.61 94.05 41.9 100.73 28.21 107.03 13.9 99.95"/><polygon class="e" points="28.14 106.78 41.9 100.52 41.9 113.61 28.61 121.58 28.14 106.78"/></g><polygon class="e" points="28.14 106.78 13.9 99.95 14.37 113.61 28.61 121.58 28.14 106.78"/></g></g></g></g></svg>