<?xml version="1.0" encoding="UTF-8"?><svg xmlns="http://www.w3.org/2000/svg" viewBox="0 0 153.47 137.29"><defs><style>.d{fill:#0b4290;}</style></defs><g id="a"/><g id="b"><g id="c"><g><path class="d" d="M0,22.18c.87-1.71,2.28-2.24,4.17-2.2,4.69,.1,9.39,.03,14.09,.03,.54,0,1.08,0,1.82,0,0-.66,0-1.19,0-1.72,0-4.85,.02-9.69-.01-14.54-.01-1.58,.36-2.88,1.95-3.52,1.55-.62,2.68,.14,3.72,1.19,2.36,2.37,4.77,4.7,7.09,7.11,.71,.74,1.23,.87,2.16,.33C42.46,4.57,50.52,1.87,59.05,.69c11.75-1.63,23.23-.39,34.28,3.94,15.18,5.95,26.87,16.05,35,30.21,.87,1.51,1.66,3.07,2.41,4.65,.84,1.77,.29,3.5-1.23,4.23-1.58,.76-3.22,.2-4.1-1.6-2.96-6.05-6.62-11.61-11.3-16.48-9.64-10.04-21.31-16.36-35.03-18.71-14-2.4-27.31-.15-39.9,6.44-.26,.14-.51,.29-.94,.54,1.5,1.5,2.93,2.93,4.37,4.36,1.66,1.66,3.29,3.35,5,4.96,1.13,1.07,1.63,2.27,1.61,3.84-.06,5.49-.06,10.99,.02,16.48,.01,.79,.4,1.76,.95,2.31,5.57,5.66,11.2,11.26,16.82,16.88,.98,.98,1.83,2,1.41,3.54-.54,1.97-2.63,2.85-4.37,1.77-.54-.34-1.02-.8-1.48-1.26-5.55-5.54-11.07-11.11-16.66-16.61-.56-.55-1.53-.95-2.31-.96-5.54-.08-11.09-.07-16.63-.02-1.46,.01-2.58-.48-3.6-1.49-3.1-3.11-6.26-6.16-9.6-9.45-9.3,18.05-10.61,36.48-2.56,55.18,10.66,24.78,34.63,37.68,56.56,37.75v-11.47c-2.75-.35-5.42-.58-8.06-1.03-8.86-1.5-16.75-5.2-23.63-10.92-8.64-7.18-14.3-16.28-16.97-27.22-1.75-7.19-1.87-14.43-.48-21.69,.37-1.92,1.8-3.05,3.46-2.78,1.85,.3,2.83,1.89,2.41,4.12-.85,4.45-1.07,8.92-.53,13.41,1.29,10.76,5.78,19.94,13.61,27.45,7.07,6.79,15.5,10.78,25.19,12.12,1.58,.22,3.18,.27,5.01,.42v-1.52c0-4.2,.04-8.39-.03-12.59-.01-.78-.31-1.66-.75-2.3-1.43-2.05-2.05-4.29-2.05-6.75,0-5.74-.02-11.49,0-17.23,.01-2.64,1.11-3.68,3.78-3.69,6.64,0,13.29,0,19.93,0h1.83c0-1.68,.1-3.27-.02-4.84-.36-5.09,3.07-7.03,6.79-6.88,4.39,.18,8.79,.04,13.18,.04h2.07c-1.18-3.07-2.03-6.01-3.4-8.69-7.58-14.86-19.67-23.41-36.3-25.18-3.58-.38-7.25,.13-10.88,.23-.7,.02-1.4,.16-2.09,.13-1.46-.07-2.53-1.09-2.73-2.51-.18-1.32,.53-2.67,1.84-3.08,1.13-.36,2.33-.58,3.51-.69,16.74-1.67,31.14,3.35,42.95,15.38,6.4,6.52,10.58,14.33,12.71,23.22,.06,.24,.13,.48,.21,.72,.05,.14,.12,.27,.22,.49,1.12,0,2.26-.01,3.41,0,3.72,.05,5.93,2.26,5.99,6,.03,1.84,0,3.67,0,5.67h1.74c6.59,0,13.19,0,19.78,0,2.96,0,3.99,1.02,4,3.95,0,5.59,0,11.19,0,16.78,0,2.68-.68,5.1-2.32,7.27-.4,.53-.56,1.37-.56,2.07-.03,10.04-.01,20.08-.03,30.12,0,3.93-2.03,6.64-5.46,7.37-.72,.15-1.49,.16-2.23,.16-24.62,0-49.25,.05-73.87,0-30.54-.06-56.67-19.11-65.83-48.2-1.5-4.76-1.96-9.85-2.9-14.79-.07-.38-.17-.76-.26-1.14v-8.99c.1-.53,.22-1.06,.29-1.59,.38-2.56,.63-5.15,1.14-7.69,1.41-7.04,3.87-13.7,7.47-19.92,.52-.89,.46-1.43-.3-2.16-2.31-2.21-4.55-4.49-6.77-6.78C1.14,25.3,.6,24.46,0,23.68v-1.5ZM73.76,101.63v1.63c0,8.59,0,17.18,0,25.77,0,2.22,.03,2.25,2.28,2.25,22.07,0,44.14,0,66.21,0,.4,0,.86,.12,1.18-.04,.42-.2,1.04-.62,1.05-.96,.09-2.42,.05-4.85,.05-7.4h-1.79c-5.59,0-11.18,0-16.78,0-.64,0-1.31-.03-1.92-.21-1.35-.4-2.07-1.38-2.07-2.78,0-1.4,.72-2.38,2.06-2.79,.61-.18,1.28-.2,1.92-.21,5.64-.01,11.28,0,16.93,0h1.56v-15.27h-26.25c-2.1,5.68-4.8,7.92-9.3,7.81-4.23-.11-7.11-2.66-8.7-7.8h-26.44Zm-2.84-26.03c0,4.92-.01,9.71,0,14.5,.01,3.74,1.78,5.49,5.51,5.5,7.39,0,14.78,0,22.17,0h1.63c0-.94-.05-1.73,0-2.51,.19-2.53,1.5-3.78,4.05-3.81,3.3-.03,6.59-.04,9.89,0,2.52,.03,3.85,1.4,3.92,3.92,.02,.77,0,1.55,0,2.37,8.44,0,16.63,.04,24.82-.02,2.64-.02,4.48-2.07,4.52-4.8,.04-2.9,.01-5.79,.01-8.69,0-2.13,0-4.27,0-6.47H70.92ZM10.7,26.02l-.23,.45c4.05,3.99,8.11,7.97,12.16,11.96,1.56,1.54,2.87,3.69,4.74,4.47,1.93,.8,4.41,.26,6.64,.28,1.52,.02,3.03,0,4.62,0-.11-.3-.11-.41-.17-.47-5.38-5.42-10.76-10.83-16.16-16.23-.23-.23-.59-.45-.89-.45-3.57-.03-7.15-.02-10.72-.02Zm15.75-15.52l-.38,.15c0,3.32-.04,6.64,.04,9.96,.02,.65,.34,1.46,.8,1.92,5.03,5.12,10.12,10.19,15.19,15.27,.29,.29,.62,.53,1.11,.94,0-3.77,.02-7.26-.02-10.74,0-.39-.23-.88-.51-1.16-5.39-5.46-10.81-10.9-16.22-16.34ZM121.87,63.96h-25.32v5.48h25.32v-5.48Zm-15.49,31.39c0,1.98-.12,3.91,.04,5.82,.11,1.36,1.37,2.24,2.73,2.26,1.34,.02,2.7-.85,2.81-2.18,.17-1.95,.04-3.92,.04-5.9h-5.63Z"/><path class="d" d="M37.73,68.23c.6-2.97,1.11-5.95,1.84-8.89,.47-1.92,2.05-2.79,3.72-2.35,1.61,.42,2.52,2.03,1.97,3.93-1.25,4.25-1.55,8.51-.62,12.85,1.29,6.01,4.43,10.82,9.3,14.53,.75,.57,1.58,1.06,2.29,1.67,1.23,1.05,1.45,2.78,.58,4.04-.86,1.24-2.59,1.63-3.99,.76-5.87-3.63-10.14-8.62-12.67-15.06-1.44-3.67-2.03-7.49-2.42-11.48Z"/><path class="d" d="M90.51,48.05c-.07,2.67-2.31,4.09-4.2,3.18-.57-.28-1.08-.71-1.57-1.12-7.03-5.81-14.91-7.42-23.66-4.84-.43,.13-.86,.26-1.29,.35-1.75,.34-3.16-.47-3.61-2.05-.44-1.51,.38-3.04,2.06-3.65,3.5-1.27,7.12-1.91,10.85-1.82,7.62,.19,14.32,2.77,19.98,7.89,.72,.65,1.15,1.64,1.45,2.08Z"/><path class="d" d="M129.46,52.99c0-1.67,1.2-2.92,2.87-2.95,1.68-.03,3.01,1.28,3.03,2.99,.02,1.58-1.34,2.98-2.9,3-1.67,.02-2.98-1.32-2.99-3.04Z"/><path class="d" d="M110.17,122.86c-1.59-.04-2.92-1.43-2.88-3.04,.03-1.59,1.44-2.95,3.01-2.91,1.58,.04,2.95,1.48,2.91,3.04-.04,1.57-1.49,2.95-3.04,2.91Z"/></g></g></g></svg>