<?xml version="1.0" encoding="UTF-8"?><svg xmlns="http://www.w3.org/2000/svg" xmlns:xlink="http://www.w3.org/1999/xlink" viewBox="0 0 1920.5 334.61"><defs><style>.f{isolation:isolate;}.g{fill:url(#e);opacity:.15;}.g,.h{mix-blend-mode:color-dodge;}.h{fill:url(#d);opacity:.31;}</style><linearGradient id="d" x1="954.94" y1="-20.24" x2="965.95" y2="368.59" gradientTransform="matrix(1, 0, 0, 1, 0, 0)" gradientUnits="userSpaceOnUse"><stop offset="0" stop-color="#fff"/><stop offset="1" stop-color="#000"/></linearGradient><linearGradient id="e" x1="952.76" y1="-26.88" x2="963.96" y2="368.77" xlink:href="#d"/></defs><g class="f"><g id="a"/><g id="b"><g id="c"><path class="h" d="M1920.5,0V334.61H0l.5-107s.75-.24,2.26-.69c13.3-3.96,85.45-23.95,219.92-35.02,155.17-12.77,393.33-13.66,719.82,35.71,26.67,4.03,52.81,7.34,78.42,9.96,311.97,32.03,545.4-36.11,696.2-107.51C1845.12,69.47,1913.59,6.51,1920,.47c.33-.31,.5-.47,.5-.47Z"/><path class="g" d="M1920.5,140.94v193.67H0l1.04-105.96L.5,48.48S84.42,124.91,222.68,191.9c142.78,69.18,350.78,128.29,606.49,82.78,67-11.93,130.63-24.52,191.75-37.11,254.64-52.45,465.77-104.74,696.2-107.51,65.58-.78,132.73,2.44,202.88,10.82,.17,.02,.33,.04,.5,.06Z"/></g></g></g></svg>