<?xml version="1.0" encoding="UTF-8"?><svg xmlns="http://www.w3.org/2000/svg" viewBox="0 0 156.88 156.84"><defs><style>.d{fill:#0b4290;}</style></defs><g id="a"/><g id="b"><g id="c"><g><path class="d" d="M78.63,0C35.37-.09,.04,35.12,0,78.38c-.04,43.14,35.19,78.41,78.35,78.46,8.95,.01,17.56-1.49,25.58-4.26v-5.9c-15.03,5.94-31.26,6.28-48.46,.55-26.08-8.69-42.19-27.38-48.21-54.23-3.44-15.35-1.47-30.37,5.03-44.74,.11-.24,.25-.46,.63-1.13,3.42,3.24,6.86,6.23,9.94,9.54,2.24,2.41,4.14,5.18,5.95,7.95,1.45,2.23,1.74,4.71,1,7.43-1.7,6.23-.38,12.21,2.65,17.69,2.1,3.81,4.71,7.37,7.43,10.78,1.37,1.72,2.3,3.41,2.23,5.54-.13,3.98-.51,7.95-.57,11.93-.07,4.9-.36,9.86,.24,14.69,.78,6.37,5.94,9.48,12.24,7.99,3.96-.94,7.28-2.93,9.33-6.56,.6-1.06,1.06-2.36,1.1-3.56,.08-3.06,1.33-5.5,3.43-7.59,1.23-1.21,2.51-2.37,3.78-3.54,1.91-1.77,2.8-3.99,2.18-6.48-1.07-4.27,.28-7.46,3.3-10.57,5.55-5.71,10.08-12.21,12.28-20,1.2-4.29,1.34-8.59-2.19-12.09-2.86-2.85-5.93-3.24-9.4-1.16-1.24,.75-2.36,1.71-3.49,2.63-1.04,.83-1.98,1.78-3.04,2.57-2.71,2.04-4.07,1.74-4.76-1.51-2.02-9.59-8.25-15.11-17.01-18.4-2.17-.82-4.29-1.79-6.36-2.83-1.29-.64-2.44-1.54-3.65-2.32,.04-.23,.08-.45,.12-.68,2.27-.68,4.53-1.4,6.82-2.01,4.41-1.19,8.85-2.26,13.25-3.48,8.46-2.34,12.91-9.45,11.39-18.12-.97-5.49-3.23-10.5-5.9-15.35-.41-.74-.82-1.49-1.35-2.45,13.71-2.62,26.86-1.69,39.96,3.12-1.4,1.54-2.66,2.87-3.86,4.27-2.9,3.4-5.58,6.95-6.98,11.28-1.91,5.96,1.73,12.86,7.41,13.57,1.86,.23,4.05-.2,5.74-1.04,3.19-1.58,6.16-3.62,9.15-5.59,1.22-.8,2.34-1.23,3.67-.43,5.11,3.08,10.77,3.57,16.54,3.33,1.31-.06,2.04,.35,2.76,1.4,3.94,5.8,7.09,11.98,9.26,18.66,.1,.3,.16,.62,.31,1.24-7.48-.43-14.88,.04-21.81-3.1-4.03-1.83-7.96-1.16-11.69,.79-6.46,3.38-9.48,9.15-10.03,14.93h5.79c.65-4.74,3.51-8.62,8.06-10.4,2.07-.82,4.02-.85,6.13,.15,5.22,2.47,10.92,2.67,16.54,3.07,2.39,.17,4.78,.17,7.17,.14,1.05-.01,1.57,.31,1.76,1.36,1.67,9.15,1.84,17.98,.44,26.48l4.26,7.37c1.58-6.15,2.42-12.58,2.44-19.21C157,35.44,121.78,.09,78.63,0Zm-13.08,26.19c1.04,5.82-2.08,10.14-7.97,11.6-5.53,1.37-11.04,2.82-16.51,4.4-1.89,.54-3.77,1.37-5.4,2.46-2.9,1.92-3.37,5.27-.86,7.67,2.07,1.98,4.59,3.59,7.13,4.96,3.14,1.69,6.55,2.9,9.78,4.45,4.43,2.11,7.38,5.52,8.64,10.34,.42,1.6,.93,3.2,1.61,4.7,1.97,4.31,6.55,5.86,10.61,3.4,2.31-1.39,4.25-3.37,6.47-4.92,1.01-.71,2.48-1.64,3.42-1.38,1.66,.47,2.31,2.38,1.9,3.97-.81,3.17-1.52,6.54-3.16,9.31-2.48,4.19-5.47,8.16-8.71,11.81-3.55,3.98-5.67,8.16-4.41,13.55,.38,1.63-.18,2.71-1.38,3.8-1.77,1.6-3.47,3.31-4.97,5.16-1.83,2.26-2.72,4.97-2.87,7.91-.2,3.75-6.27,7.36-9.49,5.5-.98-.56-1.92-2.05-1.99-3.17-.28-4.22-.29-8.47-.2-12.71,.08-4.45,.49-8.88,.57-13.33,.07-3.45-1.21-6.39-3.66-8.95-4.33-4.53-7.7-9.74-8.81-16.01-.44-2.47-.3-5.18,.19-7.65,.63-3.13,.53-6.05-.66-8.97-1.84-4.51-4.73-8.32-8.12-11.72-3.55-3.56-7.32-6.91-11.14-10.49C25.4,25.5,39.49,14.36,58,8.59c3.41,5.62,6.41,11.22,7.55,17.6Zm66.59,3.83c-3.47-.12-6.8-.56-9.82-2.31-3.9-2.27-7.48-1.88-11.06,.93-2.22,1.75-4.73,3.21-7.27,4.45-1.07,.53-2.94,.7-3.8,.1-1.56-1.07-2.74-2.91-1.97-5.01,.69-1.92,1.51-3.89,2.73-5.48,2.42-3.15,5.13-6.08,7.8-9.02,.36-.39,1.37-.64,1.81-.42,8.24,4.07,15.53,9.42,21.62,16.34,.03,.03-.01,.12-.04,.42Z"/><polygon class="d" points="109.93 135.15 109.93 143.99 109.93 150.22 109.93 152.28 120.84 144.55 131.29 151.96 131.29 136.28 131.29 135.15 123.69 135.15 109.93 135.15"/><path class="d" d="M134.29,133.38c.4-.4,.8-.81,1.18-1.23h-1.18v1.23Z"/><path class="d" d="M134.71,75.6h-29.19l-.68,1.18-13.92,24.09,14.6,25.28h29.19l5.35-9.28c1.04-1.64,1.99-3.3,2.87-4.97l6.37-11.03-1.08-1.88-13.51-23.39Zm-.26,37.9l-3.39,5.87-.27,.47h-21.36l-10.68-18.5,9.97-17.27,.71-1.23h21.36l10.68,18.5-7.02,12.16Z"/></g></g></g></svg>