<?xml version="1.0" encoding="UTF-8"?><svg xmlns="http://www.w3.org/2000/svg" viewBox="0 0 100.44 61.38"><g id="a"/><g id="b"><g id="c"><g><path d="M51.08,0c.68,.19,1.35,.44,2.07,.43,.55,0,.92,.18,.89,.86,0,.17,.02,.35-.01,.52-.1,.58,.22,1.02,.43,1.49,.02,.05,.2,.07,.29,.04,.24-.07,.47-.16,.7-.25,.19-.08,.38-.17,.56-.27,.24-.14,.45-.35,.7-.44,.2-.07,.5-.09,.65,.03,.27,.2,.58,.29,.84,.46,.29,.19,.54,.5,.72,.82,.22,.4,.44,.75,.86,.95,.45,.21,.78,.53,.74,1.14-.01,.19,.15,.44,.29,.59,.36,.4,.29,.86,.16,1.28-.11,.37-.15,.8-.6,1-.18,.08-.25,.39-.39,.58-.27,.37-.52,.75-.82,1.08-.3,.33-.53,.28-.77-.11-.07-.1-.13-.21-.28-.3,.01,.14,0,.3,.04,.43,.13,.37,.29,.72,.41,1.09,.08,.26,.1,.53,.15,.8,.02,.09,0,.22,.05,.27,.28,.27,.17,.56,.09,.87-.03,.1-.08,.21-.05,.3,.13,.45-.09,.81-.23,1.19-.1,.28-.18,.57-.31,.83-.22,.43-.46,.86-.72,1.26-.11,.16-.24,.27-.27,.51-.02,.18-.23,.33-.35,.5-.06,.09-.17,.2-.16,.28,.18,1.12-.18,2.13-.56,3.12-.25,.65-.31,1.28-.13,1.93,.15,.53,.37,1.05,.59,1.56,.09,.2,.27,.3,.52,.26,.31-.06,.59,.04,.77,.34,.19,.3,.38,.59,.56,.9,.19,.34,.13,.57-.18,.83,.88,.25,1.53,1.11,1.59,2.09,.01,.22,0,.44,.02,.66,.02,.14,.06,.29,.14,.4,.15,.23,.16,.62,.02,.86-.09,.15-.15,.33-.17,.5-.07,.79-.34,1.48-.87,2.05-.35,.38-.79,.53-1.28,.52-.13,0-.27,0-.4,.01-.17,.02-.26,.11-.24,.32,.05,.82-.42,1.33-1.24,1.34-1.17,.01-2.33,0-3.5,0-2.58,0-5.17,.02-7.75,0-.37,0-.75-.05-1.1-.16-.52-.16-.75-.59-.67-1.15,.04-.29-.11-.35-.31-.37-.24-.03-.49,0-.72-.06-.93-.22-1.54-.79-1.7-1.82-.08-.47-.08-.96-.38-1.38-.09-.13,.02-.43,.06-.65,.03-.16,.12-.3,.15-.46,.1-.5,.08-1.08,.31-1.5,.3-.54,.59-1.22,1.39-1.18-.38-.43-.39-.61-.06-1.09,.15-.22,.29-.46,.45-.68,.2-.28,.47-.42,.81-.33,.23,.06,.32,0,.37-.27,.05-.28,.19-.54,.32-.79,.4-.77,.49-1.57,.23-2.41-.12-.38-.19-.79-.32-1.17-.27-.78-.32-1.58-.2-2.4-.36-.1-.49-.4-.57-.74,0-.03,0-.09-.01-.1-.42-.29-.4-.89-.76-1.21-.06-.06-.13-.13-.16-.21-.17-.43-.35-.87-.49-1.31-.07-.2-.07-.43-.09-.64-.01-.15,.03-.32-.02-.45-.13-.34-.16-.65,.1-.93,.03-.03,.05-.09,.05-.13-.08-.72,.34-1.3,.51-1.95,.04-.15,.07-.3,.11-.46l-.09-.05c-.09,.13-.17,.27-.26,.4-.2,.29-.43,.34-.66,.07-.36-.42-.67-.88-1.01-1.33-.09-.13-.16-.32-.28-.38-.55-.29-.49-.86-.66-1.35-.15-.46,.09-.67,.26-.97,.11-.19,.21-.42,.22-.63,.02-.48,.23-.81,.62-1.02,.14-.08,.3-.11,.41-.21,.2-.17,.44-.35,.53-.59,.23-.59,.56-1,1.17-1.14,.08-.02,.15-.09,.21-.15,.37-.35,.71-.39,1.14-.11,.14,.09,.26,.22,.4,.3,.22,.12,.45,.22,.67,.32,.19,.08,.39,.14,.57,.24,.2,.11,.32,.12,.45-.12,.25-.46,.48-.91,.33-1.47-.04-.15,0-.32,0-.49,0-.54,.22-.78,.73-.83,.31-.03,.63-.03,.93-.09,.44-.09,.87-.23,1.3-.34h.26c.42,.31,1.23,.31,1.72,0h.2Zm-6.2,11.97c.27-.39,.27-.82-.18-.98,.06,.34,.12,.66,.17,.97-.1,.12-.28,.25-.27,.37,0,.15,.15,.34,.36,.22l-.08-.58Zm12.17-.73c.09-.18,.14-.4,.28-.52,.4-.35,.45-.6,.14-1.21-.05,.16-.14,.3-.11,.37,.12,.22,0,.33-.13,.44-.31,.26-.4,.55-.18,.92,.25,.18,.28,.36,.08,.62-.09,.11-.09,.31-.13,.47,.53,.1,.52,.1,.37,.61-.03,.09,.02,.29,.08,.32,.29,.15,.3,.38,.23,.67-.02,.1,.05,.22,.08,.34h.14c-.2-.63,.61-.86,.48-1.46-.05,0-.06-.01-.07,0-.07,.11-.14,.23-.21,.34-.13,.2-.27,.21-.36-.01-.04-.11-.02-.27,.03-.37,.13-.26,.3-.48,.42-.74,.04-.1-.01-.24-.02-.37-.08,.07-.18,.13-.25,.21-.09,.1-.16,.24-.27,.3-.05,.03-.25-.09-.25-.14,0-.15,.06-.3,.13-.43,.05-.11,.16-.2,.2-.31,.04-.1,.05-.23,.07-.37-.29,.13-.53,.23-.77,.33Zm-14.17-.05c-.14-.05-.28-.1-.43-.15-.07-.03-.15-.05-.22-.08,0,.09-.04,.2,0,.27,.08,.17,.21,.33,.31,.49,.09,.15,.13,.32-.05,.42-.18,.1-.3,.03-.39-.17-.06-.12-.25-.3-.28-.28-.22,.15-.04,.32,.03,.47,.03,.06,.08,.11,.11,.17,.1,.18,.24,.34,.3,.53,.03,.12-.07,.28-.11,.42-.1-.07-.21-.12-.29-.2-.07-.07-.1-.18-.15-.28l-.1,.04c.05,.17,.08,.35,.16,.51,.14,.29,.3,.56,.48,.9,.15,0,.09-.19,.07-.34-.03-.2-.08-.4,.13-.52,.28-.16,.3-.38,.13-.63-.13-.2-.02-.3,.13-.38,.07-.04,.16-.05,.25-.07,.09-.4-.39-.75-.06-1.15,.03-.02,.08-.02,.1-.05,.18-.28,.09-.51-.12-.73-.14-.14-.4-.25-.2-.56,.02-.03-.1-.18-.16-.28-.11,.29-.19,.56-.17,.82,.01,.12,.25,.2,.35,.33,.1,.13,.14,.31,.21,.47Zm4.64,15.26l-.2,.26c.09,.07,.19,.2,.27,.18,.11-.02,.32,.08,.32-.18,.2,.09,.32,0,.44-.19,.1-.17,.28-.28,.48-.48l-.29-.76-.37,.8c.36-1.54,.21-3.07,.1-4.61l.33,.55,.12-.02,.07-.74c.05,0,.17,0,.17-.02,.01-.27,.03-.54,.02-.8-.02-.64-.11-1.28-.06-1.9,.03-.35,0-.52-.32-.6-.07-.02-.15-.05-.22-.07-.06-.02-.13-.03-.19-.04,.3,.18,.28,.44,.25,.74-.05,.54-.05,1.08-.07,1.63,0,.11-.02,.22-.03,.33-.11-.42-.15-.83-.23-1.23-.09-.47-.21-.94-.33-1.41-.02-.07-.09-.16-.15-.18-.2-.05-.41-.12-.61-.1-.13,.01-.33,.17-.34,.27-.04,.43-.02,.87-.02,1.31h.08v-1.04h.07l.07,.71h.08l.23-.76c.04,.18,.03,.34,0,.5-.09,.61-.14,1.22,.18,1.79,.08,.15,.17,.3,.22,.46,.1,.32,.19,.65,.28,.97h-.04l-.45-1.03-.13,.02v2.04h-.13v-1.04c-.09,.29-.07,.6-.15,.87-.11,.36-.07,.66,.1,.99,.23,.44,.11,.81-.26,1.16-.26,.25-.48,.55-.68,.86-.11,.17-.15,.4-.22,.58,.29-.05,.32-.03,.33,.27-.23-.14-.31-.08-.4,.36l.56-.15-.08-.08c.08-.15,.16-.3,.23-.46,.05-.11,.12-.25,.1-.36-.07-.44,0-.57,.4-.75-.41,.77-.4,.87,.09,1.07,.1-.3,.19-.6,.3-.89,.13-.31,.29-.6,.43-.91,.06-.14,.07-.3,.1-.45v1.55c-.36-.25-.51-.02-.55,.28-.03,.22,.04,.45,.06,.68Zm4.93-.12l-.33,.5q.36,.1,.52-.16l-.19-.35c.16-.29,.12-.58-.07-.82-.08-.1-.29-.08-.47-.13,.03-.19,.1-.43,.09-.68,0-.25-.08-.49-.13-.74,.09,.11,.12,.23,.16,.35,.09,.27,.13,.59,.29,.79,.24,.29,.32,.61,.38,.96,0,.05,.03,.1,.04,.15q.51-.29,.08-1.12c.44,.18,.51,.33,.43,.79-.02,.08-.02,.19,.02,.26,.1,.2,.23,.39,.34,.59l-.07,.07,.54,.09c-.1-.22-.1-.57-.44-.35-.04-.44,.26-.23,.37-.23-.08-.24-.15-.48-.23-.71-.02-.07-.06-.15-.11-.2-.18-.19-.36-.38-.55-.55-.45-.41-.49-.72-.26-1.26,.1-.24,.1-.53,.11-.79,0-.19-.06-.39-.06-.58,0-.42,.04-.84,.07-1.26h-.09l-.14,1.96h-.06l-.11-2.2-.44,.95c.05-.34,.13-.69,.29-.98,.3-.55,.43-1.13,.37-1.76-.03-.25-.04-.51-.07-.82l.26,.8,.06-.02,.11-.42h.04v.95c.09-.4,.12-.8,.12-1.2,0-.56-.17-.7-.69-.57-.17,.04-.44,.12-.47,.23-.17,.72-.29,1.46-.43,2.2-.03,.15-.03,.31-.04,.46h-.1c0-.1-.02-.2-.02-.31-.01-.52-.03-1.04-.03-1.56,0-.25,.01-.5,.02-.74-.52,.07-.55,.16-.49,.74,.05,.54,.01,1.1,0,1.65,0,.2-.04,.41-.07,.61-.02,.13-.04,.26-.07,.4h.22l.12,.72h.11l.25-.47c0,1.52-.25,3.04,.13,4.55l-.34-.79-.3,.81c.15,.11,.28,.19,.39,.29,.06,.06,.08,.17,.15,.22,.07,.06,.17,.07,.26,.11,.02-.08,.06-.17,.06-.25,0-.14-.03-.27-.03-.34,.17,.07,.33,.13,.49,.2Zm3.84-.24c-.21-.39-.69-.54-.84-.98-.14-.41-.25-.84-.38-1.25,.21,.44,.28,.94,.74,1.25,.11-.59-.06-1.1-.21-1.62-.09-.33-.19-.72-.11-1.04,.2-.86,.19-1.71,.1-2.58-.07-.64-.18-1.28,0-1.93,.03-.13,0-.32-.07-.42-.28-.38-.59-.74-.93-1.17-.43,1.19-.42,2.45-.5,3.74-.04-.11-.07-.15-.09-.21-.18-.51-.1-1.02,0-1.53,.06-.32,0-.6-.23-.88-.09,.14-.15,.28-.16,.43-.04,.65-.05,1.31-.12,1.96-.04,.38-.04,.73,.11,1.08,.21,.53,.31,1.08,.05,1.63-.02,.04-.01,.11,.01,.15,.24,.47,.49,.93,.75,1.42l-.23-.89,.08-.03c.06,.19,.19,.38,.18,.56-.03,.48,.03,.93,.18,1.38,.01,.03,.02,.07,.02,.1,.04,.4,.18,.73,.49,.9,.03,.18,0,.35,.08,.43,.07,.08,.34,.12,.34,.1,.07-.17,.1-.36,.15-.61l.25,.78c.08,0,.26,.05,.31-.01,.09-.11,.13-.29,.14-.44,0-.11-.08-.23-.12-.35,.29,.21,.47,.45,.21,.85,.24-.07,.47-.13,.63-.27,.14-.11,.22-.33-.04-.44-.17-.07-.29-.13-.28-.35,0-.05-.06-.14-.11-.16-.19-.05-.38-.08-.59-.12l.19,.5Zm-12.73,.06c-.02,.08-.08,.16-.06,.23,.02,.16,.04,.35,.13,.48,.05,.07,.24,.01,.31,.01l.25-.73c.06,.22,.09,.41,.16,.57,.02,.04,.27,.01,.32-.06,.08-.11,.08-.28,.13-.49,.29-.12,.38-.44,.48-.81,.22-.86,.35-1.77,.9-2.5,.05-.06,.09-.19,.06-.25-.25-.59-.12-1.14,.06-1.71,.08-.26,.14-.54,.13-.81-.02-.74-.08-1.48-.14-2.21-.01-.13-.07-.26-.11-.43-.29,.24-.35,.51-.32,.79,.02,.27,.11,.53,.12,.8,0,.33-.05,.66-.08,.98-.1-.64-.21-1.25-.24-1.87-.05-.96-.17-1.53-.39-1.72-.28,.35-.58,.68-.83,1.05-.1,.15-.11,.38-.12,.57,0,.38,.03,.75,.03,1.13,0,.97-.07,1.94,.01,2.9,.05,.54,.08,1.04-.08,1.56-.07,.22-.14,.44-.17,.67-.04,.26-.03,.53-.04,.8l.14,.04c.11-.21,.24-.41,.33-.63,.09-.22,.14-.46,.22-.69-.09,.86-.31,1.65-1.07,2.13l.13-.47c-.31,.22-.78,.06-.76,.63-.24,.02-.42,.08-.36,.38,.05,.26,.34,.39,.69,.32-.19-.3-.13-.52,.17-.68Zm7.49-1.62c-.04-.72-.01-1.26-.11-1.77-.2-1.05-.36-2.09-.2-3.16,.02-.12-.09-.31-.19-.38-.3-.21-.64-.17-.98-.08-.28,.07-.39,.23-.34,.52,.15,.93,0,1.83-.1,2.75-.11,1.03-.13,2.07-.15,3.11,0,.26,.12,.53,.21,.79,.08,.23,.25,.33,.5,.3,.22-.02,.45-.05,.66,0,.35,.09,.51-.08,.54-.4,.07-.62,.13-1.23,.17-1.67Zm4.46,3.32l-.14,.18-.23-.19c-.07,.34,.14,.8,.39,.92,.16,.08,.31,.18,.48,.29l.19-.28,.1,.92c-.57,.05-.57,.04-.58-.48,0-.08-.06-.18-.12-.22-.04-.03-.14,0-.2,.04-.08,.04-.15,.11-.24,.2l-.36-1.07c-.05,.37-.1,.43-.34,.4-.32-.04-.47-.27-.49-.69-.04,.12-.06,.24-.06,.36,0,.11,.07,.23,.04,.33-.1,.4-.23,.79-.34,1.18-.02,.09-.03,.23,.02,.27,.05,.05,.17,0,.26,0,.09,0,.23-.07,.26-.03,.15,.17,.42,.26,.4,.58,0,.06,.1,.13,.16,.2,0,.17-.06,.36-.02,.53,.15,.68-.15,1.25-.35,1.85-.04,.13-.06,.27-.1,.41h.39l-.08-.07,.49-1.45c.23,.47,.1,.84,.02,1.2-.09,.4-.06,.44,.34,.36l.25-1.82c.29,0,.56,.01,.83,0,.18,0,.24,.04,.21,.24-.07,.46-.13,.93-.19,1.43l.23,.03,.32-1.34c.18,.33,.13,.63,0,.94-.14,.32-.01,.48,.3,.44,.01-.17,0-.35,.04-.51,.12-.4,.23-.78,.16-1.21-.03-.21,.09-.45,.15-.68l.07,.02,.03,.71c.04-.47,.02-.94-.02-1.41-.04-.46-.36-.64-.74-.69-.27-.04-.39-.19-.39-.47,0-.37,0-.74,0-1.11-.68,.13-1.05,.04-1.15-.28Zm-13.19,1.25c.27,.27,.1,.53,.05,.79-.04,.19-.18,.4,.04,.57,.19,.15,.12,.3,.03,.48-.08,.16-.17,.37-.13,.52,.07,.27,.03,.41-.19,.57-.44,.33-.38,1.16,.1,1.43,.09,.05,.31,.03,.36-.04,.12-.16-.07-.19-.15-.28-.14-.15-.27-.36-.31-.56-.04-.23,.12-.42,.36-.45,.41-.04,.54-.28,.48-.69,0-.06,.01-.13,.02-.19,.06,0,.09,0,.12,0,.03,0,.06,.03,.08,.06,.32,.55,.79,.55,1.3,.4,.07-.02,.18,.02,.25,.06,.22,.15,.42,.33,.64,.49,.6,.43,.67,.63,.49,1.38,.11,0,.27,.04,.29,0,.06-.11,.1-.26,.08-.38-.03-.15-.14-.28-.2-.43-.04-.1-.05-.22-.09-.42,.59,.45,.7,.69,.5,1.11,.13,.03,.3,.11,.35,.06,.07-.06,.12-.26,.08-.36-.13-.3-.08-.77-.56-.8-.02,0-.04-.02-.05-.04-.24-.33-.51-.64-.7-1-.18-.34-.01-.66,.34-.7,.35-.04,.54-.26,.52-.59-.04-.66,.13-1.25,.4-1.83,0-.01-.01-.03-.02-.04-.91,.45-.72,1.34-.73,2.19-.25,.02-.49,.11-.67,.03-.45-.2-.91-.32-1.4-.31-.25,0-.35-.17-.29-.46,.04-.23,.03-.48,0-.72-.04-.28-.15-.54-.23-.84l-.45-.28c.23-.24,.76,.02,.71-.47l-1.07-.16c-.05,.21-.04,.42-.14,.51-.5,.44-.56,1.02-.56,1.63,0,.1,.1,.21,.16,.31l.09-.03,.12-.54Zm10.71-.37c-1-1.73-2.74-2.12-3.99-1.71-1.3,.43-2.31,1.73-2.39,3.1-.1,1.72,.63,2.87,2.38,3.74,0,.46,.16,.65,.59,.65l-.32-.54h1.45l-.33,.53c.31,.04,.58-.12,.58-.37,0-.26,.13-.31,.31-.39,1.67-.73,2.46-2.55,1.9-4.37-.04-.12-.07-.25-.13-.46l.33,.3c.23-.47,.33-.93,.14-1.41h-.09l-.08,.31c-.2-.25-.37-.5-.72-.18l.49,.4-.13,.4ZM48.04,3.98c-.09-.05-.17-.1-.26-.16-.18-.11-.37-.66-.3-.86,.11-.3,.95-.78,1.26-.71,.6,.13,.98,.86,.76,1.47-.04,.12-.08,.28-.04,.39,.1,.3,.5,.45,.77,.31,.33-.16,.45-.48,.25-.81-.18-.29-.08-.53,.07-.77,.19-.31,.44-.6,.81-.59,.37,0,.71,.2,.99,.49,.25,.27,.16,.99-.17,1.11-.23,.09-.21,.21-.15,.39,.04,.13,.09,.26,.15,.39,.04,.09,.11,.15,.17,.23,.08-.07,.16-.13,.23-.21,.14-.15,.27-.31,.41-.46l.13,.03c-.07-.2-.15-.39-.21-.59-.07-.2-.17-.4-.17-.61-.02-.59-.09-.71-.61-.95-.76-.36-1.55-.35-2.36-.36-.73,0-1.42,.11-2.06,.47-.29,.17-.46,.38-.44,.77,.01,.23-.11,.47-.18,.71-.06,.19-.13,.37-.22,.62,.39-.08,.47,.17,.58,.38,.08,.15,.2,.32,.33,.09,.13-.23,.19-.51,.28-.79Zm3.97,1.68c0-.06,0-.12,0-.17-.05-.7-.38-.95-1.01-.77-.24,.07-.48,.18-.72,.22-.19,.04-.4,.04-.59,0-.29-.06-.56-.19-.85-.27-.37-.1-.59,.02-.75,.38-.21,.46-.17,1.01,.09,1.19,.08,.06,.2,.08,.31,.09,.38,.02,.66-.22,.93-.45,.42-.35,.7-.35,1.13-.03,.2,.15,.41,.31,.64,.41,.54,.22,.83,0,.82-.6Zm-8.44,22.22c.08,.14,.23,.3,.21,.42-.04,.29,.01,.47,.3,.55-.16,.36-.02,.65,.16,.92,.06,.08,.22,.14,.33,.12,.34-.06,.66-.09,.94,.19,.06,.05,.19,.02,.38,.03-.5-1.01,.29-1.51,.71-2.23h-3.02Zm.38,5.27c.13,.09,.23,.19,.34,.23,.14,.05,.35,.12,.42,.05,.29-.29,.49-.08,.73,.07-.26,.29-.06,.52,.08,.75,.16,.26,.23,.28,.51,.21-.35-.3-.49-.67-.39-1.13,.03-.13,0-.28,.05-.4,.08-.2-.03-.24-.15-.3-.22-.11-.43-.25-.66-.36-.1-.05-.22-.09-.33-.11-.49-.07-.97-.12-1.27-.16l-.89,.65c.17,.2,.48-.21,.58,.22l-.28,.06c.14,.21,.21,.49,.56,.29,.06,.17,.1,.32,.16,.46,.04,.08,.15,.19,.18,.18,.3-.16,.39,.11,.5,.29,.12,.19,.24,.36,.52,.26-.19-.44-.71-.69-.66-1.27ZM60,5.2c-.19-.1-.43-.16-.55-.32-.4-.52-.8-.39-1.23-.07-.04,.03-.08,.04-.11,.07-.08,.09-.22,.24-.2,.27,.08,.14,.2,.27,.33,.34,.1,.06,.24,.03,.37,.04l.04,.12c-.12,.08-.24,.17-.37,.23-.28,.12-.61,.57-.52,.79,.16,.37,.15,.71,.01,1.07-.02,.06,0,.13,0,.2,.03,.24,.06,.49,.09,.73,.03,.23,.04,.48,.38,.41,0-.06,.02-.1,.02-.14,0-.07-.03-.14-.04-.2q-.17-.57,.28-.96s.03-.03,.05-.05c.27-.26,.24-.48-.1-.63-.16-.07-.33-.13-.5-.19l.03-.14,.53,.12-.12-.1c.1-.05,.22-.15,.3-.13,.32,.09,.69-.32,.97,.15-.03-.18-.15-.34-.12-.45,.12-.36-.12-.41-.33-.51-.08-.04-.17-.08-.26-.12,.3-.49,.5-.58,1.04-.56Zm-18.64,.45l.02-.11c.11-.01,.25,.01,.34-.04,.14-.08,.25-.22,.37-.34-.18-.16-.34-.35-.54-.47-.16-.1-.41-.23-.54-.16-.36,.16-.68,.42-1.02,.65,0,0,0,.04,.01,.06l.04-.09c.27,.1,.55,.19,.81,.32,.08,.04,.17,.18,.16,.27,0,.06-.16,.12-.24,.18-.12,.09-.3,.15-.35,.27-.08,.18-.06,.41-.08,.61,.35-.27,.92-.22,1.16,.08l.51-.07,.02,.12c-.07,.04-.15,.06-.22,.11-.19,.12-.37,.25-.56,.37,.14,.16,.27,.35,.43,.49,.22,.19,.3,.38,.17,.66-.07,.16-.1,.34-.16,.52,.33,.1,.4-.09,.42-.31,.02-.19,0-.39,.02-.58,.01-.23,.03-.46,.04-.7,.02-.25,.04-.51,.05-.76,0-.1,.02-.21-.03-.29-.14-.27-.26-.57-.61-.61-.08-.01-.15-.11-.22-.17Zm2.38,4.48c-.25,.45-.15,.76,.17,1.02,.06,.05,.05,.2,.08,.3-.11,0-.22,.01-.34,.02-.1,0-.24-.02-.3,.04-.05,.05-.06,.23-.01,.3,.05,.08,.1,.3,.29,.13,.01-.01,.18,.11,.18,.15-.04,.19-.08,.39-.18,.54-.03,.04-.26-.07-.41-.12-.24,.18-.18,.37,.03,.55,.09,.07,.19,.12,.27,.2,.15,.15,.13,.33-.04,.43-.08,.05-.25,0-.35-.06-.11-.07-.18-.2-.28-.32-.22,.43-.14,.7,.22,.86,.11,.05,.25,.06,.33,.14,.1,.1,.2,.27,.19,.39-.01,.18-.12,.35-.35,.32-.1-.02-.21-.01-.3-.02-.09-.23-.03-.52-.34-.55-.11,.6,0,.84,.32,.85l.53,1.2c.28,.06,.39,.28,.27,.66,.17-.19,.29-.37,.41-.56,.34-.51,.32-.67-.1-1.1-.16-.17-.25-.13-.34,.06q.46,.5,.43,.83c-.36,.05-.74-.3-.82-.79-.04-.22-.11-.49,.26-.54,.08,0,.16-.18,.2-.29,.1-.33,0-.59-.34-.71,.09-.11,.15-.18,.21-.25,.18-.2,.39-.39,.15-.71-.04-.05,.05-.28,.12-.31,.37-.17,.42-.19,.18-.69-.04-.09-.11-.17-.16-.25,.26-.17,.54-.32,.43-.69-.04-.15-.19-.26-.34-.44l-.26-.59Zm13.79-6l-.5,.46,.15,.47c.03-.1,.02-.29,.1-.34,.27-.18,.56-.34,.85-.45,.18-.06,.38-.1,.36-.32-.02-.18-.15-.34-.23-.51h-.09c-.13,.42-.33,.34-.57,.15-.2-.16-.42-.3-.65-.41-.32-.17-.51-.06-.61,.29-.08,.3-.19,.59-.27,.89-.03,.1-.05,.26,0,.31,.32,.35,.36,.75,.23,1.19-.03,.1,.03,.23,.05,.35,.09-.02,.19-.04,.28-.06,.04-.01,.07-.04,.11-.05,.21-.05,.41-.11,.65-.17-.26-.28-.56-.46-.62-.7-.06-.26,.07-.6,.2-.86,.14-.3,.35-.35,.55-.24Zm-1.19,11.37c-.1-.05-.17-.13-.23-.12-.2,.03-.55,.65-.45,.84,.16,.32,.38,.61,.58,.91h.11c-.26-.42,0-.55,.28-.68-.01-.07-.05-.15-.03-.21,.13-.32,.28-.63,.42-.94,0-.02,.03-.03,.05-.04,.43-.21,.48-.35,.29-.91-.09,.17-.2,.28-.22,.41-.04,.26-.22,.29-.39,.24-.13-.05-.3-.18-.32-.29-.02-.12,.1-.3,.21-.4,.1-.1,.26-.11,.38-.18,.3-.17,.35-.49,.11-.79-.09,.1-.17,.2-.25,.31-.16,.21-.3,.16-.42-.03-.15-.24,.02-.35,.18-.46,.35-.25,.37-.4,.12-.67-.03,.01-.05,.04-.09,.04-.12,.03-.33,.1-.34,.08-.07-.19-.11-.39-.15-.59,0-.02,.13-.11,.15-.09,.19,.16,.29,0,.34-.13,.04-.11-.02-.26-.04-.42-.12,.05-.18,.09-.24,.09-.13,0-.26-.01-.4-.02,.05-.12,.07-.28,.15-.34,.33-.25,.28-.58,.22-.92l-.09-.05-.32,.68c-.11,.11-.22,.23-.27,.37-.14,.39,.29,.42,.4,.68-.03,.06-.07,.13-.11,.2-.24,.46-.23,.45,.18,.74,.07,.05,.12,.25,.08,.3-.23,.28-.06,.45,.11,.64,.29,.32,.28,.34-.11,.51-.05,.31-.05,.7,.22,.8,.43,.15,.27,.41,.21,.65-.11,.47-.47,.74-.85,.67-.05-.4,.29-.56,.51-.87Zm-13.9-11.41c.27-.13,.46-.02,.57,.21,.12,.24,.29,.55,.23,.77-.08,.31-.35,.56-.57,.87l.89,.31c.23-.08,.12-.26,.11-.44,0-.33-.08-.75,.08-.96,.19-.25,.17-.4,.1-.63-.08-.24-.16-.48-.22-.72-.1-.36-.28-.47-.61-.32-.15,.07-.29,.16-.43,.25-.19,.12-.38,.24-.58,.37l-.21-.31c-.33,.22-.42,.58-.17,.71,.22,.12,.44,.25,.67,.33,.31,.1,.56,.22,.5,.63l.16-.56-.53-.49Zm-1.31,29.27c.42,.07,.65-.19,.61-.58-.04-.46-.05-.92-.08-1.38h.08l.06,.23c.04-.18,.08-.31,.1-.45,.06-.39,.21-.79-.19-1.11-.05-.04-.04-.19-.03-.28,.05-.52,.13-1.03,.17-1.55,.01-.15-.06-.3-.09-.46l-.11,.02v.95h-.07l-.12-.85-.34,.03c.22,1.83,.61,3.62,0,5.44Zm17.04-5.58c-.34,.17-.36,1.5-.02,1.99l.15-.38c.04,.25,.02,.48-.02,.7-.06,.37-.17,.74-.2,1.11-.03,.53-.02,1.07,0,1.6,0,.36,.27,.58,.54,.49-.09-.66-.26-1.33-.25-1.98,.02-1.05,.16-2.09,.28-3.13,.03-.28-.03-.35-.3-.33l-.14,.83-.1-.02,.06-.89Zm-5.24,4.8l-.57,1-.31,.03v.1c.2-.01,.4-.03,.59-.04,.19,0,.39,0,.63,0,.18-.28,.36-.63,.59-.92,.23-.29,.11-.54,.03-.81-.06-.19-.12-.38-.16-.58-.04-.19-.07-.39-.1-.59h-.11c.12,.52-.4,.94-.11,1.51l-.37,.23,.36,.06-.18,.26-.28-.26Zm-6.59-24.95c.4,.42,.77,.86,.85,1.53,.24-.28,.08-.72,.43-.77,.09,.24,.17,.46,.26,.68,.06,.13,.15,.25,.23,.37,.05,.07,.11,.16,.18,.17,.08,.02,.24-.01,.25-.06,.03-.13,.05-.3,0-.41-.15-.26-.44-.45-.33-.84,.01-.03-.06-.1-.12-.19l-.03,.37h-.09c-.03-.15-.04-.3-.1-.43-.04-.08-.22-.17-.25-.14-.24,.21-.35,.05-.46-.15-.05-.09-.12-.18-.21-.3-.14,.52-.39,.14-.63,.17Zm4.89-1.23c-.29,.6-.68,.84-1.28,.9-.69,.06-.9-.47-1.25-.87-.29,.76,.4,1.45,1,1.32,.23-.05,.48-.02,.72,0,.65,.04,1.08-.57,.81-1.34Zm2.41,1.24c-.26,.12-.48,.16-.63-.13l-.41,.55-.06-.14c-.14,.02-.32,0-.39,.08-.1,.12-.12,.32-.17,.48l-.06-.02v-.28c-.1,.06-.18,.17-.15,.22,.12,.27-.06,.4-.19,.57-.06,.08-.16,.16-.16,.25-.01,.12,.05,.25,.08,.37,.12-.03,.31-.03,.34-.1,.15-.38,.64-.6,.46-1.13,.48,.05,.25,.55,.52,.75,.23-.53,.36-1.11,.85-1.48Zm3.16,1.48l-.02,.12c-.34-.25-.59-.05-.86,.08-.31,.16-.54,.58-.46,.94,.04,.18,.13,.31,.41,.3-.27-.29-.2-.47,.04-.64,.19-.14,.34-.33,.56-.55,.35,.07-.01,.47,.13,.73,.04-.1,.11-.18,.1-.24-.06-.3,.13-.44,.32-.58,.09-.07,.21-.12,.25-.21,.09-.21,.43-.38,.16-.7l-.77,.52,.15,.24Zm-4.88-1.93l.04,.08s-.1,.1-.13,.09c-.26-.12-.36,0-.4,.25,0,.03-.11,.04-.09,.03-.13,.21-.25,.36-.33,.53-.04,.08,0,.2,.02,.3,.07,0,.17,0,.2-.03,.16-.24,.31-.49,.45-.72l.17,.23,.64-.78-.34-.08c.1-.08,.2-.15,.29-.25,.08-.09,.2-.2,.21-.31,.03-.29,0-.59,0-.94-.08,.14-.2,.26-.19,.36,.04,.41-.21,.6-.47,.81-.13,.1-.22,.26-.33,.39l.07,.06,.17-.04Zm-3.67,.03l.08-.08c-.13-.15-.25-.33-.41-.45-.24-.19-.43-.38-.4-.74,0-.1-.1-.22-.15-.33-.02,.29,.03,.54,0,.78-.03,.27,.04,.41,.3,.47,.08,.02,.15,.13,.22,.2l-.06,.08h-.28l.56,.74,.21-.27c.13,.25,.22,.49,.37,.69,.06,.08,.21,.09,.32,.14-.01-.12,.02-.29-.05-.37-.12-.16-.24-.29-.18-.51,0-.01-.02-.03-.04-.05l-.07,.16c.04-.49-.43-.29-.65-.53l.25,.05Zm-5.05,1.94l.16-.28-.86-.6c-.08,.78,.58,.91,.82,1.3l.32-.24c.09,.18,.13,.41,.23,.45,.4,.13,.49,.39,.35,.8,.36-.18,.47-.66,.23-.92-.14-.15-.38-.21-.5-.37-.18-.24-.35-.23-.57-.12-.04,.02-.1,0-.18-.01Zm11.26-4.32l.58-.5,.06,.07c-.28,.24-.45,.52-.36,.99,.23-.42,.49-.62,.89-.4q.33-.48,.07-.98c-.31,.05-.62,.09-.93,.16-.31,.07-.45,.36-.32,.66Zm-9.21,.47l.1-.05-.35-.92,.59,.51c.1-.33-.04-.54-.27-.61-.34-.11-.7-.15-1.04-.22-.2,.37-.19,.7,.11,.98,.37-.16,.51-.11,.86,.31Zm2.41,28.21c-.02-.05-.02-.1-.04-.13-.04-.07-.08-.14-.13-.2-.56-.52-.79-1.22-.98-1.96-.12-.47-.2-.5-.7-.33,.07,.12,.14,.23,.21,.35,.03,.05,.09,.12,.07,.15-.15,.3,.12,.51,.25,.57,.56,.23,.64,.8,.84,1.26,.11,.26,.2,.38,.48,.3Zm9.98-5.7c-.64,.45-.72,.6-.61,1.25,.06,.33,.29,.45,.61,.57v-1.82Zm-1.57-7.3c.19-.89,.48-1.77,.31-2.73-.48,.28-.59,1.31-.31,2.73Zm-12.2-.06c.03-.59,.08-1.18,.08-1.77,0-.33-.04-.68-.41-.97-.16,1,.13,1.86,.33,2.73Zm9.7,2.85h-.11c-.04,.31-.19,.65-.1,.91,.16,.45,.46,.85,.7,1.26-.04-.77-.11-1.52-.49-2.18Zm-2.13-11.56c.17-.41-.29-1.39-.75-1.46-.18-.03-.31,.05-.26,.27,.06,.3,.19,.54,.47,.7,.2,.11,.35,.32,.54,.49Zm-5.07,11.64c-.36,.53-.63,1.59-.52,2.11,.08-.16,.15-.3,.23-.43,.08-.15,.17-.3,.27-.43,.31-.44,.32-.74,.02-1.24Zm.74-16.58c-.12-.25-.16-.52-.31-.61-.15-.09-.44-.06-.59,.04-.11,.08-.21,.36,.06,.52,.08,.05,.11,.16,.18,.23,.1,.1,.29,.28,.32,.25,.13-.11,.23-.28,.34-.43Zm6.75-.24c0-.33-.1-.46-.35-.48-.31-.02-.71,.54-.56,.83,.07,.13,.21,.24,.33,.31,.03,.01,.15-.16,.23-.25,.07-.08,.15-.16,.22-.24,.06-.07,.1-.15,.12-.17Zm-8.83,.02c.21-.42-.05-.78-.07-1.1l-.84-.36c-.08,.36-.06,.64,.27,.78,.3,.13,.58,.28,.64,.68Zm3.48,5.2c.21-.2,.42-.37,.59-.57,.17-.19,.31-.42,.44-.64,.03-.05,0-.21-.05-.24-.07-.04-.18-.02-.26,.01-.48,.22-.61,.71-.75,1.18-.02,.08,.01,.18,.02,.26Zm6.38-5.27c.23-.2,.44-.41,.68-.57,.34-.23,.4-.33,.27-.79l-.81,.32c0,.33-.29,.68-.14,1.03Zm-8.15-1.83c-.59,.58-.51-.15-.73-.43-.07,.54,.42,1.01-.01,1.51,.24,0,.5,.03,.61-.1,.22-.25,.36-.58,.13-.98Zm-.24-.43c.13-.28,.26-.54,.35-.81,.02-.06-.07-.18-.14-.24-.13-.11-.27-.19-.42-.29-.38,.46-.32,1,.21,1.34Zm7.55,1.46c-.4-.38-.2-.74-.1-1.1,.03-.09,0-.2,0-.3-.25,.67-.29,.69-.7,.4-.18,.31-.13,.58,.11,.93,.19,.27,.38,.1,.69,.06Zm-.36-2.84l-.54,.51,.33,.87c.53-.36,.59-.94,.21-1.37Zm1.99,30.47c.38-.05,.73-.5,.85-1.14l-.59-.16-.26,1.3Zm-4.66-18.91c.37-.21,.4-.37,.14-.7-.2-.26-.44-.49-.36-.87-.29-.02-.52,.2-.59,.53-.01,.06,.01,.12,.03,.23l.22-.2c.28,.29,.63,.5,.56,1.01Zm-5.77-5.32l-.06,.04,.32,.74c.58-.85,.62-1.64-.15-1.94-.18,.5,.57,.87,.17,1.41l-.28-.25Zm9.22,.78l.31-.75-.06-.03-.26,.23c-.29-.24-.11-.46-.02-.69,.09-.23,.28-.44,.17-.73-.72,.41-.78,1.21-.15,1.96Zm-5.51,4.53c-.07-.5,.28-.72,.56-.98l.24,.16c.02-.52-.16-.75-.54-.74q-.08,.42-.43,.92c-.22,.33-.2,.44,.17,.64Zm.63-2.97c-.17,.11-.3,.16-.38,.26-.22,.24-.41,.51-.61,.76-.19,.23-.09,.56,.23,.64-.08-.4,.16-.61,.42-.83,.22-.18,.4-.4,.35-.84Zm1.58,1.76c.38-.34,.4-.55,.17-.81-.18-.21-.34-.45-.53-.66-.09-.1-.22-.16-.36-.25-.11,.42,.08,.62,.3,.81,.25,.22,.56,.4,.42,.92Zm-4.35,2.8l.11,.03c.07-.27,.45-.43,.28-.76-.18-.33-.28-.62-.1-.97,.03-.05,0-.12,0-.21-.54,.4-.55,.48-.28,1.04,.07,.15,.03,.37,.02,.56,0,.1-.03,.21-.04,.31Zm6.06-1.88c0,.07-.02,.14,0,.18,.21,.36,.11,.67-.11,.98-.04,.05-.03,.18,0,.25,.09,.18,.21,.34,.31,.51,.07-.11,.09-.21,.06-.29-.08-.28-.2-.55,.13-.75,.03-.02,.04-.1,.05-.15,.05-.35-.04-.62-.44-.72Zm-13.41-6.84c.14-.23,.23-.5,.4-.6,.27-.15,.29-.35,.31-.68l-.69,.22c-.03,.16,0,.36-.09,.45-.24,.26-.15,.44,.07,.62Zm4.36,.03l.22,.66c.25,.1,.44,.13,.58,.23,.13,.1,.22,.26,.39,.47l.12-.51-1.32-.85Zm12.33,0l-1.32,.86,.16,.48c.19-.4,.45-.58,.95-.61l.21-.72Zm4.31,0h.14c.03-.16,.1-.34,.07-.49-.04-.21-.15-.4-.23-.62l-.68-.22c.09,.26,.1,.51,.19,.54,.36,.14,.41,.48,.5,.79Zm-8.19,6.99c.13-.04,.36-.15,.26-.38-.16-.38-.41-.73-.62-1.09l-.1,.05c-.04,.26-.09,.5,.1,.75,.14,.18,.22,.41,.35,.68Zm2.69-6.87c.32-.14,.57-.23,.81-.35,.21-.1,.22-.29,.15-.49-.09-.22-.24-.19-.37-.07-.21,.19-.41,.39-.58,.61-.05,.06,0,.21,0,.31Zm-9.95-.01c0-.08,.05-.22,0-.28-.17-.22-.36-.43-.56-.61-.11-.1-.27-.19-.38,.04-.11,.22-.08,.41,.14,.52,.24,.12,.49,.2,.8,.33Zm6.53,2.41c-.14,.3-.1,.49,.07,.69,.1,.11,.14,.28,.2,.43,.07,.15,.13,.3,.2,.47,.3-.2,.31-.44,.16-.67-.19-.31-.41-.59-.64-.92Zm-3.79,4.49c.06-.21,.07-.43,.17-.53,.21-.22,.33-.44,.27-.75-.01-.06-.03-.12-.06-.16-.02-.02-.11,.02-.13,.05-.17,.29-.34,.59-.5,.89-.15,.3,.07,.39,.25,.49Zm-6.78,14.7c0,.58,0,1.3,0,2.03,0,.72,.06,1.45-.31,2.16,.54-.41,.65-2.41,.31-4.19Zm18.03-.45c-.03,.11-.06,.22-.09,.33-.26,1.16-.23,2.34-.11,3.52,.02,.22,.15,.42,.22,.63-.27-1.5-.23-2.97-.03-4.48ZM49.37,6.3c.2,.41,.91,.51,1.14,.16,.03-.04-.03-.22-.08-.25-.36-.17-.72-.1-1.06,.09Zm-.89,3.61c-.22,.28-.42,.53-.61,.79-.23,.31-.21,.44,.11,.71,.12-.27,.18-.59,.36-.79,.21-.23,.23-.43,.14-.7Zm-5.75,15.63c-.53-.15-.65,0-.96,1.03,.31,.18,.46,.16,.45-.09-.02-.42,.14-.71,.51-.94ZM53.24,2.73c0-.26-.03-.43,0-.59,.05-.22,.15-.42,.2-.63,.02-.08,0-.21-.05-.27-.03-.04-.16-.02-.23,.02-.06,.03-.12,.15-.1,.2,.15,.4,.07,.64-.47,.62l.64,.66Zm2.95,24.4q.06,.52,1.11,.35l-.04-.38-.84,.16-.24-.13ZM43.75,7.86l-.12,.09c.06,.22,.12,.45,.19,.66,.04,.12,.09,.27,.18,.33,.14,.08,.31,.11,.48,.13,.06,0,.14-.05,.21-.07-.03-.07-.06-.21-.1-.21-.41-.03-.57-.31-.68-.67-.03-.09-.1-.17-.15-.26Zm-1.53,7.31l.05-.67-.71-.66-.08,.05c.03,.11,.03,.24,.09,.33,.08,.12,.22,.19,.32,.3,.2,.23,.13,.4-.15,.47-.01,0-.02,.03-.06,.08,.04,.07,.1,.14,.09,.14l.44-.03ZM47.01,1.26l-.42-.02c.02,.13,.03,.26,.06,.38,.02,.09,.07,.17,.08,.25,.02,.25,.03,.51,.05,.89l.6-.71c-.55-.04-.62-.2-.37-.8Zm1.06,16.27l.67-1.19-.08-.07-.63,.33c-.03,.18-.04,.33-.09,.45-.13,.27-.03,.4,.13,.47Zm-5.97-1.88c.46,.22,.59,.57,.34,.87,.29,.26,.35,.17,.51-.65-.15-.1-.29-.24-.44-.26-.13-.02-.3-.38-.42,.03Zm16.18-.51l-.03-.11c-.09-.07-.25-.15-.24-.21,.02-.14,.08-.31,.18-.41,.17-.15,.35-.26,.25-.59l-.72,.67,.09,.72c.07-.02,.17-.04,.26-.06,.07-.01,.15,0,.22-.01Zm-.08,11.47c-.18-.36-.3-.67-.47-.95-.16-.26-.3-.27-.54-.09,.32,.15,.54,.37,.51,.77,0,.1,.03,.29,.08,.3,.12,.03,.26-.01,.43-.03Zm-1.18-10.73c.02,.15,.01,.31,.07,.44,.05,.12,.16,.22,.25,.31,.02,.02,.13-.02,.16-.07,.02-.03,0-.13-.03-.16-.04-.05-.12-.06-.18-.08l.12-.05c-.06-.38,.41-.44,.44-.87l-.83,.48Zm-5.03,.77l-.65-.4-.04,.07,.62,1.23c.53-.19-.13-.63,.07-.9Zm5.43-9.99c-.2-.07-.34-.13-.48-.16-.09-.02-.21-.03-.28,.01-.27,.18-.22,.82,.07,.97-.1-.5-.08-.53,.45-.6,.18-.02,.3-.07,.24-.22Zm-2.1,2.29v.09c.15,0,.32,.04,.47,0,.21-.04,.39-.13,.38-.42,0-.13,.07-.26,.11-.39,.03-.11,.06-.22,.09-.33l-.11-.05c-.12,.22-.21,.47-.37,.65-.16,.18-.38,.3-.58,.44Zm3.9,23.2h.16v-3.37c-.32,1.11-.19,2.24-.16,3.37Zm-18.67-3.15v3.36c.23-1.12,.23-2.24,0-3.36Zm9.69-12.37c-.03,.35,.18,.51,.41,.68,.14,.11,.26,.24,.39,.37,.23-.3-.12-.82-.8-1.05Zm-2.45-13.06c.28,.04,.51,.09,.74,.1,.08,0,.16-.09,.25-.13-.04-.08-.07-.19-.13-.25-.31-.28-.53-.23-.86,.28Zm4.41,.03c-.27-.56-.66-.6-.93-.21-.09,.13-.08,.27,.09,.27,.26,0,.53-.03,.85-.06Zm-1.13,12.11c.16-.22,.19-.36,0-.55-.18-.17-.3-.41-.44-.63-.04-.06-.04-.15-.05-.23-.4,.81,.31,.95,.5,1.41Zm1.19-2.97c.35-.31,.35-.68-.03-.93-.07-.05-.17-.03-.26-.05,0,.1-.05,.22-.01,.31,.09,.23,.21,.45,.31,.67Zm-4.52,.05q.39-.85,.2-1.06c-.55,.33-.58,.47-.2,1.06Zm8.7-4.61l.23,.3,.84-1.11c-.62-.06-.58,.66-1.06,.8Zm-7.29,.65c-.21,.27-.37,.47-.15,.65,.15,.13,.29,.47,.63,.16l-.48-.81Zm.02,7.81c-.02-.55,.45-.71,.71-1.03-.15-.25-.3-.17-.45-.05-.29,.23-.44,.75-.26,1.08Zm-.22,1.01c.18-.16,.34-.33,.53-.45,.22-.13,.29-.31,.26-.56-.74,.33-.98,.69-.79,1.01Zm-1.74-6.5c-.52,.24-.77,.74-.56,1,.15-.14,.3-.29,.46-.43,.17-.16,.33-.32,.11-.57Zm3.14-1.49c.36,.23,.52-.05,.66-.19,.18-.19,.01-.39-.15-.65l-.51,.84Zm4.78,2.94c.08-.07,.2-.16,.27-.27,.03-.04,0-.19-.06-.23-.33-.24-.24-.52-.09-.81,.04-.08,.04-.19,.05-.29l-.15-.05c-.08,.19-.22,.37-.21,.56,.01,.35,.12,.69,.19,1.09Zm-6.29,2.99c.19-.15,.35-.29,.53-.4,.24-.15,.26-.38,.24-.63,0-.06-.06-.11-.09-.16-.05,.05-.13,.1-.13,.15-.02,.31-.18,.5-.42,.66-.18,.11-.24,.26-.12,.38Zm2.05,.97c.12-.27-.04-.81-.36-1.03-.15-.1-.29-.15-.39,.02l.74,1.01Zm2.41-4.37c.25-.34,0-.82-.56-1.03-.19,.59,.55,.6,.56,1.03Zm-10-4.72c.23-.29,.24-.74,.04-.95-.04-.04-.12-.07-.18-.06-.17,.03-.3,.29-.52,.11-.02,.04-.06,.08-.06,.12,0,.03,.03,.09,.07,.1,.07,.03,.15,.03,.22,.05,.43,.09,.47,.14,.42,.64Zm10.03,6.2c.04-.16,.12-.28,.09-.35-.08-.2-.19-.4-.31-.58-.04-.06-.15-.08-.23-.12-.02,.1-.08,.23-.04,.3,.13,.24,.29,.46,.49,.75Zm-5.5,3.04c-.03-.37,.02-.64,.43-.6,.03,0,.09-.08,.1-.12,0-.22,0-.43,0-.65l-.13-.03c-.07,.15-.13,.29-.2,.44-.07,.15-.12,.34-.24,.43-.26,.19-.18,.34,.03,.53Zm-5.24-9.41l-.08,.07,.82,1.12,.19-.27c-.39-.24-.47-.8-.94-.92Zm9.24,7.15l-.13,.04c.03,.19,.02,.39,.09,.57,.04,.12,.17,.22,.28,.3,.06,.05,.15,.07,.22,.06,.03,0,.08-.15,.06-.18-.16-.27-.34-.53-.51-.8Zm.32,2.27c.24-.15,.24-.3,.11-.49-.13-.19-.23-.4-.35-.6-.06-.11-.13-.21-.2-.32-.08,.24-.1,.43-.1,.62,0,.06,.06,.18,.09,.17,.45-.06,.44,.27,.45,.62Zm2.92-2.37c-.19,.42,.33,.58,.29,.91l.51-.72c-.2,0-.34,.02-.47,0-.11-.03-.21-.11-.33-.19Zm-7.98-1.8c-.57,.53-.66,.79-.35,1.04,.1-.34,.57-.52,.35-1.04Zm.28-2.64c-.53,.2-.6,.28-.54,.63,.72-.1,.73-.11,.54-.63Zm-2.76,5.32l.07-.17c.03-.06,.04-.15,.08-.19,.21-.2,.22-.22,.09-.59-.12,.46-.47,.16-.73,.29l.48,.65Zm3.71-.27l-.1-.48c-.2,.1-.59,.77-.54,1.05l.64-.57Zm4.85-4.4c0-.4-.03-.44-.62-.69,0,.22-.07,.51,.02,.57,.15,.11,.39,.09,.61,.13Zm-12.95-2.14c.03,.15,.05,.31,.08,.46,.02,.09,0,.24,.06,.27,.06,.04,.2,.01,.26-.04,.12-.09,.22-.22,.32-.33-.22-.22-.6,.02-.73-.36Zm19.17-1.41l-.07,.09c.21,.25,.42,.51,.64,.75,.03,.03,.16,0,.2-.04,.06-.07,.09-.18,.1-.27,0-.03-.11-.07-.18-.1-.09-.04-.19-.07-.28-.12-.14-.09-.28-.2-.41-.31ZM48.04,1.36c-.01-.2-.09-.42-.37-.46-.27-.04-.45,.14-.58,.39l.94,.08Zm4.83-.08c-.13-.24-.28-.45-.58-.37-.22,.06-.35,.23-.32,.43l.9-.07Zm-12.23,5.78s-.06-.01-.09,0c-.26,.12-.4,.46-.75,.41,0,0-.07,.18-.04,.22,.05,.08,.22,.18,.24,.16,.24-.23,.46-.48,.68-.73,0,0-.02-.04-.03-.06Zm19.01,2.21l.1-.84h-.05l-.1,.22-.53,.05-.05,.12,.63,.46Zm-4.19,7.63l-.22-.89c-.31,.09-.29,.31-.2,.58,.08,.24,.21,.36,.42,.31Zm-1.81-6.91c.13-.4-.22-.6-.38-.91-.18,.21-.27,.4-.05,.59,.13,.11,.28,.21,.43,.32Zm-6.92-.89c-.18,.29-.5,.51-.38,.97,.1-.14,.16-.29,.27-.36,.35-.25,.36-.26,.11-.61Zm-1.94,6.89l-.25,.93c.2,.01,.39-.06,.45-.31,.06-.25,.07-.51-.19-.62Zm7.96,.24l.08,.99c.48-.68,.46-.8-.08-.99Zm-.98-15.59c-.18,.08-.41,.51-.35,.68,.01,.05,.06,.12,.1,.13,.05,0,.12-.03,.16-.07,.21-.22,.22-.47,.1-.73Zm-4.54,15.6c-.55,.22-.57,.42-.05,.95l.05-.95Zm-2.26-6.27l.11,1.04c.43-.37,.42-.51-.11-1.04Zm9.93,1.06l.11-1.05c-.52,.53-.53,.66-.11,1.05ZM48.23,.62c-.16,.29-.11,.55,.09,.76,.04,.04,.21,.01,.23-.04,.08-.14-.14-.61-.33-.72Zm5.76,14.49c.24-.45,.1-.75-.44-.9l.44,.9Zm-12.98-5.17l.68-.56c-.13-.07-.23-.17-.31-.17-.45,.03-.2,.43-.36,.73Zm6.16,16.58l-.17-.28c-.05,.07-.09,.16-.15,.22-.05,.05-.13,.08-.2,.11,.06,.29,.26,.32,.43,.23,.11-.06,.15-.24,.22-.37l-.09-.05-.05,.15Zm9.68-8.78l.13-.98c-.49,.38-.52,.62-.13,.98Zm.35,16.15l.66-.07-.14-.75c-.14,.31-.09,.71-.52,.82Zm-14.17-17.1l.11,.96c.4-.51,.36-.75-.11-.96Zm2.96-1.7l.43-.84c-.56,.27-.63,.41-.43,.84Zm13.69,16.06h.21c0-.2,.02-.4,.01-.6,0-.05-.11-.13-.16-.12-.06,0-.15,.1-.15,.15,.01,.19,.05,.38,.08,.57Zm-.78-21.27c0-.16,0-.31-.03-.45-.03-.1-.13-.2-.22-.23-.06-.02-.16,.06-.25,.1,.04,.1,.07,.21,.13,.28,.1,.11,.23,.19,.36,.3Zm-11.55,24.62c-.19-.42-.3-.54-.55-.56-.03,.38,.19,.61,.55,.56Zm-7.29-3.35c.3-.26,.31-.56,.02-.73-.18,.24-.23,.48-.02,.73Zm16.45-5.81l-.02,.04,.55,.66,.28-.04,.05-.11-.86-.56Zm-8.33,9.16l-.57-.67c-.12,.44,.1,.69,.57,.67Zm-2.01-.64l-.09,.09c0,.38,.19,.59,.62,.55l-.53-.64Zm-.81,.63l-.58-.69c-.07,.52,.14,.75,.58,.69Zm6.52,0c.47,.04,.7-.23,.52-.65l-.52,.65Zm1.45,.02c.51-.01,.7-.26,.52-.66l-.52,.66Zm1.34,0c.5,0,.69-.24,.54-.67l-.54,.67Zm-3.05-.64l-.49,.64c.47,0,.63-.2,.49-.64Zm-2.69,.64l-.58-.7c-.09,.47,.09,.69,.58,.7Zm-3.54-19.45c.16-.28,.16-.61,.01-.81-.26,.29-.26,.48-.01,.81Zm9.07-.82l.07,.87c.32-.35,.31-.58-.07-.87Zm-.5,20.27c.52,0,.68-.22,.53-.66l-.53,.66Zm-.82-.69l-.51,.67c.46,.03,.66-.21,.51-.67Zm-.05-6.23c.11-.39-.18-.71-.51-.64l.51,.64Zm-7.68-.02c.35-.08,.41-.37,.52-.62-.29,.09-.58,.17-.52,.62Zm.65-.06l.09,.09,.52-.66c-.48,.05-.61,.19-.6,.56Zm9.83,.18c.1-.46-.09-.68-.54-.67l.54,.67ZM50.93,1.32c.17-.19,.3-.37,.17-.62-.02-.03-.19-.04-.22,0-.16,.19-.16,.4,.05,.62Zm-4.99,9.99c.31-.01,.45-.21,.42-.57-.3,.05-.4,.26-.42,.57Zm8.03,15.6c.19,.28,.27,.57,.58,.65,.02-.41-.07-.53-.58-.65Zm.68,.04l.58,.71c.06-.5-.1-.68-.58-.71Zm-5.27-18.93c-.14,.14-.22,.29-.05,.43,.09,.07,.22,.08,.33,.12-.05-.15-.09-.3-.15-.45-.02-.04-.08-.06-.13-.1Zm3.98,18.99l.52,.63c.07-.5-.05-.64-.52-.63Zm2.56,6.72l-.52,.68c.47,.01,.61-.15,.52-.68Zm-2.96-6.87l.3-.27-.31-.38c-.07,.13-.16,.25-.2,.39-.01,.05,.11,.14,.21,.25Zm-8.91,.76c.33-.07,.39-.38,.56-.62-.42,.04-.59,.24-.56,.62Zm3.19-.79c-.13,.25-.54,.29-.43,.7,.33-.08,.56-.44,.43-.7Zm1.83-25.51c.07-.12,.17-.21,.16-.29,0-.12-.07-.25-.13-.36-.02-.03-.18-.01-.18,.01-.03,.1-.05,.21-.02,.31,.03,.1,.1,.19,.18,.33Zm4.68,11.93l-.05,.1,.42,.48,.1-.03c-.01-.14,.02-.34-.06-.42-.09-.1-.27-.09-.41-.13Zm-5.16,13.7c.43-.13,.28-.38,.31-.67-.15,.08-.3,.11-.31,.18-.04,.14,0,.3,0,.49Zm-3.25-.02c-.52,.08-.65,.24-.54,.73l.54-.73Zm-2.82-.94l.37,.03,.25-.49c-.34-.08-.45,.2-.63,.45Zm11.03-15.29c.1,.33,.14,.6,.49,.63,.01-.36-.12-.54-.49-.63Zm-7.24,2.61c-.54-.07-.64,.06-.44,.56l.44-.56Zm7.09,7.93h-.15l.05,1.02h.11v-1.02Zm.68,10.28c.5-.11,.21-.47,.27-.78l-.41,.35,.33,.06-.19,.37Zm-2.96-4.6h.21c.02-.17,.06-.33,.04-.49,0-.05-.17-.08-.35-.15l.1,.63Zm-.62-8.69l-.24-.68c-.2,.33-.12,.61,.24,.68Zm-1.04,0l.1,.05c.27-.12,.36-.39,.18-.73l-.28,.68Zm1.1-10.27l-.25,.58c.07,0,.16,.02,.22,0,.22-.1,.3-.26,.03-.58Zm-5.6,7.89l.11-.03,.09-.69c-.16,.1-.3,.15-.3,.2,0,.18,.06,.35,.1,.52Zm.86-3.17c.47-.35,.55-.62,.19-.71l-.19,.71Zm8.39,0l-.27-.77c-.26,.32-.2,.5,.27,.77Zm-7.66,9.7h.11v-.96h-.11v.96Zm1.1-17.29c-.4,.23-.34,.42,.15,.62l-.15-.62Zm5.95,10.02l-.18,.08,.27,.66,.16-.07-.24-.67Zm1.19,.04l.15,.69h.12c.03-.17,.07-.35,.07-.51,0-.04-.16-.08-.34-.17ZM49.7,1.17h.11l-.04-.71c-.26,.16-.28,.47-.07,.71Zm-3.13,14.05l-.13-.05c-.13,.2-.33,.37-.23,.66l.11,.05,.25-.65ZM50.44,.53l-.07-.07c-.05,.05-.15,.12-.14,.15,.05,.18-.2,.43,.17,.61l.05-.69Zm3.16,15.57c-.23,.33-.18,.51,.23,.71l-.23-.71Zm-1.16-10.94l-.11-.02-.09,.51c.09-.03,.19-.03,.26-.09,.23-.18,.03-.28-.06-.41Zm-6.85,1.14h.08l-.11-.65-.29,.25,.32,.41Zm4.45,1.72h-.16c0,.15-.02,.3,0,.43,.01,.06,.12,.09,.19,.13l.07-.06-.1-.51Zm4.67-2.15l-.25-.24-.14,.66-.02-.07,.41-.34Zm-8.5,10.91c.36-.09,.43-.36,.19-.66l-.19,.66Zm-.29-.3c-.14,.35-.05,.56,.22,.6l-.22-.6Zm-.2-1.05h-.08c0,.18,0,.36,0,.54,0,.03,.09,.07,.14,.08,.02,0,.07-.07,.07-.1-.04-.18-.09-.35-.14-.53Z"/><path d="M0,47.18c.24,.01,.48,.04,.72,.03,.21-.01,.31,.07,.37,.28,.39,1.27,.8,2.54,1.2,3.81,.03,.09,.06,.19,.12,.34,.35-1.07,.68-2.09,1.02-3.1,.11-.34,.24-.67,.33-1.02,.06-.24,.18-.34,.42-.31,.18,.02,.37,0,.57,0v5.24h-.63v-4.06l-.07-.02c-.16,.48-.32,.96-.48,1.44-.26,.8-.54,1.59-.78,2.39-.08,.28-.24,.26-.44,.28-.22,.01-.3-.08-.36-.29-.39-1.23-.79-2.45-1.18-3.68-.02-.07-.05-.14-.14-.21v4.16H0v-5.29Z"/><path d="M20.85,61.38c-.39-.18-.81-.3-1.15-.55-.85-.65-1.13-1.99-.74-3.23,.49-1.54,2.43-2.2,3.7-1.26,.38,.28,.57,.69,.67,1.17l-.57,.16c-.53-1.12-1.44-1.45-2.41-.89-.48,.28-.73,.75-.8,1.29-.05,.39-.07,.82,0,1.21,.23,1.21,1.41,1.81,2.57,1.28,.75-.34,.65-.18,.6-1.32h-1.42v-.62h2.1c0,.63,0,1.26,0,1.89,0,.07-.09,.15-.16,.19-.44,.23-.89,.46-1.34,.68h-1.06Z"/><path d="M100.44,48.78c-.33,.9-.66,1.8-.99,2.7-.22,.6-.41,1.22-.68,1.8-.13,.28-.39,.59-.65,.67-.56,.18-.8,.07-.71-.53,.25-.06,.53-.07,.71-.2,.16-.12,.22-.38,.31-.59,.03-.08,.04-.19,.01-.27-.42-1.18-.84-2.35-1.29-3.6l-.25,.6c-.09-.03-.17-.06-.25-.08-.35-.09-.66,.06-.76,.42-.08,.28-.12,.59-.12,.89-.02,.61,0,1.22,0,1.86h-.59v-3.78h.5l.04,.45c.08-.1,.14-.18,.2-.25,.19-.25,.45-.36,.73-.27,.25,.08,.48,.14,.75,.06,.29-.08,.44,.06,.54,.37,.26,.85,.56,1.7,.86,2.6,.23-.67,.44-1.28,.65-1.9,.05-.14,.09-.28,.14-.43q.22-.63,.85-.66v.14Z"/><path d="M73.72,61.38c-1.16-.59-1.58-1.86-1.02-3.11,.39-.88,1.39-1.15,2.13-.58,.04,.03,.08,.06,.18,.13v-1.79h.61v5.24h-.53l-.05-.32-.65,.42h-.66Zm1.38-1.97c-.07-.31-.11-.63-.22-.92-.13-.34-.42-.53-.78-.54-.33,0-.61,.14-.76,.46-.3,.65-.32,1.32,.02,1.96,.17,.32,.46,.5,.82,.47,.34-.03,.61-.22,.73-.56,.1-.26,.13-.55,.2-.86Z"/><path d="M78.8,61.38c-.48-.18-.87-.44-.87-1.06,0-.61,.35-1.03,.98-1.16,.38-.07,.76-.12,1.14-.2,.15-.03,.39,.03,.39-.25,0-.28-.07-.53-.34-.66-.59-.3-1.19-.06-1.49,.61l-.54-.08c.02-.52,.28-.88,.76-1.05,.49-.17,.99-.19,1.49-.05,.49,.14,.71,.45,.72,.98,.01,.6,.01,1.21,.03,1.81,.01,.33,.06,.66,.1,1-.5,.12-.56,.09-.71-.34l-.94,.45h-.73Zm1.63-1.95c-.5,.1-.94,.18-1.38,.28-.27,.06-.46,.23-.46,.55,0,.28,.14,.47,.38,.54,.41,.12,.81,.06,1.14-.26,.31-.3,.34-.69,.32-1.11Z"/><path d="M48.64,61.38c-1.2-.57-1.62-1.65-1.14-2.93,.25-.66,.81-1.06,1.51-1.07,.67,0,1.26,.38,1.49,1.04,.12,.34,.15,.71,.24,1.13h-2.72c0,.8,.45,1.31,1.11,1.29,.32-.01,.6-.15,.73-.45,.13-.31,.32-.36,.59-.26,.05,.02,.11,.02,.2,.03-.1,.51-.37,.85-.79,1.08-.11,.06-.23,.11-.35,.16h-.86Zm1.36-2.38c-.1-.76-.5-1.13-1.11-1.05-.51,.07-.87,.53-.81,1.05h1.92Z"/><path d="M32.8,61.38c-.53-.18-.99-.45-1.18-1.05-.23-.72-.23-1.44,.12-2.12,.31-.62,1.06-.95,1.79-.79,.69,.15,1.18,.74,1.26,1.55,.02,.19,.02,.38,.03,.6h-2.65c-.03,.6,.26,1.07,.75,1.22,.39,.12,.93,.02,1.17-.57,.03-.07,.16-.14,.24-.14,.15,0,.3,.05,.45,.07-.15,.68-.59,1.03-1.18,1.23h-.79Zm1.31-2.38c-.03-.67-.41-1.07-.97-1.06-.57,.01-.97,.45-.96,1.06h1.93Z"/><path d="M25.41,61.38c-1.16-.51-1.59-1.46-1.24-2.77,.2-.76,.91-1.28,1.68-1.23,.89,.06,1.51,.64,1.6,1.54,.03,.35,.03,.72-.02,1.07-.1,.75-.6,1.14-1.22,1.39h-.79Zm-.7-2.04c.04,.25,.05,.48,.1,.7,.12,.48,.49,.78,.93,.79,.44,.01,.87-.25,.96-.73,.08-.45,.08-.94,0-1.4-.08-.49-.5-.76-.94-.76-.43,0-.8,.27-.94,.73-.07,.22-.08,.45-.12,.67Z"/><path d="M60.25,61.38c-1.14-.5-1.55-1.36-1.26-2.66,.19-.85,.87-1.39,1.68-1.34,.9,.05,1.55,.67,1.62,1.59,.02,.31,.02,.63-.01,.94-.09,.81-.6,1.25-1.3,1.47h-.73Zm-.7-1.97c.04,.21,.05,.43,.11,.64,.14,.48,.5,.77,.94,.78,.46,0,.87-.26,.96-.77,.08-.44,.08-.92,0-1.36-.09-.5-.52-.78-.97-.76-.45,.01-.81,.31-.94,.82-.05,.21-.07,.43-.1,.66Z"/><path d="M56.09,61.38c-.64-.25-.7-.34-.71-1.16,0-.73,0-1.46,0-2.21l-.42-.05v-.45l.42-.05c0-.53-.13-1.14,.64-1.24v1.25l.59,.03v.47l-.58,.04c0,.82-.02,1.63,0,2.44,.01,.38,.33,.28,.59,.29l.08,.53-.28,.12h-.33Z"/><path d="M46.59,41.44c-.01,.13,0,.23-.03,.32-.04,.17-.17,.26-.29,.12-.23-.25-.45-.53-.63-.83-.04-.06,.12-.25,.19-.38l.08,.04v-1.26s-.05-.04-.07-.04q-.7-.05-.7,.68c0,.86,0,1.72,0,2.57,0,.02-.02,.04-.03,.07-.42-.2-.71-.47-.55-1.04-.07,.02-.11,.02-.13,.04-.91,.57-1.45-.03-1.72-.71-.12-.3-.22-.49-.56-.37-.25,.09-.43,.37-.34,.7,.11,.39,.29,.76,.46,1.2l-.22,.22c-.26-.54-.55-1.03-.74-1.55-.25-.68,.02-1.14,.7-1.24,.32-.05,.67-.07,.98,0,.19,.04,.3,.05,.31-.15,0-.18,.01-.42-.26-.43-.24,0-.48,0-.73,0-.49,0-.99,0-1.52,0v3.33l-.09,.05c-.19-.19-.46-.35-.54-.58-.09-.25,0-.56,.02-.86-.62,.14-.7,.12-1.14-.24l-.44,.49,.83,1.11-.26,.31c-.42-.69-.83-1.34-1.23-2-.1-.17-.23-.41-.01-.56,.11-.08,.32,0,.53,.01,0-.25,.01-.57,0-.89,0-.06-.11-.15-.18-.17-.08-.03-.17,0-.26,0q-.57,0-.77-.64h10.19c-.3-.79-.6-1.03-1.18-.92-.05-.1-.13-.21-.16-.32-.04-.13-.09-.31-.05-.41,.03-.07,.26-.11,.35-.07,.21,.09,.45,.21,.59,.39,.25,.34,.46,.73,.66,1.12,.09,.17,.18,.22,.36,.22,.99,0,1.98,0,2.97,0q.57,0,.8,.62l-.56,.04v3.35c-.46-.24-.79-.46-.65-.95-.36,.07-.72,.22-1.07,.19-.38-.03-.64-.37-.82-.74-.24-.49-.14-.98,.25-1.3,.47-.39,.98-.29,1.62,.34v-.88h-2.36v3.31c-.66-.2-.74-.69-.6-1.3h-.98Zm-2.98-2.02c.07,.21,.12,.38,.17,.56,.16,.52,.14,.54-.35,.75-.13,.06-.32,.24-.31,.35,.02,.25,.26,.32,.45,.25,.3-.12,.59-.29,.87-.46,.05-.03,.1-.13,.1-.2,0-.41,0-.82,0-1.25h-.94Zm-4.53,1.28c.11,.03,.21,.06,.3,.07,.51,.06,.79-.19,.79-.72q0-.65-.62-.65c-.15,0-.3,0-.47,0v1.3Zm8.43-1.25h-.92v1.32h.92v-1.32Zm3.06,1.47v-.15c-.23-.11-.44-.26-.68-.32-.41-.11-.72,.12-.8,.55-.06,.35,.16,.6,.47,.47,.35-.14,.67-.36,1-.55Z"/><path d="M60.23,37.85c-.08-.17-.16-.32-.23-.48-.1-.23-.02-.33,.22-.35,.38-.03,.62,.2,.81,.49,.21,.34,.38,.7,.6,1.04,.06,.1,.22,.22,.31,.2,.48-.09,.67,.18,.79,.63l-.58,.03v3.3c-.5-.16-.65-.36-.65-.82,0-.4,0-.81,0-1.26-.25,0-.49-.03-.72,0-.3,.04-.46,.29-.4,.58,.1,.44,.28,.86,.42,1.29h.1l-.3,.28c-.28-.62-.57-1.17-.77-1.76-.17-.5,.12-.93,.62-1.02,.33-.05,.67-.06,1.03-.08v-.53c-.67,0-1.33,0-1.99,.01-.06,0-.15,.19-.15,.3-.01,.87,0,1.74,0,2.61v.39c-.5-.18-.58-.31-.62-1.02-.41,.21-.82,.44-1.25,.1-.47-.36-.65-.88-.77-1.45,.21-.09,.43-.15,.61-.28,.1-.07,.18-.24,.18-.37,.01-.19-.09-.3-.31-.3-.94-.02-.94-.03-.94,.96v2.4c-.39-.22-.68-.42-.62-.93,.05-.38,0-.78,0-1.19h-.79c.1,.19,.19,.36,.28,.54,.14,.27,.17,.54-.05,.77-.2,.22-.49,.29-.72,.14-.29-.19-.56-.44-.78-.71-.19-.24-.29-.57-.43-.85-.1-.2-.03-.3,.16-.35,.14,.27,.28,.55,.44,.81,.07,.12,.17,.27,.29,.32,.14,.06,.35,.08,.47,0,.08-.05,.09-.32,.05-.45-.08-.21-.24-.38-.36-.58-.04-.07-.09-.18-.06-.24,.02-.05,.14-.09,.21-.09,.42,0,.83,0,1.27,0v-.55c-.78,0-1.55,0-2.31,0q-.58,0-.82-.63h8.93c-.29-.79-.62-1.05-1.19-.92Zm-2.42,1.57c.06,.19,.1,.33,.14,.47,.19,.62,.19,.61-.37,.85-.12,.05-.19,.21-.28,.32,.13,.09,.3,.29,.39,.26,.35-.12,.67-.31,1-.48,.03-.02,.05-.08,.05-.12,0-.43,0-.87,0-1.31h-.93Z"/><path d="M71.56,49.56l.86,1.15,.25-.7,.65,.13c-.12,.32-.2,.62-.34,.89-.11,.22-.08,.35,.08,.51,.18,.19,.33,.41,.51,.63l-.36,.46-.77-.73c-.5,.53-1.1,.78-1.81,.63-.4-.08-.73-.31-.96-.68-.52-.85-.23-1.65,.92-2.41-.31-.43-.68-.86-.48-1.45,.09-.25,.28-.51,.49-.66,.54-.4,1.34-.24,1.68,.29,.41,.63,.19,1.21-.73,1.94Zm-.62,.34c-.46,.31-.89,.6-.8,1.26,.06,.41,.38,.76,.74,.83,.4,.07,.9-.21,1.15-.66l-1.09-1.42Zm.32-.72c.21-.28,.42-.49,.53-.74,.11-.26,.02-.53-.24-.68-.25-.15-.49-.11-.69,.11-.2,.22-.19,.48-.04,.73,.1,.17,.24,.32,.44,.59Z"/><path d="M45.25,52.46h-.61c0-.54,0-1.08,0-1.61,0-.32,0-.65,0-.97-.01-.31-.06-.6-.42-.7-.32-.09-.7,.02-.87,.33-.11,.19-.18,.43-.19,.65-.03,.67-.02,1.34-.03,2.02,0,.09-.01,.18-.02,.29h-.59v-3.79h.54l.04,.4c.4-.41,.86-.62,1.38-.45,.26,.09,.49,.3,.77,.48,.24-.29,.61-.56,1.12-.53,.59,.03,.99,.35,1.01,.97,.04,.97,0,1.94,0,2.93h-.6c0-.51,0-1,0-1.5,0-.35,0-.7,0-1.04,0-.48-.16-.69-.52-.77-.35-.07-.75,.14-.88,.51-.07,.19-.1,.4-.11,.61-.01,.7,0,1.39-.01,2.09,0,.02-.01,.04-.03,.1Z"/><path d="M48.33,48.67h.51l.06,.37c.97-.67,1.59-.64,2.09,.15,.31-.38,.68-.64,1.19-.62,.6,.03,.99,.37,1.01,1,.03,.96,0,1.92,0,2.89h-.6c0-.64,0-1.28,0-1.91,0-.22,0-.44,0-.66-.02-.47-.19-.68-.55-.74-.34-.06-.73,.16-.85,.51-.07,.21-.11,.45-.11,.68-.01,.67,0,1.34,0,2.02,0,.02,0,.04-.02,.09h-.61c0-.39,0-.79,0-1.18,0-.45,0-.9,0-1.36-.01-.49-.17-.7-.52-.77-.35-.06-.78,.18-.88,.57-.07,.26-.09,.55-.1,.82-.01,.63,0,1.27,0,1.92h-.61v-3.79Z"/><path d="M44.45,61.28h-.57c0-.67,0-1.33,0-1.98,0-.21,.02-.42,0-.63-.03-.31-.11-.6-.45-.69-.31-.08-.71,.06-.86,.36-.11,.22-.18,.48-.19,.72-.02,.73,0,1.46,0,2.21h-.63v-3.77h.53l.03,.28c.36-.13,.72-.33,1.1-.38,.42-.06,.79,.15,1.01,.61,.36-.44,.77-.69,1.31-.61,.51,.08,.85,.34,.87,.87,.05,.99,.01,1.98,.01,3h-.59c0-.13,0-.26,0-.39,0-.7,0-1.39,0-2.09,0-.54-.18-.79-.56-.83-.45-.04-.84,.25-.9,.72-.05,.4-.05,.81-.06,1.21-.01,.43,0,.86,0,1.29,0,.02-.01,.04-.03,.1Z"/><path d="M37.82,48.67l-.63,.16c-.2-.47-.42-.89-.94-1.04-.86-.24-1.69,.24-1.93,1.14-.16,.59-.17,1.19-.01,1.78,.2,.78,.73,1.23,1.47,1.26,.64,.03,1.15-.38,1.42-1.12,.02-.06,.05-.12,.09-.22l.62,.17c-.18,1.13-1.14,1.88-2.21,1.77-1.48-.15-2.34-1.34-2.19-2.99,.1-1.06,.47-1.9,1.47-2.3,1.21-.48,2.41,.04,2.81,1.2,.02,.05,.03,.11,.04,.19Z"/><path d="M84.91,52.46h-.56l-.02-.23c-.36,.11-.72,.32-1.08,.31-.81,0-1.38-.66-1.46-1.63-.03-.42,0-.86,.12-1.26,.31-1.06,1.4-1.4,2.24-.73,.02,.02,.05,.03,.11,.07v-1.74h.64v5.22Zm-.52-1.88c-.08-.31-.13-.66-.27-.97-.15-.34-.45-.5-.81-.48-.35,.02-.61,.22-.74,.55-.22,.58-.23,1.18,0,1.76,.14,.35,.42,.57,.8,.57,.39,0,.68-.21,.82-.58,.09-.25,.13-.53,.2-.85Z"/><path d="M57.21,51.36c-.25,.84-.89,1.29-1.68,1.21-.96-.1-1.52-.64-1.6-1.61-.03-.33,0-.67,.05-1,.18-.93,.84-1.44,1.74-1.39,.8,.04,1.4,.67,1.5,1.56,.02,.18,.02,.36,.04,.59h-2.64c-.08,.51,.19,1.02,.62,1.21,.42,.19,.92,.05,1.18-.33,.27-.4,.3-.41,.8-.24Zm-2.6-1.19h1.93c0-.59-.36-1.02-.88-1.04-.58-.03-.99,.37-1.04,1.04Z"/><path d="M66.89,50.75h-2.61c-.02,.62,.26,1.09,.74,1.23,.54,.16,.88-.03,1.27-.72l.61,.07c-.1,.49-.34,.84-.74,1.05-1.27,.66-2.54-.2-2.57-1.73-.02-.95,.38-1.68,1.05-1.94,1.3-.5,2.47,.54,2.25,2.05Zm-.65-.58c-.04-.65-.42-1.05-.97-1.04-.55,0-.96,.44-.97,1.04h1.93Z"/><path d="M38.4,50.64c.02-.81,.17-1.45,.81-1.82,.6-.35,1.22-.36,1.82,.02,.63,.4,.8,1.06,.77,1.77-.01,.36-.08,.74-.22,1.07-.29,.67-.98,.98-1.78,.87-.66-.09-1.17-.58-1.31-1.28-.05-.24-.07-.48-.08-.62Zm.64-.07c.03,.21,.05,.42,.1,.62,.12,.51,.5,.82,.97,.82,.46,0,.85-.27,.95-.79,.08-.41,.09-.85,.03-1.26-.08-.53-.51-.84-.98-.84-.46,0-.83,.31-.96,.83-.05,.2-.06,.41-.09,.61Z"/><path d="M29.04,50.55c0,1.14-.52,1.87-1.4,1.99-1.12,.15-1.84-.44-1.98-1.63-.13-1.13,.27-1.95,1.08-2.24,1.23-.43,2.31,.44,2.3,1.88Zm-.63,.05c-.04-.23-.05-.46-.1-.67-.13-.5-.52-.81-.99-.81-.45,0-.83,.31-.96,.8-.12,.45-.13,.91,.03,1.36,.16,.48,.52,.74,.97,.73,.44-.01,.78-.28,.92-.75,.06-.22,.09-.45,.13-.66Z"/><path d="M12.46,51.33l.58-.1s.06,.09,.08,.14c.21,.59,.95,.86,1.44,.5,.14-.1,.27-.32,.26-.48-.01-.14-.2-.33-.35-.39-.37-.15-.76-.23-1.13-.36-.51-.17-.79-.54-.78-.99,.01-.49,.35-.93,.88-1.01,.37-.06,.77-.04,1.14,.03,.46,.09,.69,.44,.73,.97l-.53,.09c-.3-.56-.62-.73-1.15-.59-.22,.06-.47,.17-.42,.44,.03,.17,.23,.36,.39,.43,.32,.14,.67,.2,1.01,.31,.62,.2,.88,.5,.88,1.01,0,.55-.35,.98-.93,1.15-.47,.14-.94,.11-1.38-.09-.42-.19-.6-.58-.7-1.06Z"/><path d="M89.49,51.33l.58-.09c.32,.7,.63,.88,1.27,.75,.29-.06,.5-.23,.52-.54,.02-.3-.22-.4-.45-.47-.37-.12-.74-.21-1.11-.34-.47-.16-.72-.52-.71-.97,0-.45,.28-.82,.72-.98,.46-.17,.93-.15,1.39,.03,.4,.15,.62,.46,.66,.94l-.54,.09c-.32-.57-.66-.76-1.18-.57-.16,.06-.36,.26-.39,.43-.02,.11,.2,.34,.35,.41,.32,.14,.67,.21,1.01,.32,.65,.21,.94,.55,.92,1.06-.02,.56-.42,1.03-1.04,1.13-.33,.05-.68,.04-1.01-.02-.58-.11-.86-.54-.98-1.16Z"/><path d="M7.29,48.67h.54l.03,.44c.34-.35,.71-.55,1.17-.54,.76,.03,1.18,.47,1.19,1.27,0,.87,0,1.73,0,2.62h-.63c0-.24,0-.48,0-.71,0-.54,0-1.09,0-1.63,0-.63-.21-.92-.68-.97-.47-.05-.9,.28-.96,.83-.06,.48-.03,.97-.04,1.46,0,.33,0,.67,0,1.02h-.63v-3.78Z"/><path d="M54.32,61.28h-.59c0-.6,0-1.17,0-1.75,0-.25,0-.51,0-.76-.02-.46-.23-.73-.6-.79-.42-.07-.87,.17-.98,.57-.07,.24-.09,.5-.1,.75-.01,.66,0,1.32,0,1.99h-.61v-3.78h.52l.05,.41c.46-.48,.98-.63,1.58-.44,.42,.13,.71,.42,.73,.88,.03,.97,0,1.94,0,2.94Z"/><path d="M71.77,61.28h-.62c0-.17,0-.33,0-.48,0-.68,0-1.37-.01-2.05,0-.44-.23-.7-.58-.77-.4-.08-.87,.15-.98,.52-.08,.25-.1,.52-.11,.78-.01,.66,0,1.32,0,2h-.6v-3.78h.51l.05,.32c.31-.13,.61-.33,.93-.39,.84-.15,1.39,.31,1.43,1.21,.03,.87,0,1.74,0,2.65Z"/><path d="M21.77,51.62c.3-.87,.58-1.67,.85-2.47q.18-.54,.79-.46c-.19,.54-.38,1.06-.57,1.59-.35,.97-.68,1.95-1.06,2.91-.1,.27-.29,.55-.51,.69-.21,.13-.53,.12-.78,.06-.09-.02-.12-.35-.18-.57,.13,0,.2,0,.27,0,.58,.03,.99-.57,.79-1.14-.39-1.1-.79-2.21-1.19-3.31-.03-.07-.04-.15-.07-.25h.66l1,2.94Z"/><path d="M38.48,61.28h-.62v-3.79h.54l.03,.39c.06-.04,.12-.06,.16-.1,.38-.38,.83-.46,1.31-.36,.49,.1,.82,.45,.87,.95,.01,.13,.01,.25,.01,.38,0,.83,0,1.66,0,2.52h-.61c0-.51,0-1.01,0-1.52,0-.36,.01-.72-.02-1.07-.05-.45-.27-.68-.63-.71-.42-.04-.8,.17-.93,.55-.07,.22-.11,.47-.11,.71-.01,.67,0,1.34,0,2.05Z"/><path d="M81.04,52.47h-.6c0-.38,0-.76,0-1.14,0-.49,.01-.97-.03-1.46-.04-.46-.23-.65-.63-.72-.36-.06-.8,.16-.92,.52-.09,.27-.12,.56-.13,.85-.02,.64,0,1.27,0,1.93h-.61v-3.78h.53l.05,.44c.46-.49,.98-.65,1.58-.46,.46,.14,.75,.47,.76,.97,.02,.94,0,1.87,0,2.85Z"/><path d="M85.87,48.67h.59c0,.5,0,.98,0,1.46,0,.36,0,.72,.03,1.08,.04,.52,.25,.76,.67,.78,.46,.03,.89-.27,.94-.73,.06-.51,.05-1.04,.07-1.56,0-.33,0-.67,0-1.03h.6v3.78h-.53l-.03-.42c-.07,.06-.13,.1-.18,.14-.47,.44-1,.49-1.56,.25-.37-.16-.59-.48-.6-.89-.03-.95,0-1.9,0-2.88Z"/><path d="M63.21,49.79l-.54,.09c-.14-.21-.23-.43-.39-.58-.39-.35-1.09-.18-1.33,.33-.28,.62-.27,1.26,0,1.88,.16,.37,.49,.52,.87,.5,.37-.02,.62-.22,.75-.57,.04-.11,.07-.22,.11-.36l.57,.08c-.09,.84-.6,1.35-1.41,1.41-.77,.06-1.49-.45-1.62-1.26-.08-.48-.08-1,0-1.47,.13-.81,.77-1.27,1.59-1.26,.77,0,1.23,.39,1.41,1.22Z"/><path d="M63.17,61.27v-3.28l-.51-.03v-.48l.49-.03c.06-.49-.08-1.06,.42-1.38,.36-.22,.76-.15,1.18-.09l-.09,.56c-.89-.03-.9,.13-.82,.92h.62v.51h-.65v3.3h-.65Z"/><path d="M31.13,57.5c-.32,.89-.62,1.75-.93,2.61-.1,.28-.21,.56-.3,.84-.07,.23-.16,.36-.43,.36-.29,0-.34-.16-.42-.37-.37-1.03-.74-2.05-1.1-3.08-.04-.12-.08-.23-.12-.36q.62-.09,.81,.46c.27,.8,.54,1.61,.83,2.46,.29-.84,.56-1.64,.84-2.44q.19-.55,.82-.5Z"/><path d="M30.51,52.47h-.61v-3.25l-.54-.04v-.5l.52-.04c.05-.49-.11-1.08,.44-1.39,.36-.2,.74-.17,1.12-.05-.02,.51-.02,.52-.46,.53-.33,0-.45,.2-.47,.5-.01,.12,0,.25,0,.41h.69v.54h-.68v3.29Z"/><path d="M16.93,48.64l.6,.03v.5l-.59,.03c0,.43,0,.86,0,1.28,0,.26,0,.51,0,.77q0,.63,.61,.69l.09,.49c-.78,.34-1.32-.01-1.32-.87,0-.77,0-1.55,0-2.35l-.43-.04v-.49l.42-.04c.02-.5-.14-1.12,.63-1.25v1.25Z"/><path d="M93.97,47.32v1.32l.58,.04v.51h-.58v1.23c0,.29,0,.58,0,.87q0,.61,.59,.66l.09,.48c-.75,.36-1.31,0-1.32-.82,0-.79,0-1.57,0-2.38l-.43-.04v-.49l.39-.04c.04-.33,.02-.66,.13-.95,.06-.16,.33-.23,.55-.37Z"/><path d="M67.74,61.28h-.63v-5.24h.63v5.24Z"/><path d="M77.02,52.47h-.63v-5.23h.63v5.23Z"/><path d="M35.51,57.49h.57l.02,.48c.36-.66,.82-.72,1.39-.38l-.19,.59c-.09-.03-.16-.05-.23-.07-.42-.11-.78,.08-.83,.54-.07,.55-.06,1.1-.08,1.66,0,.31,0,.62,0,.94-.04,.02-.07,.05-.1,.05q-.55,.04-.55-.54c0-1.07,0-2.15,0-3.26Z"/><path d="M59.75,49.37c-.73-.22-1.01-.06-1.1,.7-.07,.58-.04,1.18-.05,1.77,0,.21,0,.41,0,.63h-.61v-3.79h.52l.03,.38c.21-.15,.41-.38,.64-.45,.23-.06,.49,.06,.78,.11l-.22,.65Z"/><path d="M18.74,52.46h-.61v-3.79h.52l.03,.38c.21-.15,.39-.38,.62-.44,.23-.06,.5,.05,.8,.09l-.22,.67c-.08-.02-.13-.03-.18-.05-.48-.15-.83,.04-.89,.55-.06,.49-.06,.99-.08,1.49-.01,.36,0,.71,0,1.11Z"/><path d="M11.78,52.47h-.6v-3.8h.6v3.8Z"/><path d="M77.19,61.29h-.57v-3.79h.57v3.79Z"/><path d="M6.35,52.46h-.59v-3.78h.59v3.78Z"/><path d="M77.2,56.77h-.59v-.73h.59v.73Z"/><path d="M11.18,47.23h.6v.7h-.6v-.7Z"/><path d="M6.35,47.94h-.59v-.71h.59v.71Z"/><path d="M45.12,22.49c-.2-.51-.32-1.03-.15-1.57,.24-.73,.32-1.45,0-2.19-.07-.15,0-.36,0-.56,.36,.95,.63,1.87,.22,2.88-.12,.29-.04,.66-.05,1,0,.15,0,.29,0,.44Z"/><path d="M45.46,24.19c.05-.32-.11-.73,.29-.97l-.29,.97Z"/><path d="M54.79,22.49c0-.18,.02-.36,0-.54-.05-.44-.08-.89-.18-1.32-.12-.54-.14-1.07,.06-1.59,.1-.25,.17-.51,.25-.77l.08,.02c-.06,.28-.09,.57-.17,.85-.16,.54-.15,1.06,.04,1.59,.22,.6,.11,1.18-.08,1.77Z"/><path d="M47.92,26.73c-.28,.14-.27-.2-.41-.28l.48-.36-.07,.64Z"/><path d="M43.65,30.19c-.48-.16-.78-1.3-.46-1.78l.46,1.78Z"/><path d="M52.98,30.37c0,1.78-1.3,3.17-2.96,3.17-1.62,0-2.96-1.42-2.96-3.12,0-1.68,1.38-3.16,2.96-3.13,1.5,.03,3.1,1.46,2.96,3.08Zm-3.64-.31c.02-.07,.07-.17,.05-.19-.42-.45-.84-.9-1.28-1.36l-.33,.41c.27,.12,.53,.19,.73,.34,.3,.23,.55,.53,.82,.8l-1.63-.96-.2,.46c.69,.12,1.33,.26,1.87,.7l-1.92-.52-.08,.43,1.79,.13v.2l-1.78-.1,.03,.52c.6-.21,1.16-.47,1.77-.31l.02,.12-1.76,.34,.15,.46,1.68-.84c.03-.12,.06-.28,.09-.45l-.02-.19Zm.23-.82l-.31-1.49-.5,.21,.82,1.27c.08,.51,.09,.51,.32,.43v-2.02l-.48,.09c.18,.63,.45,1.22,.41,1.98-.12-.21-.19-.34-.26-.46Zm1.06,1.26c0-.34-.29-.64-.61-.64-.31,0-.57,.3-.58,.63,0,.33,.28,.63,.59,.62,.31,0,.6-.3,.6-.62Zm1.96-.81l-1.81,.61,1.88-.13-.07-.48Zm-2.03-1.98l-.52-.08c.04,.28,.08,.5,.09,.73,.01,.24,0,.48-.02,.72-.01,.21-.03,.41-.05,.62h.04l.47-1.99Zm.32,3.05l1.58,.8,.16-.48-1.74-.32Zm-.07-.71l1.73-.57-.22-.43-1.51,1Zm.55-2.04l-.67,1.44,1.11-1.11-.43-.33Zm-.51,2.51l1.8,.33,.02-.47-1.82,.14Zm-.62,.8l.21,1.9,.43-.13-.64-1.76Zm2.15,.43l-1.65-.8,1.41,1.2,.24-.4Zm-4.47,.37l1.46-1.23-1.69,.84,.23,.39Zm1.68,1.07l.21-1.87-.66,1.76,.45,.12Zm1.5-.18l.4-.24-1.03-1.47,.64,1.72Zm.59-.34l.33-.32-1.36-1.18,1.03,1.5Zm-2.24-1.61l-1.36,1.23,.28,.35,1.08-1.57Zm.04,.38l-.96,1.31,.43,.24,.52-1.55Zm1.56-1.88l1.21-.67-.38-.45-.84,1.12Zm-.29-1.8l-.31,1.54,.78-1.36-.47-.19Zm-1.51,1.54l-.57-1.27-.44,.36,1.01,.92Zm.76,2.18l-.21,1.71h.43l-.23-1.71Z"/><polygon points="49.55 29.02 49.55 29.2 49.53 29.42 49.7 29.75 49.82 29.77 49.85 29.69 49.8 29.64 49.72 29.15 49.55 29.02"/><polygon points="49.16 30.29 49.41 30.29 49.35 30.5 49.09 30.48 49.09 30.39 49.16 30.29"/><polygon points="48.91 30.75 49.35 30.71 49.36 30.54 48.81 30.55 48.87 30.67 48.91 30.75"/><polygon points="48.5 29.25 49.43 29.98 49.41 30.05 49.36 30.08 49.03 29.85 48.47 29.47 48.5 29.25"/></g></g></g></svg>