<?xml version="1.0" encoding="UTF-8"?><svg id="Layer_2" xmlns="http://www.w3.org/2000/svg" xmlns:xlink="http://www.w3.org/1999/xlink" viewBox="0 0 238.69 230.71"><defs><style>.cls-1{fill:#fff;}.cls-2{fill:#82659c;stroke:#593081;stroke-miterlimit:10;stroke-width:2px;}.cls-3{fill:#64bb46;}.cls-4{fill:url(#linear-gradient);}</style><linearGradient id="linear-gradient" x1="115.35" y1="233.94" x2="115.35" y2="22.66" gradientTransform="translate(201.12 -23.42) rotate(76.72)" gradientUnits="userSpaceOnUse"><stop offset="0" stop-color="#562b7f"/><stop offset="1" stop-color="#6e4d8f"/></linearGradient></defs><g id="Layer_1-2"><circle class="cls-2" cx="115.35" cy="115.35" r="114.35"/><circle class="cls-4" cx="115.35" cy="115.35" r="109.58" transform="translate(-23.42 201.12) rotate(-76.72)"/><path class="cls-3" d="m155.4,191.98c-5.39-5.13-5.6-13.69-.47-19.09,2.57-2.7,6.05-4.19,9.78-4.19,3.48,0,6.78,1.32,9.31,3.72l8.47,8.06,29.54-33.78c2.56-2.93,6.27-4.61,10.17-4.61,3.27,0,6.42,1.19,8.88,3.34,5.6,4.9,6.18,13.44,1.28,19.05l-48.08,54.99-28.87-27.48Z"/><path class="cls-1" d="m222.19,145.08c2.45,0,4.92.85,6.91,2.6,4.37,3.82,4.81,10.45.99,14.82l-46.02,52.63-26.6-25.32c-4.2-4-4.36-10.64-.37-14.84h0c2.06-2.17,4.83-3.26,7.61-3.26,2.6,0,5.21.96,7.24,2.89l10.73,10.22,31.6-36.14c2.08-2.37,4.98-3.59,7.91-3.59m0-6h0c-4.76,0-9.29,2.06-12.43,5.64l-27.48,31.43-6.2-5.9c-3.08-2.93-7.12-4.55-11.37-4.55-4.5,0-8.85,1.87-11.95,5.12-3.04,3.19-4.65,7.38-4.54,11.78.11,4.41,1.93,8.51,5.12,11.54l26.6,25.32,4.53,4.32,4.12-4.71,46.02-52.63c2.9-3.32,4.34-7.57,4.04-11.96-.29-4.4-2.28-8.42-5.6-11.32-3.01-2.63-6.86-4.08-10.86-4.08h0Z"/></g></svg>