<svg xmlns="http://www.w3.org/2000/svg" viewBox="0 0 223 223"><title>nemi-favicon</title><rect width="223" height="223" rx="111.5" style="fill:#0b4290"/><path d="M67.67,133.62v12H87.5v-12Zm0,19v7.58H87.5v-7.58Zm0-41v16H87.5v-16Zm82.63-30.2a33.39,33.39,0,0,0-14-13.92A43,43,0,0,0,116,62.8a39.58,39.58,0,0,0-16.09,3.31A32.71,32.71,0,0,0,87.5,75.32V64.37H67.67v45.25H87.5v-3q0-12.85,6.52-19.75C98.36,82.32,104.26,80,111.68,80s13.28,2.31,17.57,6.87,6.43,11.18,6.43,19.75v3h19.65v-5.94Q155.33,90.63,150.3,81.42Zm-14.62,30.2v16h3.15a7.5,7.5,0,0,1,14.7,0h1.8v-16Zm16.49,22a7.48,7.48,0,0,1-12,0h-4.51v12h19.65v-12Zm-16.49,19v7.58h19.65v-7.58Z" style="fill:#fff"/></svg>