<svg xmlns="http://www.w3.org/2000/svg" xmlns:xlink="http://www.w3.org/1999/xlink" viewBox="0 0 152 115.3"><defs><clipPath id="a"><path d="M134.31,93.89A24.25,24.25,0,0,0,127.2,98c-2,1.86-3.42,4.61-3,7.32a8.42,8.42,0,0,0,.94,2.61,13.39,13.39,0,0,0,10.39,7,15.61,15.61,0,0,0,5-.43,16.21,16.21,0,0,0,10.27-7.13,6.61,6.61,0,0,0,.88-2.21,7.24,7.24,0,0,0,0-2.18,11.23,11.23,0,0,0-2.11-5.43c-1.7-2.15-4.36-3.27-6.89-4.3" style="fill:none"/></clipPath><clipPath id="b"><path d="M139.71,92.7a53.53,53.53,0,0,1,.32-6.2,4.59,4.59,0,0,1,.61-2.44,3.18,3.18,0,0,0-.65-4.63.53.53,0,0,1-.36-.53,61.69,61.69,0,0,1-.08-7.57A6.86,6.86,0,0,1,140,69a2.54,2.54,0,0,1,1.68-1.58,4.38,4.38,0,0,1-1-5c.21-.43.49-.83.67-1.27a6.54,6.54,0,0,0,.23-3,9.36,9.36,0,0,0-.35-2.17,3,3,0,0,0-1.31-1.71,3.91,3.91,0,0,0-2.2-.34,4.48,4.48,0,0,0-2.8,1,5.28,5.28,0,0,0-1.22,2.94,9.39,9.39,0,0,0-.2,2.64c.13,1.13.67,2.18.88,3.3a5.93,5.93,0,0,1-1,4.46,2.35,2.35,0,0,1,1.79,1.64,6.92,6.92,0,0,1,.22,2.53c0,2.77-.32,5.54-.26,8.32l.17,8.59.09,4.29" style="fill:none"/></clipPath></defs><title>nemi_registered</title><path d="M1.75,93.24V97a1.26,1.26,0,0,0,.27.87,1.07,1.07,0,0,0,.82.3,1.09,1.09,0,0,0,.82-.3A1.21,1.21,0,0,0,3.94,97V93.24H5.47V97a2.61,2.61,0,0,1-.36,1.41,2.32,2.32,0,0,1-1,.88,3,3,0,0,1-1.34.29,2.89,2.89,0,0,1-1.33-.29,2.14,2.14,0,0,1-.92-.87A2.77,2.77,0,0,1,.22,97V93.24Z" style="fill:#fbb03b"/><path d="M11,95a2.21,2.21,0,0,1,.52,1.56V99.5H10V96.8A1.11,1.11,0,0,0,9.72,96a1,1,0,0,0-1.4,0,1.11,1.11,0,0,0-.25.78v2.7H6.54v-5H8.07v.66a1.59,1.59,0,0,1,.62-.52,2,2,0,0,1,.88-.19A1.83,1.83,0,0,1,11,95Z" style="fill:#fbb03b"/><path d="M12.67,93.77a.79.79,0,0,1-.26-.59.77.77,0,0,1,.26-.59.9.9,0,0,1,.65-.24.92.92,0,0,1,.65.24.76.76,0,0,1,.25.59.78.78,0,0,1-.25.59,1,1,0,0,1-.65.23A.94.94,0,0,1,12.67,93.77Zm1.41.75v5H12.55v-5Z" style="fill:#fbb03b"/><path d="M18,98.21V99.5h-.77a1.91,1.91,0,0,1-1.3-.4,1.7,1.7,0,0,1-.46-1.33v-2h-.61V94.52h.61V93.31H17v1.21h1v1.27H17v2a.43.43,0,0,0,.11.32.55.55,0,0,0,.36.1Z" style="fill:#fbb03b"/><path d="M18.92,93.77a.78.78,0,0,1-.25-.59.76.76,0,0,1,.25-.59,1,1,0,0,1,1.31,0,.8.8,0,0,1,.25.59.82.82,0,0,1-.25.59,1,1,0,0,1-1.31,0Zm1.42.75v5H18.81v-5Z" style="fill:#fbb03b"/><path d="M25.87,95a2.22,2.22,0,0,1,.53,1.56V99.5H24.88V96.8a1.11,1.11,0,0,0-.26-.78,1,1,0,0,0-1.39,0,1.11,1.11,0,0,0-.26.78v2.7H21.44v-5H23v.66a1.59,1.59,0,0,1,.62-.52,2,2,0,0,1,.89-.19A1.81,1.81,0,0,1,25.87,95Z" style="fill:#fbb03b"/><path d="M30.27,94.66a1.63,1.63,0,0,1,.62.57v-.71h1.52v5a2.83,2.83,0,0,1-.27,1.25,2.09,2.09,0,0,1-.83.89,2.7,2.7,0,0,1-1.39.33,2.86,2.86,0,0,1-1.79-.53,2,2,0,0,1-.79-1.41h1.51a.73.73,0,0,0,.34.45,1.24,1.24,0,0,0,.66.16,1,1,0,0,0,.75-.27,1.15,1.15,0,0,0,.29-.87v-.7a1.68,1.68,0,0,1-.62.56,1.82,1.82,0,0,1-.92.22,2.08,2.08,0,0,1-1.12-.31,2.35,2.35,0,0,1-.79-.91,3.29,3.29,0,0,1,0-2.7,2.29,2.29,0,0,1,.79-.89,2.08,2.08,0,0,1,1.12-.31A1.92,1.92,0,0,1,30.27,94.66Zm.3,1.45a1,1,0,0,0-.77-.33,1.05,1.05,0,0,0-.78.33,1.21,1.21,0,0,0-.31.89,1.27,1.27,0,0,0,.31.91,1.05,1.05,0,0,0,.78.33,1,1,0,0,0,.77-.33,1.43,1.43,0,0,0,0-1.8Z" style="fill:#fbb03b"/><path d="M40.78,93.24l-2.17,4.19V99.5H37.09V97.43l-2.17-4.19h1.73l1.21,2.62,1.21-2.62Z" style="fill:#fbb03b"/><path d="M42.35,99.26a2.32,2.32,0,0,1-.92-.89,2.87,2.87,0,0,1,0-2.71,2.37,2.37,0,0,1,.93-.9,3,3,0,0,1,2.64,0,2.24,2.24,0,0,1,.93.9,2.85,2.85,0,0,1,0,2.7,2.33,2.33,0,0,1-.94.9,2.8,2.8,0,0,1-1.33.31A2.72,2.72,0,0,1,42.35,99.26Zm2.06-1.33a1.25,1.25,0,0,0,.31-.92,1.31,1.31,0,0,0-.3-.92,1,1,0,0,0-1.48,0,1.33,1.33,0,0,0-.29.92,1.29,1.29,0,0,0,.29.92.93.93,0,0,0,.72.32A1,1,0,0,0,44.41,97.93Z" style="fill:#fbb03b"/><path d="M52,94.52v5H50.47v-.68a1.61,1.61,0,0,1-.62.53,1.87,1.87,0,0,1-.88.2,2,2,0,0,1-1-.25,1.69,1.69,0,0,1-.68-.74A2.48,2.48,0,0,1,47,97.43V94.52h1.52v2.71a1.08,1.08,0,0,0,.25.77,1,1,0,0,0,1.41,0,1.08,1.08,0,0,0,.25-.77V94.52Z" style="fill:#fbb03b"/><path d="M55.87,98.21V99.5H55.1a1.91,1.91,0,0,1-1.3-.4,1.7,1.7,0,0,1-.46-1.33v-2h-.61V94.52h.61V93.31h1.52v1.21h1v1.27h-1v2a.43.43,0,0,0,.11.32.55.55,0,0,0,.36.1Z" style="fill:#fbb03b"/><path d="M61.16,95a2.26,2.26,0,0,1,.51,1.56V99.5H60.16V96.8A1.11,1.11,0,0,0,59.9,96a.93.93,0,0,0-.7-.28.91.91,0,0,0-.69.28,1.07,1.07,0,0,0-.26.78v2.7H56.72V92.9h1.53v2.29a1.66,1.66,0,0,1,.63-.53,2,2,0,0,1,.9-.19A1.82,1.82,0,0,1,61.16,95Z" style="fill:#fbb03b"/><path d="M73.25,93.24,71.62,99.5H69.77l-1-4.12-1,4.12H65.89L64.3,93.24h1.63l.9,4.56L68,93.24h1.68L70.7,97.8l.91-4.56Z" style="fill:#fbb03b"/><path d="M74.13,93.77a.79.79,0,0,1-.26-.59.77.77,0,0,1,.26-.59.92.92,0,0,1,.65-.24.9.9,0,0,1,.65.24.77.77,0,0,1,.26.59.79.79,0,0,1-.26.59.94.94,0,0,1-.65.23A1,1,0,0,1,74.13,93.77Zm1.41.75v5H74v-5Z" style="fill:#fbb03b"/><path d="M79.42,98.21V99.5h-.77a1.93,1.93,0,0,1-1.3-.4,1.7,1.7,0,0,1-.46-1.33v-2h-.61V94.52h.61V93.31h1.53v1.21h1v1.27h-1v2a.42.42,0,0,0,.1.32.55.55,0,0,0,.36.1Z" style="fill:#fbb03b"/><path d="M84.71,95a2.26,2.26,0,0,1,.52,1.56V99.5H83.71V96.8a1.11,1.11,0,0,0-.26-.78.93.93,0,0,0-.7-.28.91.91,0,0,0-.69.28,1.07,1.07,0,0,0-.26.78v2.7H80.27V92.9H81.8v2.29a1.66,1.66,0,0,1,.63-.53,2,2,0,0,1,.9-.19A1.82,1.82,0,0,1,84.71,95Z" style="fill:#fbb03b"/><path d="M88.32,94.7a2.9,2.9,0,0,1,1.12-1.13,3.26,3.26,0,0,1,1.63-.41,3.14,3.14,0,0,1,1.91.59A2.86,2.86,0,0,1,94,95.36H92.37a1.43,1.43,0,0,0-.54-.6,1.56,1.56,0,0,0-.78-.2,1.44,1.44,0,0,0-1.14.49,2.17,2.17,0,0,0,0,2.62,1.44,1.44,0,0,0,1.14.49,1.56,1.56,0,0,0,.78-.2,1.43,1.43,0,0,0,.54-.6H94A2.8,2.8,0,0,1,93,99a3.14,3.14,0,0,1-1.91.59,3.26,3.26,0,0,1-1.63-.41A2.9,2.9,0,0,1,88.32,98a3.3,3.3,0,0,1-.4-1.65A3.37,3.37,0,0,1,88.32,94.7Z" style="fill:#fbb03b"/><path d="M95,95.65a2.14,2.14,0,0,1,.79-.89,2,2,0,0,1,1.11-.31,2,2,0,0,1,.93.21,1.68,1.68,0,0,1,.61.57v-.71h1.52v5H98.41v-.7a1.68,1.68,0,0,1-.62.56,2.13,2.13,0,0,1-2-.1,2.2,2.2,0,0,1-.79-.91,3.29,3.29,0,0,1,0-2.7Zm3.12.46a1,1,0,0,0-.77-.33,1,1,0,0,0-.77.33,1.17,1.17,0,0,0-.32.89,1.23,1.23,0,0,0,.32.91,1,1,0,0,0,.77.33,1,1,0,0,0,.77-.33,1.43,1.43,0,0,0,0-1.8Z" style="fill:#fbb03b"/><path d="M103.23,94.7a1.83,1.83,0,0,1,.9-.23v1.61h-.42a1.32,1.32,0,0,0-.86.25,1.08,1.08,0,0,0-.28.86V99.5H101v-5h1.53v.83A2,2,0,0,1,103.23,94.7Z" style="fill:#fbb03b"/><path d="M109.53,97.38h-3.46a1.11,1.11,0,0,0,.3.71.93.93,0,0,0,.65.24.8.8,0,0,0,.79-.48h1.63a2.37,2.37,0,0,1-.45.88,2.2,2.2,0,0,1-.82.62,2.6,2.6,0,0,1-1.1.22,2.63,2.63,0,0,1-1.3-.31,2.24,2.24,0,0,1-.89-.89,2.71,2.71,0,0,1-.32-1.36,2.81,2.81,0,0,1,.31-1.36,2.24,2.24,0,0,1,.89-.89,2.67,2.67,0,0,1,1.31-.31,2.73,2.73,0,0,1,1.29.3,2.23,2.23,0,0,1,.88.87,2.62,2.62,0,0,1,.31,1.31C109.55,97.07,109.54,97.22,109.53,97.38ZM108,96.53a.8.8,0,0,0-.27-.63,1,1,0,0,0-.67-.23,1,1,0,0,0-1,.86Z" style="fill:#fbb03b"/><path d="M115,97.38h-3.45a1,1,0,0,0,.3.71.92.92,0,0,0,.65.24.8.8,0,0,0,.79-.48h1.62a2.11,2.11,0,0,1-.45.88,2.17,2.17,0,0,1-.81.62,2.87,2.87,0,0,1-2.4-.09,2.33,2.33,0,0,1-.9-.89,3.05,3.05,0,0,1,0-2.72,2.24,2.24,0,0,1,.89-.89,2.67,2.67,0,0,1,1.31-.31,2.73,2.73,0,0,1,1.29.3,2.21,2.21,0,0,1,.87.87,2.52,2.52,0,0,1,.32,1.31A3.64,3.64,0,0,1,115,97.38Zm-1.53-.85a.8.8,0,0,0-.27-.63,1,1,0,0,0-.67-.23,1,1,0,0,0-1,.86Z" style="fill:#fbb03b"/><path d="M118.05,94.7a1.79,1.79,0,0,1,.89-.23v1.61h-.42a1.29,1.29,0,0,0-.85.25,1.08,1.08,0,0,0-.29.86V99.5h-1.53v-5h1.53v.83A2.08,2.08,0,0,1,118.05,94.7Z" style="fill:#fbb03b"/><path d="M120.54,99.35a1.92,1.92,0,0,1-.8-.61,1.56,1.56,0,0,1-.33-.87h1.5a.59.59,0,0,0,.25.42.87.87,0,0,0,.52.16.77.77,0,0,0,.44-.11.34.34,0,0,0,.16-.29.33.33,0,0,0-.22-.32,5,5,0,0,0-.73-.23,7,7,0,0,1-.89-.26,1.47,1.47,0,0,1-.61-.44,1.16,1.16,0,0,1-.26-.81,1.45,1.45,0,0,1,.23-.78,1.57,1.57,0,0,1,.7-.55,2.62,2.62,0,0,1,1.09-.21,2.19,2.19,0,0,1,1.48.46,1.79,1.79,0,0,1,.62,1.24h-1.41a.57.57,0,0,0-.23-.41.73.73,0,0,0-.5-.16.67.67,0,0,0-.41.11A.31.31,0,0,0,121,96a.35.35,0,0,0,.23.32,3.7,3.7,0,0,0,.71.21,9.14,9.14,0,0,1,.9.28,1.5,1.5,0,0,1,.61.45,1.28,1.28,0,0,1,.28.83,1.34,1.34,0,0,1-.25.78,1.61,1.61,0,0,1-.7.54,2.76,2.76,0,0,1-1.07.19A2.86,2.86,0,0,1,120.54,99.35Z" style="fill:#fbb03b"/><line y1="89.41" x2="123.18" y2="89.41"/><rect y="88.65" width="123.18" height="1.53" style="fill:#0b4290"/><path d="M21.58,55.9a10.16,10.16,0,0,1,4.28,4.26A14,14,0,0,1,27.41,67V84.24h-6V67.87a8.51,8.51,0,0,0-2-6,7,7,0,0,0-5.37-2.1,7.09,7.09,0,0,0-5.4,2.1,8.43,8.43,0,0,0-2,6V84.24H.61V55H6.67V58.3a9.94,9.94,0,0,1,3.8-2.82,12,12,0,0,1,4.92-1A13.2,13.2,0,0,1,21.58,55.9Z" style="fill:#0b4290"/><path d="M45.51,44.59V58H61.3v6.12H45.51v14H63.28v6.12H38V38.47H63.28v6.12Z" style="fill:#0b4290"/><path d="M115.3,56a10.44,10.44,0,0,1,4.31,4.25A13.88,13.88,0,0,1,121.18,67V84.31h-6V67.93a8.5,8.5,0,0,0-2-6,7,7,0,0,0-5.37-2.1,7.09,7.09,0,0,0-5.4,2.1,8.46,8.46,0,0,0-2,6V84.31h-6V67.93a8.46,8.46,0,0,0-2-6,7,7,0,0,0-5.37-2.1,7.09,7.09,0,0,0-5.39,2.1,8.42,8.42,0,0,0-2,6V84.31H73.64V55H79.7v3.35a10.11,10.11,0,0,1,3.78-2.81,11.83,11.83,0,0,1,4.89-1A13,13,0,0,1,94.64,56a10.18,10.18,0,0,1,4.26,4.31,9.83,9.83,0,0,1,4.15-4.23,12.27,12.27,0,0,1,6.06-1.56A13.08,13.08,0,0,1,115.3,56Z" style="fill:#0b4290"/><path d="M58.94,22.59H56.4L53,17.49v5.1H50.49V13.46H53l3.38,5.17V13.46h2.54Z" style="fill:#0b4290"/><path d="M64.33,12.46v2.12h4.16v2.76H64.33v2.35H69v2.9H60.7v-13H69v2.91Z" style="fill:#0b4290"/><path d="M81.18,13.46v9.13H78.64v-5l-1.72,5H74.8l-1.74-5.07v5.07H70.53V13.46h3.06l2.29,5.93,2.24-5.93Z" style="fill:#0b4290"/><path d="M85.17,13.46v9.13H82.63V13.46Z" style="fill:#0b4290"/><path d="M2.14,49.21a40.66,40.66,0,0,1,1.2-11.12A44.74,44.74,0,0,1,5,32.7l.51-1.32.58-1.3c.36-.88.81-1.71,1.24-2.56a44.59,44.59,0,0,1,6.57-9.3,48,48,0,0,1,8.72-7.43l2.43-1.52.31-.19.31-.17.64-.34,1.26-.67c.42-.23.84-.46,1.27-.67l1.31-.58,1.31-.59.65-.29c.22-.1.44-.19.67-.27l2.68-1,.67-.25c.22-.08.45-.16.68-.22l1.37-.41,2.74-.8,2.78-.64c1.84-.47,3.72-.72,5.59-1L50.71.92,52.12.77,54.94.46c.47-.05.94-.12,1.41-.14L57.77.25,60.6.1C61.07.07,61.54,0,62,0h4.24c1.88,0,3.77.1,5.66.17l1.42.07c.47,0,.94.08,1.41.12l2.82.27c.47,0,1,.09,1.41.15L80.38,1l2.81.43.7.11.7.15L86,2c.93.2,1.87.37,2.79.6l2.75.75,1.37.37,1.36.45c.9.3,1.81.59,2.71.91l2.65,1.06c.44.18.89.34,1.32.55l1.29.61,1.29.61.65.3c.21.1.42.23.63.34l2.5,1.38c.83.48,1.62,1,2.43,1.52a55.63,55.63,0,0,1,8.88,7.15,53.53,53.53,0,0,1,7.17,8.81,55,55,0,0,1,5.11,10.06c.65,1.76,1.23,3.54,1.7,5.35l.32,1.37c.09.46.2.91.28,1.37a26,26,0,0,1,.4,2.77A42.36,42.36,0,0,0,132,43c-.63-1.74-1.36-3.43-2.15-5.1a57.32,57.32,0,0,0-5.69-9.38,54.8,54.8,0,0,0-16.11-14.42A68.78,68.78,0,0,0,87.91,6.25c-.44-.12-.89-.18-1.33-.27l-1.34-.26L83.9,5.46l-.67-.13-.67-.1-2.7-.37-1.35-.19-1.36-.13L74.43,4.3c-.46,0-.91-.1-1.37-.11L71.7,4.13c-1.83-.06-3.65-.2-5.48-.15H62.11c-.46,0-.91,0-1.37.06L58,4.18l-1.37.06c-.45,0-.9.08-1.36.12l-2.72.26-1.36.13L49.86,5c-1.8.28-3.6.5-5.37.91l-2.66.55-2.62.71-1.31.35c-.44.12-.86.28-1.29.42L34,8.76a5.87,5.87,0,0,0-.63.24l-.63.26-1.25.51-1.25.51-1.22.59-1.21.59-.61.3-.31.14-.29.17L24.3,13.42c-.4.21-.76.47-1.14.72L22,14.89l-.56.37a5.44,5.44,0,0,0-.55.39l-1.07.83-1.07.82c-.35.28-.68.59-1,.89-.67.6-1.38,1.17-2,1.83A43.25,43.25,0,0,0,9,28.48a47.89,47.89,0,0,0-4.63,9.91,51.8,51.8,0,0,0-1.45,5.33A37.64,37.64,0,0,0,2.14,49.21Z" style="fill:#fbb03b"/><path d="M134.31,51.61a13.92,13.92,0,0,1,.33-4.86,7.82,7.82,0,0,1,2.56-4.09c1.69-1.34,3.91-1.73,5.93-2.48a16.53,16.53,0,0,0,5.05-3c-.71,1.92-.34,4.06-.72,6.07a8.3,8.3,0,0,1-4.88,6,42.7,42.7,0,0,1-4.34,1.17c-1.45.41-3.9,2.66-3.9,2.66Z" style="fill:#0b4290"/><path d="M140.76,62.05h1.83l.31-.91a1.69,1.69,0,0,1,0,2.44.93.93,0,0,1-.31-.61h-1.83l-.61-.31Z" style="fill:#000200"/><path d="M141.37,56.24h1.83l.31-.91a1.69,1.69,0,0,1,0,2.44.93.93,0,0,1-.31-.61h-1.83l-.61-.3Z" style="fill:#000200"/><path d="M141.68,59h1.83l.31-.92a1.69,1.69,0,0,1,0,2.44.93.93,0,0,1-.31-.61h-1.83l-.62-.3Z" style="fill:#000200"/><path d="M134.58,62.05h-1.84l-.3-.91a1.69,1.69,0,0,0,0,2.44.94.94,0,0,0,.3-.61h1.84l.61-.31Z" style="fill:#000200"/><path d="M134,56.24h-1.84l-.3-.91a1.68,1.68,0,0,0,0,2.44.94.94,0,0,0,.3-.61H134l.61-.3Z" style="fill:#000200"/><path d="M133.66,59h-1.83l-.31-.92a1.69,1.69,0,0,0,0,2.44.93.93,0,0,0,.31-.61h1.83l.61-.3Z" style="fill:#000200"/><g style="clip-path:url(#a)"><polygon points="151.83 94 127.81 93.27 151.83 93.27 151.83 94" style="fill:#fbfbfb"/><polygon points="151.83 94.09 124.82 93.27 127.81 93.27 151.83 94 151.83 94.09" style="fill:#fbfbfb"/><polygon points="151.83 94.19 123.78 93.33 123.78 93.27 124.82 93.27 151.83 94.09 151.83 94.19" style="fill:#fbfbfa"/><polygon points="151.83 94.28 123.78 93.42 123.78 93.33 151.83 94.19 151.83 94.28" style="fill:#fbfaf9"/><polygon points="151.83 94.37 123.78 93.51 123.78 93.42 151.83 94.28 151.83 94.37" style="fill:#fbfaf8"/><polygon points="151.83 94.46 123.78 93.6 123.78 93.51 151.83 94.37 151.83 94.46" style="fill:#fbf9f7"/><polygon points="151.83 94.55 123.78 93.69 123.78 93.6 151.83 94.46 151.83 94.55" style="fill:#fbf9f6"/><polygon points="151.83 94.64 123.78 93.78 123.78 93.69 151.83 94.55 151.83 94.64" style="fill:#fbf9f5"/><polygon points="151.83 94.73 123.78 93.88 123.78 93.78 151.83 94.64 151.83 94.73" style="fill:#fbf8f4"/><polygon points="151.83 94.82 123.78 93.97 123.78 93.88 151.83 94.73 151.83 94.82" style="fill:#fbf8f3"/><polygon points="151.83 94.92 123.78 94.06 123.78 93.97 151.83 94.82 151.83 94.92" style="fill:#fbf8f2"/><polygon points="151.83 95.01 123.78 94.15 123.78 94.06 151.83 94.92 151.83 95.01" style="fill:#fbf7f1"/><polygon points="151.83 95.1 123.78 94.24 123.78 94.15 151.83 95.01 151.83 95.1" style="fill:#fbf7f0"/><polygon points="151.83 95.19 123.78 94.33 123.78 94.24 151.83 95.1 151.83 95.19" style="fill:#fbf6ef"/><polygon points="151.83 95.28 123.78 94.42 123.78 94.33 151.83 95.19 151.83 95.28" style="fill:#fbf6ee"/><polygon points="151.83 95.37 123.78 94.51 123.78 94.42 151.83 95.28 151.83 95.37" style="fill:#fbf6ed"/><polygon points="151.83 95.46 123.78 94.61 123.78 94.51 151.83 95.37 151.83 95.46" style="fill:#fbf5ec"/><polygon points="151.83 95.56 123.78 94.7 123.78 94.61 151.83 95.46 151.83 95.56" style="fill:#fbf5eb"/><polygon points="151.83 95.65 123.78 94.79 123.78 94.7 151.83 95.56 151.83 95.65" style="fill:#fbf4ea"/><polygon points="151.83 95.74 123.78 94.88 123.78 94.79 151.83 95.65 151.83 95.74" style="fill:#fbf4e9"/><polygon points="151.83 95.83 123.78 94.97 123.78 94.88 151.83 95.74 151.83 95.83" style="fill:#fbf4e8"/><polygon points="151.83 95.92 123.78 95.06 123.78 94.97 151.83 95.83 151.83 95.92" style="fill:#fbf3e7"/><polygon points="151.83 96.01 123.78 95.15 123.78 95.06 151.83 95.92 151.83 96.01" style="fill:#fbf3e6"/><polygon points="151.83 96.1 123.78 95.25 123.78 95.15 151.83 96.01 151.83 96.1" style="fill:#fbf2e5"/><polygon points="151.83 96.19 123.78 95.34 123.78 95.25 151.83 96.1 151.83 96.19" style="fill:#fbf2e4"/><polygon points="151.83 96.28 123.78 95.43 123.78 95.34 151.83 96.19 151.83 96.28" style="fill:#fbf2e3"/><polygon points="151.83 96.38 123.78 95.52 123.78 95.43 151.83 96.28 151.83 96.38" style="fill:#fbf1e2"/><polygon points="151.83 96.47 123.78 95.61 123.78 95.52 151.83 96.38 151.83 96.47" style="fill:#fbf1e1"/><polygon points="151.83 96.56 123.78 95.7 123.78 95.61 151.83 96.47 151.83 96.56" style="fill:#fbf1e0"/><polygon points="151.83 96.65 123.78 95.79 123.78 95.7 151.83 96.56 151.83 96.65" style="fill:#fbf0df"/><polygon points="151.83 96.74 123.78 95.88 123.78 95.79 151.83 96.65 151.83 96.74" style="fill:#fbf0de"/><polygon points="151.83 96.83 123.78 95.97 123.78 95.88 151.83 96.74 151.83 96.83" style="fill:#fbefdd"/><polygon points="151.83 96.92 123.78 96.07 123.78 95.97 151.83 96.83 151.83 96.92" style="fill:#fbefdc"/><polygon points="151.83 97.02 123.78 96.16 123.78 96.07 151.83 96.92 151.83 97.02" style="fill:#fbefdb"/><polygon points="151.83 97.11 123.78 96.25 123.78 96.16 151.83 97.02 151.83 97.11" style="fill:#fbeeda"/><polygon points="151.83 97.2 123.78 96.34 123.78 96.25 151.83 97.11 151.83 97.2" style="fill:#fbeed9"/><polygon points="151.83 97.29 123.78 96.43 123.78 96.34 151.83 97.2 151.83 97.29" style="fill:#fbedd8"/><polygon points="151.83 97.38 123.78 96.52 123.78 96.43 151.83 97.29 151.83 97.38" style="fill:#fbedd7"/><polygon points="151.83 97.47 123.78 96.61 123.78 96.52 151.83 97.38 151.83 97.47" style="fill:#fbedd6"/><polygon points="151.83 97.56 123.78 96.71 123.78 96.61 151.83 97.47 151.83 97.56" style="fill:#faecd5"/><polygon points="151.83 97.66 123.78 96.8 123.78 96.71 151.83 97.56 151.83 97.66" style="fill:#faecd4"/><polygon points="151.83 97.75 123.78 96.89 123.78 96.8 151.83 97.66 151.83 97.75" style="fill:#faebd3"/><polygon points="151.83 97.84 123.78 96.98 123.78 96.89 151.83 97.75 151.83 97.84" style="fill:#faebd2"/><polygon points="151.83 97.93 123.78 97.07 123.78 96.98 151.83 97.84 151.83 97.93" style="fill:#faebd1"/><polygon points="151.83 98.02 123.78 97.16 123.78 97.07 151.83 97.93 151.83 98.02" style="fill:#faead0"/><polygon points="151.83 98.11 123.78 97.25 123.78 97.16 151.83 98.02 151.83 98.11" style="fill:#faeacf"/><polygon points="151.83 98.2 123.78 97.34 123.78 97.25 151.83 98.11 151.83 98.2" style="fill:#faeace"/><polygon points="151.83 98.29 123.78 97.44 123.78 97.34 151.83 98.2 151.83 98.29" style="fill:#fae9cd"/><polygon points="151.83 98.39 123.78 97.53 123.78 97.44 151.83 98.29 151.83 98.39" style="fill:#fae9cc"/><polygon points="151.83 98.48 123.78 97.62 123.78 97.53 151.83 98.39 151.83 98.48" style="fill:#fae8cb"/><polygon points="151.83 98.57 123.78 97.71 123.78 97.62 151.83 98.48 151.83 98.57" style="fill:#fae8ca"/><polygon points="151.83 98.66 123.78 97.8 123.78 97.71 151.83 98.57 151.83 98.66" style="fill:#fae8c9"/><polygon points="151.83 98.75 123.78 97.89 123.78 97.8 151.83 98.66 151.83 98.75" style="fill:#fae7c8"/><polygon points="151.83 98.84 123.78 97.98 123.78 97.89 151.83 98.75 151.83 98.84" style="fill:#fae7c7"/><polygon points="151.83 98.93 123.78 98.08 123.78 97.98 151.83 98.84 151.83 98.93" style="fill:#fae6c6"/><polygon points="151.83 99.03 123.78 98.17 123.78 98.08 151.83 98.93 151.83 99.03" style="fill:#fae6c5"/><polygon points="151.83 99.12 123.78 98.26 123.78 98.17 151.83 99.03 151.83 99.12" style="fill:#fae6c4"/><polygon points="151.83 99.21 123.78 98.35 123.78 98.26 151.83 99.12 151.83 99.21" style="fill:#fae5c3"/><polygon points="151.83 99.3 123.78 98.44 123.78 98.35 151.83 99.21 151.83 99.3" style="fill:#fae5c2"/><polygon points="151.83 99.39 123.78 98.53 123.78 98.44 151.83 99.3 151.83 99.39" style="fill:#fae4c1"/><polygon points="151.83 99.48 123.78 98.62 123.78 98.53 151.83 99.39 151.83 99.48" style="fill:#fae4c0"/><polygon points="151.83 99.57 123.78 98.72 123.78 98.62 151.83 99.48 151.83 99.57" style="fill:#fae4bf"/><polygon points="151.83 99.66 123.78 98.81 123.78 98.72 151.83 99.57 151.83 99.66" style="fill:#fae3be"/><polygon points="151.83 99.75 123.78 98.9 123.78 98.81 151.83 99.66 151.83 99.75" style="fill:#fae3bd"/><polygon points="151.83 99.85 123.78 98.99 123.78 98.9 151.83 99.75 151.83 99.85" style="fill:#fae3bc"/><polygon points="151.83 99.94 123.78 99.08 123.78 98.99 151.83 99.85 151.83 99.94" style="fill:#fae2bb"/><polygon points="151.83 100.03 123.78 99.17 123.78 99.08 151.83 99.94 151.83 100.03" style="fill:#fae2ba"/><polygon points="151.83 100.12 123.78 99.26 123.78 99.17 151.83 100.03 151.83 100.12" style="fill:#fae1b9"/><polygon points="151.83 100.21 123.78 99.35 123.78 99.26 151.83 100.12 151.83 100.21" style="fill:#fae1b8"/><polygon points="151.83 100.3 123.78 99.45 123.78 99.35 151.83 100.21 151.83 100.3" style="fill:#fae1b7"/><polygon points="151.83 100.39 123.78 99.54 123.78 99.45 151.83 100.3 151.83 100.39" style="fill:#fae0b6"/><polygon points="151.83 100.49 123.78 99.63 123.78 99.54 151.83 100.39 151.83 100.49" style="fill:#fae0b5"/><polygon points="151.83 100.58 123.78 99.72 123.78 99.63 151.83 100.49 151.83 100.58" style="fill:#fadfb4"/><polygon points="151.83 100.67 123.78 99.81 123.78 99.72 151.83 100.58 151.83 100.67" style="fill:#fadfb3"/><polygon points="151.83 100.76 123.78 99.9 123.78 99.81 151.83 100.67 151.83 100.76" style="fill:#fadfb2"/><polygon points="151.83 100.85 123.78 99.99 123.78 99.9 151.83 100.76 151.83 100.85" style="fill:#fadeb1"/><polygon points="151.83 100.94 123.78 100.08 123.78 99.99 151.83 100.85 151.83 100.94" style="fill:#fadeb0"/><polygon points="151.83 101.03 123.78 100.18 123.78 100.08 151.83 100.94 151.83 101.03" style="fill:#faddaf"/><polygon points="151.83 101.13 123.78 100.27 123.78 100.18 151.83 101.03 151.83 101.13" style="fill:#faddae"/><polygon points="151.83 101.22 123.78 100.36 123.78 100.27 151.83 101.13 151.83 101.22" style="fill:#faddad"/><polygon points="151.83 101.31 123.78 100.45 123.78 100.36 151.83 101.22 151.83 101.31" style="fill:#fadcac"/><polygon points="151.83 101.4 123.78 100.54 123.78 100.45 151.83 101.31 151.83 101.4" style="fill:#fadcab"/><polygon points="151.83 101.49 123.78 100.63 123.78 100.54 151.83 101.4 151.83 101.49" style="fill:#fadcaa"/><polygon points="151.83 101.58 123.78 100.72 123.78 100.63 151.83 101.49 151.83 101.58" style="fill:#fadba9"/><polygon points="151.83 101.67 123.78 100.81 123.78 100.72 151.83 101.58 151.83 101.67" style="fill:#fadba8"/><polygon points="151.83 101.76 123.78 100.91 123.78 100.81 151.83 101.67 151.83 101.76" style="fill:#fadaa7"/><polygon points="151.83 101.86 123.78 101 123.78 100.91 151.83 101.76 151.83 101.86" style="fill:#fadaa6"/><polygon points="151.83 101.95 123.78 101.09 123.78 101 151.83 101.86 151.83 101.95" style="fill:#fadaa5"/><polygon points="151.83 102.04 123.78 101.18 123.78 101.09 151.83 101.95 151.83 102.04" style="fill:#fad9a4"/><polygon points="151.83 102.13 123.78 101.27 123.78 101.18 151.83 102.04 151.83 102.13" style="fill:#fad9a3"/><polygon points="151.83 102.22 123.78 101.36 123.78 101.27 151.83 102.13 151.83 102.22" style="fill:#fad8a2"/><polygon points="151.83 102.31 123.78 101.45 123.78 101.36 151.83 102.22 151.83 102.31" style="fill:#fad8a1"/><polygon points="151.83 102.4 123.78 101.55 123.78 101.45 151.83 102.31 151.83 102.4" style="fill:#fad8a0"/><polygon points="151.83 102.5 123.78 101.64 123.78 101.55 151.83 102.4 151.83 102.5" style="fill:#fad79f"/><polygon points="151.83 102.59 123.78 101.73 123.78 101.64 151.83 102.5 151.83 102.59" style="fill:#fad79e"/><polygon points="151.83 102.68 123.78 101.82 123.78 101.73 151.83 102.59 151.83 102.68" style="fill:#fad69d"/><polygon points="151.83 102.77 123.78 101.91 123.78 101.82 151.83 102.68 151.83 102.77" style="fill:#fad69c"/><polygon points="151.83 102.86 123.78 102 123.78 101.91 151.83 102.77 151.83 102.86" style="fill:#fad69b"/><polygon points="151.83 102.95 123.78 102.09 123.78 102 151.83 102.86 151.83 102.95" style="fill:#fad59a"/><polygon points="151.83 103.04 123.78 102.19 123.78 102.09 151.83 102.95 151.83 103.04" style="fill:#fad599"/><polygon points="151.83 103.13 123.78 102.28 123.78 102.19 151.83 103.04 151.83 103.13" style="fill:#fad598"/><polygon points="151.83 103.22 123.78 102.37 123.78 102.28 151.83 103.13 151.83 103.22" style="fill:#fad497"/><polygon points="151.83 103.32 123.78 102.46 123.78 102.37 151.83 103.22 151.83 103.32" style="fill:#fad496"/><polygon points="151.83 103.41 123.78 102.55 123.78 102.46 151.83 103.32 151.83 103.41" style="fill:#fad395"/><polygon points="151.83 103.5 123.78 102.64 123.78 102.55 151.83 103.41 151.83 103.5" style="fill:#fad394"/><polygon points="151.83 103.59 123.78 102.73 123.78 102.64 151.83 103.5 151.83 103.59" style="fill:#fad393"/><polygon points="151.83 103.68 123.78 102.82 123.78 102.73 151.83 103.59 151.83 103.68" style="fill:#fad292"/><polygon points="151.83 103.77 123.78 102.92 123.78 102.82 151.83 103.68 151.83 103.77" style="fill:#fad291"/><polygon points="151.83 103.86 123.78 103.01 123.78 102.92 151.83 103.77 151.83 103.86" style="fill:#fad190"/><polygon points="151.83 103.96 123.78 103.1 123.78 103.01 151.83 103.86 151.83 103.96" style="fill:#fad18f"/><polygon points="151.83 104.05 123.78 103.19 123.78 103.1 151.83 103.96 151.83 104.05" style="fill:#fad18e"/><polygon points="151.83 104.14 123.78 103.28 123.78 103.19 151.83 104.05 151.83 104.14" style="fill:#fad08d"/><polygon points="151.83 104.23 123.78 103.37 123.78 103.28 151.83 104.14 151.83 104.23" style="fill:#fad08c"/><polygon points="151.83 104.32 123.78 103.46 123.78 103.37 151.83 104.23 151.83 104.32" style="fill:#fad08b"/><polygon points="151.83 104.41 123.78 103.56 123.78 103.46 151.83 104.32 151.83 104.41" style="fill:#f9cf89"/><polygon points="151.83 104.5 123.78 103.65 123.78 103.56 151.83 104.41 151.83 104.5" style="fill:#f9cf88"/><polygon points="151.83 104.59 123.78 103.74 123.78 103.65 151.83 104.5 151.83 104.59" style="fill:#f9ce87"/><polygon points="151.83 104.69 123.78 103.83 123.78 103.74 151.83 104.59 151.83 104.69" style="fill:#f9ce86"/><polygon points="151.83 104.78 123.78 103.92 123.78 103.83 151.83 104.69 151.83 104.78" style="fill:#f9ce85"/><polygon points="151.83 104.87 123.78 104.01 123.78 103.92 151.83 104.78 151.83 104.87" style="fill:#f9cd84"/><polygon points="151.83 104.96 123.78 104.1 123.78 104.01 151.83 104.87 151.83 104.96" style="fill:#f9cd83"/><polygon points="151.83 105.05 123.78 104.19 123.78 104.1 151.83 104.96 151.83 105.05" style="fill:#f9cc82"/><polygon points="151.83 105.14 123.78 104.29 123.78 104.19 151.83 105.05 151.83 105.14" style="fill:#f9cc81"/><polygon points="151.83 105.23 123.78 104.38 123.78 104.29 151.83 105.14 151.83 105.23" style="fill:#f9cc80"/><polygon points="151.83 105.33 123.78 104.47 123.78 104.38 151.83 105.23 151.83 105.33" style="fill:#f9cb7f"/><polygon points="151.83 105.42 123.78 104.56 123.78 104.47 151.83 105.33 151.83 105.42" style="fill:#f9cb7e"/><polygon points="151.83 105.51 123.78 104.65 123.78 104.56 151.83 105.42 151.83 105.51" style="fill:#f9ca7d"/><polygon points="151.83 105.6 123.78 104.74 123.78 104.65 151.83 105.51 151.83 105.6" style="fill:#f9ca7c"/><polygon points="151.83 105.69 123.78 104.83 123.78 104.74 151.83 105.6 151.83 105.69" style="fill:#f9ca7b"/><polygon points="151.83 105.78 123.78 104.92 123.78 104.83 151.83 105.69 151.83 105.78" style="fill:#f9c97a"/><polygon points="151.83 105.87 123.78 105.02 123.78 104.92 151.83 105.78 151.83 105.87" style="fill:#f9c979"/><polygon points="151.83 105.97 123.78 105.11 123.78 105.02 151.83 105.87 151.83 105.97" style="fill:#f9c978"/><polygon points="151.83 106.06 123.78 105.2 123.78 105.11 151.83 105.97 151.83 106.06" style="fill:#f9c877"/><polygon points="151.83 106.15 123.78 105.29 123.78 105.2 151.83 106.06 151.83 106.15" style="fill:#f9c876"/><polygon points="151.83 106.24 123.78 105.38 123.78 105.29 151.83 106.15 151.83 106.24" style="fill:#f9c775"/><polygon points="151.83 106.33 123.78 105.47 123.78 105.38 151.83 106.24 151.83 106.33" style="fill:#f9c774"/><polygon points="151.83 106.42 123.78 105.56 123.78 105.47 151.83 106.33 151.83 106.42" style="fill:#f9c773"/><polygon points="151.83 106.51 123.78 105.66 123.78 105.56 151.83 106.42 151.83 106.51" style="fill:#f9c672"/><polygon points="151.83 106.6 123.78 105.75 123.78 105.66 151.83 106.51 151.83 106.6" style="fill:#f9c671"/><polygon points="151.83 106.7 123.78 105.84 123.78 105.75 151.83 106.6 151.83 106.7" style="fill:#f9c570"/><polygon points="151.83 106.79 123.78 105.93 123.78 105.84 151.83 106.7 151.83 106.79" style="fill:#f9c56f"/><polygon points="151.83 106.88 123.78 106.02 123.78 105.93 151.83 106.79 151.83 106.88" style="fill:#f9c56e"/><polygon points="151.83 106.97 123.78 106.11 123.78 106.02 151.83 106.88 151.83 106.97" style="fill:#f9c46d"/><polygon points="151.83 107.06 123.78 106.2 123.78 106.11 151.83 106.97 151.83 107.06" style="fill:#f9c46c"/><polygon points="151.83 107.15 123.78 106.3 123.78 106.2 151.83 107.06 151.83 107.15" style="fill:#f9c36b"/><polygon points="151.83 107.24 123.78 106.39 123.78 106.3 151.83 107.15 151.83 107.24" style="fill:#f9c36a"/><polygon points="151.83 107.33 123.78 106.48 123.78 106.39 151.83 107.24 151.83 107.33" style="fill:#f9c369"/><polygon points="151.83 107.43 123.78 106.57 123.78 106.48 151.83 107.33 151.83 107.43" style="fill:#f9c268"/><polygon points="151.83 107.52 123.78 106.66 123.78 106.57 151.83 107.43 151.83 107.52" style="fill:#f9c267"/><polygon points="151.83 107.61 123.78 106.75 123.78 106.66 151.83 107.52 151.83 107.61" style="fill:#f9c266"/><polygon points="151.83 107.7 123.78 106.84 123.78 106.75 151.83 107.61 151.83 107.7" style="fill:#f9c165"/><polygon points="151.83 107.79 123.78 106.93 123.78 106.84 151.83 107.7 151.83 107.79" style="fill:#f9c164"/><polygon points="151.83 107.88 123.78 107.03 123.78 106.93 151.83 107.79 151.83 107.88" style="fill:#f9c063"/><polygon points="151.83 107.97 123.78 107.12 123.78 107.03 151.83 107.88 151.83 107.97" style="fill:#f9c062"/><polygon points="151.83 108.06 123.78 107.21 123.78 107.12 151.83 107.97 151.83 108.06" style="fill:#f9c061"/><polygon points="151.83 108.16 123.78 107.3 123.78 107.21 151.83 108.06 151.83 108.16" style="fill:#f9bf60"/><polygon points="151.83 108.25 123.78 107.39 123.78 107.3 151.83 108.16 151.83 108.25" style="fill:#f9bf5f"/><polygon points="151.83 108.34 123.78 107.48 123.78 107.39 151.83 108.25 151.83 108.34" style="fill:#f9be5e"/><polygon points="151.83 108.43 123.78 107.57 123.78 107.48 151.83 108.34 151.83 108.43" style="fill:#f9be5d"/><polygon points="151.83 108.52 123.78 107.66 123.78 107.57 151.83 108.43 151.83 108.52" style="fill:#f9be5c"/><polygon points="151.83 108.61 123.78 107.76 123.78 107.66 151.83 108.52 151.83 108.61" style="fill:#f9bd5b"/><polygon points="151.83 108.7 123.78 107.85 123.78 107.76 151.83 108.61 151.83 108.7" style="fill:#f9bd5a"/><polygon points="151.83 108.8 123.78 107.94 123.78 107.85 151.83 108.7 151.83 108.8" style="fill:#f9bc59"/><polygon points="151.83 108.89 123.78 108.03 123.78 107.94 151.83 108.8 151.83 108.89" style="fill:#f9bc58"/><polygon points="151.83 108.98 123.78 108.12 123.78 108.03 151.83 108.89 151.83 108.98" style="fill:#f9bc57"/><polygon points="151.83 109.07 123.78 108.21 123.78 108.12 151.83 108.98 151.83 109.07" style="fill:#f9bb56"/><polygon points="151.83 109.16 123.78 108.3 123.78 108.21 151.83 109.07 151.83 109.16" style="fill:#f9bb55"/><polygon points="151.83 109.25 123.78 108.39 123.78 108.3 151.83 109.16 151.83 109.25" style="fill:#f9bb54"/><polygon points="151.83 109.34 123.78 108.49 123.78 108.39 151.83 109.25 151.83 109.34" style="fill:#f9ba53"/><polygon points="151.83 109.44 123.78 108.58 123.78 108.49 151.83 109.34 151.83 109.44" style="fill:#f9ba52"/><polygon points="151.83 109.53 123.78 108.67 123.78 108.58 151.83 109.44 151.83 109.53" style="fill:#f9b951"/><polygon points="151.83 109.62 123.78 108.76 123.78 108.67 151.83 109.53 151.83 109.62" style="fill:#f9b950"/><polygon points="151.83 109.71 123.78 108.85 123.78 108.76 151.83 109.62 151.83 109.71" style="fill:#f9b94f"/><polygon points="151.83 109.8 123.78 108.94 123.78 108.85 151.83 109.71 151.83 109.8" style="fill:#f9b84e"/><polygon points="151.83 109.89 123.78 109.03 123.78 108.94 151.83 109.8 151.83 109.89" style="fill:#f9b84d"/><polygon points="151.83 109.98 123.78 109.13 123.78 109.03 151.83 109.89 151.83 109.98" style="fill:#f9b74c"/><polygon points="151.83 110.08 123.78 109.22 123.78 109.13 151.83 109.98 151.83 110.08" style="fill:#f9b74b"/><polygon points="151.83 110.17 123.78 109.31 123.78 109.22 151.83 110.08 151.83 110.17" style="fill:#f9b74a"/><polygon points="151.83 110.26 123.78 109.4 123.78 109.31 151.83 110.17 151.83 110.26" style="fill:#f9b649"/><polygon points="151.83 110.35 123.78 109.49 123.78 109.4 151.83 110.26 151.83 110.35" style="fill:#f9b648"/><polygon points="151.83 110.44 123.78 109.58 123.78 109.49 151.83 110.35 151.83 110.44" style="fill:#f9b547"/><polygon points="151.83 110.53 123.78 109.67 123.78 109.58 151.83 110.44 151.83 110.53" style="fill:#f9b546"/><polygon points="151.83 110.62 123.78 109.77 123.78 109.67 151.83 110.53 151.83 110.62" style="fill:#f9b545"/><polygon points="151.83 110.71 123.78 109.86 123.78 109.77 151.83 110.62 151.83 110.71" style="fill:#f9b444"/><polygon points="151.83 110.81 123.78 109.95 123.78 109.86 151.83 110.71 151.83 110.81" style="fill:#f9b443"/><polygon points="151.83 110.9 123.78 110.04 123.78 109.95 151.83 110.81 151.83 110.9" style="fill:#f9b442"/><polygon points="151.83 110.99 123.78 110.13 123.78 110.04 151.83 110.9 151.83 110.99" style="fill:#f9b341"/><polygon points="151.83 111.08 123.78 110.22 123.78 110.13 151.83 110.99 151.83 111.08" style="fill:#f9b340"/><polygon points="151.83 111.17 123.78 110.31 123.78 110.22 151.83 111.08 151.83 111.17" style="fill:#f8b23f"/><polygon points="151.83 111.26 123.78 110.4 123.78 110.31 151.83 111.17 151.83 111.26" style="fill:#f8b23e"/><polygon points="151.83 111.35 123.78 110.5 123.78 110.4 151.83 111.26 151.83 111.35" style="fill:#f8b23d"/><polygon points="151.83 111.44 123.78 110.59 123.78 110.5 151.83 111.35 151.83 111.44" style="fill:#f8b13c"/><polygon points="151.83 111.54 123.78 110.68 123.78 110.59 151.83 111.44 151.83 111.54" style="fill:#f8b13b"/><polygon points="151.83 111.63 123.78 110.77 123.78 110.68 151.83 111.54 151.83 111.63" style="fill:#f8b03a"/><polygon points="151.83 111.72 123.78 110.86 123.78 110.77 151.83 111.63 151.83 111.72" style="fill:#f8b039"/><polygon points="151.83 111.81 123.78 110.95 123.78 110.86 151.83 111.72 151.83 111.81" style="fill:#f8b038"/><polygon points="151.83 111.9 123.78 111.04 123.78 110.95 151.83 111.81 151.83 111.9" style="fill:#f8af37"/><polygon points="151.83 111.99 123.78 111.14 123.78 111.04 151.83 111.9 151.83 111.99" style="fill:#f8af36"/><polygon points="151.83 112.08 123.78 111.23 123.78 111.14 151.83 111.99 151.83 112.08" style="fill:#f8ae35"/><polygon points="151.83 112.17 123.78 111.32 123.78 111.23 151.83 112.08 151.83 112.17" style="fill:#f8ae34"/><polygon points="151.83 112.27 123.78 111.41 123.78 111.32 151.83 112.17 151.83 112.27" style="fill:#f8ae33"/><polygon points="151.83 112.36 123.78 111.5 123.78 111.41 151.83 112.27 151.83 112.36" style="fill:#f8ad32"/><polygon points="151.83 112.45 123.78 111.59 123.78 111.5 151.83 112.36 151.83 112.45" style="fill:#f8ad31"/><polygon points="151.83 112.54 123.78 111.68 123.78 111.59 151.83 112.45 151.83 112.54" style="fill:#f8ad30"/><polygon points="151.83 112.63 123.78 111.77 123.78 111.68 151.83 112.54 151.83 112.63" style="fill:#f8ac2f"/><polygon points="151.83 112.72 123.78 111.86 123.78 111.77 151.83 112.63 151.83 112.72" style="fill:#f8ac2e"/><polygon points="151.83 112.81 123.78 111.96 123.78 111.86 151.83 112.72 151.83 112.81" style="fill:#f8ab2d"/><polygon points="151.83 112.91 123.78 112.05 123.78 111.96 151.83 112.81 151.83 112.91" style="fill:#f8ab2c"/><polygon points="151.83 113 123.78 112.14 123.78 112.05 151.83 112.91 151.83 113" style="fill:#f8ab2b"/><polygon points="151.83 113.09 123.78 112.23 123.78 112.14 151.83 113 151.83 113.09" style="fill:#f8aa2a"/><polygon points="151.83 113.18 123.78 112.32 123.78 112.23 151.83 113.09 151.83 113.18" style="fill:#f8aa29"/><polygon points="151.83 113.27 123.78 112.41 123.78 112.32 151.83 113.18 151.83 113.27" style="fill:#f8a928"/><polygon points="151.83 113.36 123.78 112.5 123.78 112.41 151.83 113.27 151.83 113.36" style="fill:#f8a927"/><polygon points="151.83 113.45 123.78 112.6 123.78 112.5 151.83 113.36 151.83 113.45" style="fill:#f8a926"/><polygon points="151.83 113.55 123.78 112.69 123.78 112.6 151.83 113.45 151.83 113.55" style="fill:#f8a825"/><polygon points="151.83 113.64 123.78 112.78 123.78 112.69 151.83 113.55 151.83 113.64" style="fill:#f8a824"/><polygon points="151.83 113.73 123.78 112.87 123.78 112.78 151.83 113.64 151.83 113.73" style="fill:#f8a723"/><polygon points="151.83 113.82 123.78 112.96 123.78 112.87 151.83 113.73 151.83 113.82" style="fill:#f8a722"/><polygon points="151.83 113.91 123.78 113.05 123.78 112.96 151.83 113.82 151.83 113.91" style="fill:#f8a721"/><polygon points="151.83 114 123.78 113.14 123.78 113.05 151.83 113.91 151.83 114" style="fill:#f8a620"/><polygon points="151.83 114.09 123.78 113.23 123.78 113.14 151.83 114 151.83 114.09" style="fill:#f8a61f"/><polygon points="151.83 114.18 123.78 113.33 123.78 113.23 151.83 114.09 151.83 114.18" style="fill:#f8a61e"/><polygon points="151.83 114.28 123.78 113.42 123.78 113.33 151.83 114.18 151.83 114.28" style="fill:#f8a51d"/><polygon points="151.83 114.37 123.78 113.51 123.78 113.42 151.83 114.28 151.83 114.37" style="fill:#f8a51c"/><polygon points="151.83 114.46 123.78 113.6 123.78 113.51 151.83 114.37 151.83 114.46" style="fill:#f8a41b"/><polygon points="151.83 114.55 123.78 113.69 123.78 113.6 151.83 114.46 151.83 114.55" style="fill:#f8a41a"/><polygon points="123.78 113.69 151.83 114.55 151.83 115.1 123.78 115.1 123.78 113.69" style="fill:#f8a41a"/></g><path d="M134.31,93.89c-1.31.6-2.61,1.2-3.86,1.9A15.26,15.26,0,0,0,127,98.34a9.6,9.6,0,0,0-2.27,3.53,6.61,6.61,0,0,0-.15,4.1,9.1,9.1,0,0,0,.84,1.92,12.73,12.73,0,0,0,1.16,1.76,13.73,13.73,0,0,0,3.07,2.87,12.35,12.35,0,0,0,8,2.14,18.21,18.21,0,0,0,8-2.53,15.5,15.5,0,0,0,3.28-2.65,12.92,12.92,0,0,0,1.3-1.65,9.42,9.42,0,0,0,1-1.84,7.43,7.43,0,0,0,0-4.13A10.7,10.7,0,0,0,149.69,98a10.27,10.27,0,0,0-3.15-2.82,34.39,34.39,0,0,0-3.86-1.88A28.77,28.77,0,0,1,146.62,95a10.42,10.42,0,0,1,3.31,2.78,10.74,10.74,0,0,1,1.72,4,14.28,14.28,0,0,1,.34,2.16,5.39,5.39,0,0,1-.3,2.21,9.81,9.81,0,0,1-1,2,13.19,13.19,0,0,1-1.35,1.73,16.32,16.32,0,0,1-3.37,2.77,18.72,18.72,0,0,1-4,1.81,18.33,18.33,0,0,1-4.29.85,14.56,14.56,0,0,1-2.19,0c-.37-.06-.74-.08-1.1-.16l-.54-.11-.53-.14a13.42,13.42,0,0,1-4-1.86,14.2,14.2,0,0,1-3.18-3,11.67,11.67,0,0,1-2-3.87,6.88,6.88,0,0,1-.23-2.21,7.87,7.87,0,0,1,.47-2.15,10,10,0,0,1,2.42-3.62,15.74,15.74,0,0,1,3.54-2.47C131.65,95,133,94.43,134.31,93.89Z"/><g style="clip-path:url(#b)"><polygon points="133.36 91.84 141.69 91.73 141.69 93.63 133.36 93.63 133.36 91.84" style="fill:#fbfbfb"/><polygon points="133.36 91.67 141.69 91.56 141.69 91.73 133.36 91.84 133.36 91.67" style="fill:#fbfbfb"/><polygon points="133.36 91.49 141.69 91.38 141.69 91.56 133.36 91.67 133.36 91.49" style="fill:#fbfbfa"/><polygon points="133.36 91.31 141.69 91.2 141.69 91.38 133.36 91.49 133.36 91.31" style="fill:#fbfaf9"/><polygon points="133.36 91.13 141.69 91.03 141.69 91.2 133.36 91.31 133.36 91.13" style="fill:#fbfaf8"/><polygon points="133.36 90.96 141.69 90.85 141.69 91.03 133.36 91.13 133.36 90.96" style="fill:#fbf9f7"/><polygon points="133.36 90.78 141.69 90.67 141.69 90.85 133.36 90.96 133.36 90.78" style="fill:#fbf9f6"/><polygon points="133.36 90.6 141.69 90.49 141.69 90.67 133.36 90.78 133.36 90.6" style="fill:#fbf9f5"/><polygon points="133.36 90.43 141.69 90.32 141.69 90.49 133.36 90.6 133.36 90.43" style="fill:#fbf8f4"/><polygon points="133.36 90.25 141.69 90.14 141.69 90.32 133.36 90.43 133.36 90.25" style="fill:#fbf8f3"/><polygon points="133.36 90.07 141.69 89.96 141.69 90.14 133.36 90.25 133.36 90.07" style="fill:#fbf8f2"/><polygon points="133.36 89.9 141.69 89.79 141.69 89.96 133.36 90.07 133.36 89.9" style="fill:#fbf7f1"/><polygon points="133.36 89.72 141.69 89.61 141.69 89.79 133.36 89.9 133.36 89.72" style="fill:#fbf7f0"/><polygon points="133.36 89.54 141.69 89.43 141.69 89.61 133.36 89.72 133.36 89.54" style="fill:#fbf6ef"/><polygon points="133.36 89.36 141.69 89.26 141.69 89.43 133.36 89.54 133.36 89.36" style="fill:#fbf6ee"/><polygon points="133.36 89.19 141.69 89.08 141.69 89.26 133.36 89.36 133.36 89.19" style="fill:#fbf6ed"/><polygon points="133.36 89.01 141.69 88.9 141.69 89.08 133.36 89.19 133.36 89.01" style="fill:#fbf5ec"/><polygon points="133.36 88.83 141.69 88.72 141.69 88.9 133.36 89.01 133.36 88.83" style="fill:#fbf5eb"/><polygon points="133.36 88.66 141.69 88.55 141.69 88.72 133.36 88.83 133.36 88.66" style="fill:#fbf4ea"/><polygon points="133.36 88.48 141.69 88.37 141.69 88.55 133.36 88.66 133.36 88.48" style="fill:#fbf4e9"/><polygon points="133.36 88.3 141.69 88.19 141.69 88.37 133.36 88.48 133.36 88.3" style="fill:#fbf4e8"/><polygon points="133.36 88.13 141.69 88.02 141.69 88.19 133.36 88.3 133.36 88.13" style="fill:#fbf3e7"/><polygon points="133.36 87.95 141.69 87.84 141.69 88.02 133.36 88.13 133.36 87.95" style="fill:#fbf3e6"/><polygon points="133.36 87.77 141.69 87.66 141.69 87.84 133.36 87.95 133.36 87.77" style="fill:#fbf2e5"/><polygon points="133.36 87.6 141.69 87.49 141.69 87.66 133.36 87.77 133.36 87.6" style="fill:#fbf2e4"/><polygon points="133.36 87.42 141.69 87.31 141.69 87.49 133.36 87.6 133.36 87.42" style="fill:#fbf2e3"/><polygon points="133.36 87.24 141.69 87.13 141.69 87.31 133.36 87.42 133.36 87.24" style="fill:#fbf1e2"/><polygon points="133.36 87.06 141.69 86.96 141.69 87.13 133.36 87.24 133.36 87.06" style="fill:#fbf1e1"/><polygon points="133.36 86.89 141.69 86.78 141.69 86.96 133.36 87.06 133.36 86.89" style="fill:#fbf1e0"/><polygon points="133.36 86.71 141.69 86.6 141.69 86.78 133.36 86.89 133.36 86.71" style="fill:#fbf0df"/><polygon points="133.36 86.53 141.69 86.42 141.69 86.6 133.36 86.71 133.36 86.53" style="fill:#fbf0de"/><polygon points="133.36 86.36 141.69 86.25 141.69 86.42 133.36 86.53 133.36 86.36" style="fill:#fbefdd"/><polygon points="133.36 86.18 141.69 86.07 141.69 86.25 133.36 86.36 133.36 86.18" style="fill:#fbefdc"/><polygon points="133.36 86 141.69 85.89 141.69 86.07 133.36 86.18 133.36 86" style="fill:#fbefdb"/><polygon points="133.36 85.83 141.69 85.72 141.69 85.89 133.36 86 133.36 85.83" style="fill:#fbeeda"/><polygon points="133.36 85.65 141.69 85.54 141.69 85.72 133.36 85.83 133.36 85.65" style="fill:#fbeed9"/><polygon points="133.36 85.47 141.69 85.36 141.69 85.54 133.36 85.65 133.36 85.47" style="fill:#fbedd8"/><polygon points="133.36 85.3 141.69 85.19 141.69 85.36 133.36 85.47 133.36 85.3" style="fill:#fbedd7"/><polygon points="133.36 85.12 141.69 85.01 141.69 85.19 133.36 85.3 133.36 85.12" style="fill:#fbedd6"/><polygon points="133.36 84.94 141.69 84.83 141.69 85.01 133.36 85.12 133.36 84.94" style="fill:#faecd5"/><polygon points="133.36 84.77 141.69 84.66 141.69 84.83 133.36 84.94 133.36 84.77" style="fill:#faecd4"/><polygon points="133.36 84.59 141.69 84.48 141.69 84.66 133.36 84.77 133.36 84.59" style="fill:#faebd3"/><polygon points="133.36 84.41 141.69 84.3 141.69 84.48 133.36 84.59 133.36 84.41" style="fill:#faebd2"/><polygon points="133.36 84.23 141.69 84.13 141.69 84.3 133.36 84.41 133.36 84.23" style="fill:#faebd1"/><polygon points="133.36 84.06 141.69 83.95 141.69 84.13 133.36 84.23 133.36 84.06" style="fill:#faead0"/><polygon points="133.36 83.88 141.69 83.77 141.69 83.95 133.36 84.06 133.36 83.88" style="fill:#faeacf"/><polygon points="133.36 83.7 141.69 83.59 141.69 83.77 133.36 83.88 133.36 83.7" style="fill:#faeace"/><polygon points="133.36 83.53 141.69 83.42 141.69 83.59 133.36 83.7 133.36 83.53" style="fill:#fae9cd"/><polygon points="133.36 83.35 141.69 83.24 141.69 83.42 133.36 83.53 133.36 83.35" style="fill:#fae9cc"/><polygon points="133.36 83.17 141.69 83.06 141.69 83.24 133.36 83.35 133.36 83.17" style="fill:#fae8cb"/><polygon points="133.36 83 141.69 82.89 141.69 83.06 133.36 83.17 133.36 83" style="fill:#fae8ca"/><polygon points="133.36 82.82 141.69 82.71 141.69 82.89 133.36 83 133.36 82.82" style="fill:#fae8c9"/><polygon points="133.36 82.64 141.69 82.53 141.69 82.71 133.36 82.82 133.36 82.64" style="fill:#fae7c8"/><polygon points="133.36 82.47 141.69 82.36 141.69 82.53 133.36 82.64 133.36 82.47" style="fill:#fae7c7"/><polygon points="133.36 82.29 141.69 82.18 141.69 82.36 133.36 82.47 133.36 82.29" style="fill:#fae6c6"/><polygon points="133.36 82.11 141.69 82 141.69 82.18 133.36 82.29 133.36 82.11" style="fill:#fae6c5"/><polygon points="133.36 81.94 141.69 81.83 141.69 82 133.36 82.11 133.36 81.94" style="fill:#fae6c4"/><polygon points="133.36 81.76 141.69 81.65 141.69 81.83 133.36 81.94 133.36 81.76" style="fill:#fae5c3"/><polygon points="133.36 81.58 141.69 81.47 141.69 81.65 133.36 81.76 133.36 81.58" style="fill:#fae5c2"/><polygon points="133.36 81.41 141.69 81.3 141.69 81.47 133.36 81.58 133.36 81.41" style="fill:#fae4c1"/><polygon points="133.36 81.23 141.69 81.12 141.69 81.3 133.36 81.41 133.36 81.23" style="fill:#fae4c0"/><polygon points="133.36 81.05 141.69 80.94 141.69 81.12 133.36 81.23 133.36 81.05" style="fill:#fae4bf"/><polygon points="133.36 80.87 141.69 80.77 141.69 80.94 133.36 81.05 133.36 80.87" style="fill:#fae3be"/><polygon points="133.36 80.7 141.69 80.59 141.69 80.77 133.36 80.87 133.36 80.7" style="fill:#fae3bd"/><polygon points="133.36 80.52 141.69 80.41 141.69 80.59 133.36 80.7 133.36 80.52" style="fill:#fae3bc"/><polygon points="133.36 80.34 141.69 80.23 141.69 80.41 133.36 80.52 133.36 80.34" style="fill:#fae2bb"/><polygon points="133.36 80.17 141.69 80.06 141.69 80.23 133.36 80.34 133.36 80.17" style="fill:#fae2ba"/><polygon points="133.36 79.99 141.69 79.88 141.69 80.06 133.36 80.17 133.36 79.99" style="fill:#fae1b9"/><polygon points="133.36 79.81 141.69 79.7 141.69 79.88 133.36 79.99 133.36 79.81" style="fill:#fae1b8"/><polygon points="133.36 79.64 141.69 79.53 141.69 79.7 133.36 79.81 133.36 79.64" style="fill:#fae1b7"/><polygon points="133.36 79.46 141.69 79.35 141.69 79.53 133.36 79.64 133.36 79.46" style="fill:#fae0b6"/><polygon points="133.36 79.28 141.69 79.17 141.69 79.35 133.36 79.46 133.36 79.28" style="fill:#fae0b5"/><polygon points="133.36 79.11 141.69 79 141.69 79.17 133.36 79.28 133.36 79.11" style="fill:#fadfb4"/><polygon points="133.36 78.93 141.69 78.82 141.69 79 133.36 79.11 133.36 78.93" style="fill:#fadfb3"/><polygon points="133.36 78.75 141.69 78.64 141.69 78.82 133.36 78.93 133.36 78.75" style="fill:#fadfb2"/><polygon points="133.36 78.57 141.69 78.47 141.69 78.64 133.36 78.75 133.36 78.57" style="fill:#fadeb1"/><polygon points="133.36 78.4 141.69 78.29 141.69 78.47 133.36 78.57 133.36 78.4" style="fill:#fadeb0"/><polygon points="133.36 78.22 141.69 78.11 141.69 78.29 133.36 78.4 133.36 78.22" style="fill:#faddaf"/><polygon points="133.36 78.04 141.69 77.93 141.69 78.11 133.36 78.22 133.36 78.04" style="fill:#faddae"/><polygon points="133.36 77.87 141.69 77.76 141.69 77.93 133.36 78.04 133.36 77.87" style="fill:#faddad"/><polygon points="133.36 77.69 141.69 77.58 141.69 77.76 133.36 77.87 133.36 77.69" style="fill:#fadcac"/><polygon points="133.36 77.51 141.69 77.4 141.69 77.58 133.36 77.69 133.36 77.51" style="fill:#fadcab"/><polygon points="133.36 77.34 141.69 77.23 141.69 77.4 133.36 77.51 133.36 77.34" style="fill:#fadcaa"/><polygon points="133.36 77.16 141.69 77.05 141.69 77.23 133.36 77.34 133.36 77.16" style="fill:#fadba9"/><polygon points="133.36 76.98 141.69 76.87 141.69 77.05 133.36 77.16 133.36 76.98" style="fill:#fadba8"/><polygon points="133.36 76.81 141.69 76.7 141.69 76.87 133.36 76.98 133.36 76.81" style="fill:#fadaa7"/><polygon points="133.36 76.63 141.69 76.52 141.69 76.7 133.36 76.81 133.36 76.63" style="fill:#fadaa6"/><polygon points="133.36 76.45 141.69 76.34 141.69 76.52 133.36 76.63 133.36 76.45" style="fill:#fadaa5"/><polygon points="133.36 76.27 141.69 76.17 141.69 76.34 133.36 76.45 133.36 76.27" style="fill:#fad9a4"/><polygon points="133.36 76.1 141.69 75.99 141.69 76.17 133.36 76.27 133.36 76.1" style="fill:#fad9a3"/><polygon points="133.36 75.92 141.69 75.81 141.69 75.99 133.36 76.1 133.36 75.92" style="fill:#fad8a2"/><polygon points="133.36 75.74 141.69 75.64 141.69 75.81 133.36 75.92 133.36 75.74" style="fill:#fad8a1"/><polygon points="133.36 75.57 141.69 75.46 141.69 75.64 133.36 75.74 133.36 75.57" style="fill:#fad8a0"/><polygon points="133.36 75.39 141.69 75.28 141.69 75.46 133.36 75.57 133.36 75.39" style="fill:#fad79f"/><polygon points="133.36 75.21 141.69 75.1 141.69 75.28 133.36 75.39 133.36 75.21" style="fill:#fad79e"/><polygon points="133.36 75.04 141.69 74.93 141.69 75.1 133.36 75.21 133.36 75.04" style="fill:#fad69d"/><polygon points="133.36 74.86 141.69 74.75 141.69 74.93 133.36 75.04 133.36 74.86" style="fill:#fad69c"/><polygon points="133.36 74.68 141.69 74.57 141.69 74.75 133.36 74.86 133.36 74.68" style="fill:#fad69b"/><polygon points="133.36 74.51 141.69 74.4 141.69 74.57 133.36 74.68 133.36 74.51" style="fill:#fad59a"/><polygon points="133.36 74.33 141.69 74.22 141.69 74.4 133.36 74.51 133.36 74.33" style="fill:#fad599"/><polygon points="133.36 74.15 141.69 74.04 141.69 74.22 133.36 74.33 133.36 74.15" style="fill:#fad598"/><polygon points="133.36 73.97 141.69 73.87 141.69 74.04 133.36 74.15 133.36 73.97" style="fill:#fad497"/><polygon points="133.36 73.8 141.69 73.69 141.69 73.87 133.36 73.97 133.36 73.8" style="fill:#fad496"/><polygon points="133.36 73.62 141.69 73.51 141.69 73.69 133.36 73.8 133.36 73.62" style="fill:#fad395"/><polygon points="133.36 73.44 141.69 73.33 141.69 73.51 133.36 73.62 133.36 73.44" style="fill:#fad394"/><polygon points="133.36 73.27 141.69 73.16 141.69 73.33 133.36 73.44 133.36 73.27" style="fill:#fad393"/><polygon points="133.36 73.09 141.69 72.98 141.69 73.16 133.36 73.27 133.36 73.09" style="fill:#fad292"/><polygon points="133.36 72.91 141.69 72.8 141.69 72.98 133.36 73.09 133.36 72.91" style="fill:#fad291"/><polygon points="133.36 72.74 141.69 72.63 141.69 72.8 133.36 72.91 133.36 72.74" style="fill:#fad190"/><polygon points="133.36 72.56 141.69 72.45 141.69 72.63 133.36 72.74 133.36 72.56" style="fill:#fad18f"/><polygon points="133.36 72.38 141.69 72.27 141.69 72.45 133.36 72.56 133.36 72.38" style="fill:#fad18e"/><polygon points="133.36 72.21 141.69 72.1 141.69 72.27 133.36 72.38 133.36 72.21" style="fill:#fad08d"/><polygon points="133.36 72.03 141.69 71.92 141.69 72.1 133.36 72.21 133.36 72.03" style="fill:#fad08c"/><polygon points="133.36 71.85 141.69 71.74 141.69 71.92 133.36 72.03 133.36 71.85" style="fill:#fad08b"/><polygon points="133.36 71.67 141.69 71.57 141.69 71.74 133.36 71.85 133.36 71.67" style="fill:#f9cf89"/><polygon points="133.36 71.5 141.69 71.39 141.69 71.57 133.36 71.67 133.36 71.5" style="fill:#f9cf88"/><polygon points="133.36 71.32 141.69 71.21 141.69 71.39 133.36 71.5 133.36 71.32" style="fill:#f9ce87"/><polygon points="133.36 71.14 141.69 71.03 141.69 71.21 133.36 71.32 133.36 71.14" style="fill:#f9ce86"/><polygon points="133.36 70.97 141.69 70.86 141.69 71.03 133.36 71.14 133.36 70.97" style="fill:#f9ce85"/><polygon points="133.36 70.79 141.69 70.68 141.69 70.86 133.36 70.97 133.36 70.79" style="fill:#f9cd84"/><polygon points="133.36 70.61 141.69 70.5 141.69 70.68 133.36 70.79 133.36 70.61" style="fill:#f9cd83"/><polygon points="133.36 70.44 141.69 70.33 141.69 70.5 133.36 70.61 133.36 70.44" style="fill:#f9cc82"/><polygon points="133.36 70.26 141.69 70.15 141.69 70.33 133.36 70.44 133.36 70.26" style="fill:#f9cc81"/><polygon points="133.36 70.08 141.69 69.97 141.69 70.15 133.36 70.26 133.36 70.08" style="fill:#f9cc80"/><polygon points="133.36 69.91 141.69 69.8 141.69 69.97 133.36 70.08 133.36 69.91" style="fill:#f9cb7f"/><polygon points="133.36 69.73 141.69 69.62 141.69 69.8 133.36 69.91 133.36 69.73" style="fill:#f9cb7e"/><polygon points="133.36 69.55 141.69 69.44 141.69 69.62 133.36 69.73 133.36 69.55" style="fill:#f9ca7d"/><polygon points="133.36 69.38 141.69 69.27 141.69 69.44 133.36 69.55 133.36 69.38" style="fill:#f9ca7c"/><polygon points="133.36 69.2 141.69 69.09 141.69 69.27 133.36 69.38 133.36 69.2" style="fill:#f9ca7b"/><polygon points="133.36 69.02 141.69 68.91 141.69 69.09 133.36 69.2 133.36 69.02" style="fill:#f9c97a"/><polygon points="133.36 68.84 141.69 68.74 141.69 68.91 133.36 69.02 133.36 68.84" style="fill:#f9c979"/><polygon points="133.36 68.67 141.69 68.56 141.69 68.74 133.36 68.84 133.36 68.67" style="fill:#f9c978"/><polygon points="133.36 68.49 141.69 68.38 141.69 68.56 133.36 68.67 133.36 68.49" style="fill:#f9c877"/><polygon points="133.36 68.31 141.69 68.2 141.69 68.38 133.36 68.49 133.36 68.31" style="fill:#f9c876"/><polygon points="133.36 68.14 141.69 68.03 141.69 68.2 133.36 68.31 133.36 68.14" style="fill:#f9c775"/><polygon points="133.36 67.96 141.69 67.85 141.69 68.03 133.36 68.14 133.36 67.96" style="fill:#f9c774"/><polygon points="133.36 67.78 141.69 67.67 141.69 67.85 133.36 67.96 133.36 67.78" style="fill:#f9c773"/><polygon points="133.36 67.61 141.69 67.5 141.69 67.67 133.36 67.78 133.36 67.61" style="fill:#f9c672"/><polygon points="133.36 67.43 141.69 67.32 141.69 67.5 133.36 67.61 133.36 67.43" style="fill:#f9c671"/><polygon points="133.36 67.25 141.69 67.14 141.69 67.32 133.36 67.43 133.36 67.25" style="fill:#f9c570"/><polygon points="133.36 67.08 141.69 66.97 141.69 67.14 133.36 67.25 133.36 67.08" style="fill:#f9c56f"/><polygon points="133.36 66.9 141.69 66.79 141.69 66.97 133.36 67.08 133.36 66.9" style="fill:#f9c56e"/><polygon points="133.36 66.72 141.69 66.61 141.69 66.79 133.36 66.9 133.36 66.72" style="fill:#f9c46d"/><polygon points="133.36 66.55 141.69 66.44 141.69 66.61 133.36 66.72 133.36 66.55" style="fill:#f9c46c"/><polygon points="133.36 66.37 141.69 66.26 141.69 66.44 133.36 66.55 133.36 66.37" style="fill:#f9c36b"/><polygon points="133.36 66.19 141.69 66.08 141.69 66.26 133.36 66.37 133.36 66.19" style="fill:#f9c36a"/><polygon points="133.36 66.01 141.69 65.91 141.69 66.08 133.36 66.19 133.36 66.01" style="fill:#f9c369"/><polygon points="133.36 65.84 141.69 65.73 141.69 65.91 133.36 66.01 133.36 65.84" style="fill:#f9c268"/><polygon points="133.36 65.66 141.69 65.55 141.69 65.73 133.36 65.84 133.36 65.66" style="fill:#f9c267"/><polygon points="133.36 65.48 141.69 65.37 141.69 65.55 133.36 65.66 133.36 65.48" style="fill:#f9c266"/><polygon points="133.36 65.31 141.69 65.2 141.69 65.37 133.36 65.48 133.36 65.31" style="fill:#f9c165"/><polygon points="133.36 65.13 141.69 65.02 141.69 65.2 133.36 65.31 133.36 65.13" style="fill:#f9c164"/><polygon points="133.36 64.95 141.69 64.84 141.69 65.02 133.36 65.13 133.36 64.95" style="fill:#f9c063"/><polygon points="133.36 64.78 141.69 64.67 141.69 64.84 133.36 64.95 133.36 64.78" style="fill:#f9c062"/><polygon points="133.36 64.6 141.69 64.49 141.69 64.67 133.36 64.78 133.36 64.6" style="fill:#f9c061"/><polygon points="133.36 64.42 141.69 64.31 141.69 64.49 133.36 64.6 133.36 64.42" style="fill:#f9bf60"/><polygon points="133.36 64.25 141.69 64.14 141.69 64.31 133.36 64.42 133.36 64.25" style="fill:#f9bf5f"/><polygon points="133.36 64.07 141.69 63.96 141.69 64.14 133.36 64.25 133.36 64.07" style="fill:#f9be5e"/><polygon points="133.36 63.89 141.69 63.78 141.69 63.96 133.36 64.07 133.36 63.89" style="fill:#f9be5d"/><polygon points="133.36 63.72 141.69 63.61 141.69 63.78 133.36 63.89 133.36 63.72" style="fill:#f9be5c"/><polygon points="133.36 63.54 141.69 63.43 141.69 63.61 133.36 63.72 133.36 63.54" style="fill:#f9bd5b"/><polygon points="133.36 63.36 141.69 63.25 141.69 63.43 133.36 63.54 133.36 63.36" style="fill:#f9bd5a"/><polygon points="133.36 63.18 141.69 63.08 141.69 63.25 133.36 63.36 133.36 63.18" style="fill:#f9bc59"/><polygon points="133.36 63.01 141.69 62.9 141.69 63.08 133.36 63.18 133.36 63.01" style="fill:#f9bc58"/><polygon points="133.36 62.83 141.69 62.72 141.69 62.9 133.36 63.01 133.36 62.83" style="fill:#f9bc57"/><polygon points="133.36 62.65 141.69 62.54 141.69 62.72 133.36 62.83 133.36 62.65" style="fill:#f9bb56"/><polygon points="133.36 62.48 141.69 62.37 141.69 62.54 133.36 62.65 133.36 62.48" style="fill:#f9bb55"/><polygon points="133.36 62.3 141.69 62.19 141.69 62.37 133.36 62.48 133.36 62.3" style="fill:#f9bb54"/><polygon points="133.36 62.12 141.69 62.01 141.69 62.19 133.36 62.3 133.36 62.12" style="fill:#f9ba53"/><polygon points="133.36 61.95 141.69 61.84 141.69 62.01 133.36 62.12 133.36 61.95" style="fill:#f9ba52"/><polygon points="133.36 61.77 141.69 61.66 141.69 61.84 133.36 61.95 133.36 61.77" style="fill:#f9b951"/><polygon points="133.36 61.59 141.69 61.48 141.69 61.66 133.36 61.77 133.36 61.59" style="fill:#f9b950"/><polygon points="133.36 61.41 141.69 61.31 141.69 61.48 133.36 61.59 133.36 61.41" style="fill:#f9b94f"/><polygon points="133.36 61.24 141.69 61.13 141.69 61.31 133.36 61.41 133.36 61.24" style="fill:#f9b84e"/><polygon points="133.36 61.06 141.69 60.95 141.69 61.13 133.36 61.24 133.36 61.06" style="fill:#f9b84d"/><polygon points="133.36 60.88 141.69 60.77 141.69 60.95 133.36 61.06 133.36 60.88" style="fill:#f9b74c"/><polygon points="133.36 60.71 141.69 60.6 141.69 60.77 133.36 60.88 133.36 60.71" style="fill:#f9b74b"/><polygon points="133.36 60.53 141.69 60.42 141.69 60.6 133.36 60.71 133.36 60.53" style="fill:#f9b74a"/><polygon points="133.36 60.35 141.69 60.24 141.69 60.42 133.36 60.53 133.36 60.35" style="fill:#f9b649"/><polygon points="133.36 60.18 141.69 60.07 141.69 60.24 133.36 60.35 133.36 60.18" style="fill:#f9b648"/><polygon points="133.36 60 141.69 59.89 141.69 60.07 133.36 60.18 133.36 60" style="fill:#f9b547"/><polygon points="133.36 59.82 141.69 59.71 141.69 59.89 133.36 60 133.36 59.82" style="fill:#f9b546"/><polygon points="133.36 59.65 141.69 59.54 141.69 59.71 133.36 59.82 133.36 59.65" style="fill:#f9b545"/><polygon points="133.36 59.47 141.69 59.36 141.69 59.54 133.36 59.65 133.36 59.47" style="fill:#f9b444"/><polygon points="133.36 59.29 141.69 59.18 141.69 59.36 133.36 59.47 133.36 59.29" style="fill:#f9b443"/><polygon points="133.36 59.12 141.69 59.01 141.69 59.18 133.36 59.29 133.36 59.12" style="fill:#f9b442"/><polygon points="133.36 58.94 141.69 58.83 141.69 59.01 133.36 59.12 133.36 58.94" style="fill:#f9b341"/><polygon points="133.36 58.76 141.69 58.65 141.69 58.83 133.36 58.94 133.36 58.76" style="fill:#f9b340"/><polygon points="133.36 58.59 141.69 58.48 141.69 58.65 133.36 58.76 133.36 58.59" style="fill:#f8b23f"/><polygon points="133.36 58.41 141.69 58.3 141.69 58.48 133.36 58.59 133.36 58.41" style="fill:#f8b23e"/><polygon points="133.36 58.23 141.69 58.12 141.69 58.3 133.36 58.41 133.36 58.23" style="fill:#f8b23d"/><polygon points="133.36 58.05 141.69 57.95 141.69 58.12 133.36 58.23 133.36 58.05" style="fill:#f8b13c"/><polygon points="133.36 57.88 141.69 57.77 141.69 57.95 133.36 58.05 133.36 57.88" style="fill:#f8b13b"/><polygon points="133.36 57.7 141.69 57.59 141.69 57.77 133.36 57.88 133.36 57.7" style="fill:#f8b03a"/><polygon points="133.36 57.52 141.69 57.41 141.69 57.59 133.36 57.7 133.36 57.52" style="fill:#f8b039"/><polygon points="133.36 57.35 141.69 57.24 141.69 57.41 133.36 57.52 133.36 57.35" style="fill:#f8b038"/><polygon points="133.36 57.17 141.69 57.06 141.69 57.24 133.36 57.35 133.36 57.17" style="fill:#f8af37"/><polygon points="133.36 56.99 141.69 56.88 141.69 57.06 133.36 57.17 133.36 56.99" style="fill:#f8af36"/><polygon points="133.36 56.82 141.69 56.71 141.69 56.88 133.36 56.99 133.36 56.82" style="fill:#f8ae35"/><polygon points="133.36 56.64 141.69 56.53 141.69 56.71 133.36 56.82 133.36 56.64" style="fill:#f8ae34"/><polygon points="133.36 56.46 141.69 56.35 141.69 56.53 133.36 56.64 133.36 56.46" style="fill:#f8ae33"/><polygon points="133.36 56.28 141.69 56.18 141.69 56.35 133.36 56.46 133.36 56.28" style="fill:#f8ad32"/><polygon points="133.36 56.11 141.69 56 141.69 56.18 133.36 56.28 133.36 56.11" style="fill:#f8ad31"/><polygon points="133.36 55.93 141.69 55.82 141.69 56 133.36 56.11 133.36 55.93" style="fill:#f8ad30"/><polygon points="133.36 55.75 141.69 55.65 141.69 55.82 133.36 55.93 133.36 55.75" style="fill:#f8ac2f"/><polygon points="133.36 55.58 141.69 55.47 141.69 55.65 133.36 55.75 133.36 55.58" style="fill:#f8ac2e"/><polygon points="133.36 55.4 141.69 55.29 141.69 55.47 133.36 55.58 133.36 55.4" style="fill:#f8ab2d"/><polygon points="133.36 55.22 141.69 55.11 141.69 55.29 133.36 55.4 133.36 55.22" style="fill:#f8ab2c"/><polygon points="133.36 55.05 141.69 54.94 141.69 55.11 133.36 55.22 133.36 55.05" style="fill:#f8ab2b"/><polygon points="133.36 54.87 141.69 54.76 141.69 54.94 133.36 55.05 133.36 54.87" style="fill:#f8aa2a"/><polygon points="133.36 54.69 141.69 54.58 141.69 54.76 133.36 54.87 133.36 54.69" style="fill:#f8aa29"/><polygon points="133.36 54.52 141.69 54.41 141.69 54.58 133.36 54.69 133.36 54.52" style="fill:#f8a928"/><polygon points="133.36 54.34 141.69 54.23 141.69 54.41 133.36 54.52 133.36 54.34" style="fill:#f8a927"/><polygon points="133.36 54.16 141.69 54.05 141.69 54.23 133.36 54.34 133.36 54.16" style="fill:#f8a926"/><polygon points="133.36 53.98 141.42 53.88 141.69 53.88 141.69 54.05 133.36 54.16 133.36 53.98" style="fill:#f8a825"/><polygon points="141.42 53.88 133.36 53.98 133.36 53.88 141.42 53.88" style="fill:#f8a824"/></g><path d="M139.71,92.7c0-1.12,0-2.25,0-3.38s.15-2.25.25-3.37a4,4,0,0,1,.37-1.68c.16-.27.35-.47.46-.71a3,3,0,0,0,.3-.75,3.06,3.06,0,0,0-.87-2.94,3.88,3.88,0,0,0-.31-.26,1.5,1.5,0,0,1-.36-.3.52.52,0,0,1-.11-.27c0-.09,0-.16,0-.23l0-.42c0-.56-.07-1.13-.1-1.69-.05-1.13-.07-2.26-.05-3.4,0-.56,0-1.13,0-1.69a12.72,12.72,0,0,1,.14-1.72,4,4,0,0,1,.64-1.66,2.6,2.6,0,0,1,1.5-1.08l-.12.46a4.69,4.69,0,0,1-1.44-4,4.54,4.54,0,0,1,.29-1.08,7.86,7.86,0,0,1,.5-1,3.49,3.49,0,0,0,.37-.9,3.93,3.93,0,0,0,.13-1,18,18,0,0,0-.11-2,5.81,5.81,0,0,0-.46-1.93,2.39,2.39,0,0,0-1.31-1.27,4.64,4.64,0,0,0-1.94-.13,4.78,4.78,0,0,0-1.9.51,2.66,2.66,0,0,0-1.19,1.42,10.25,10.25,0,0,0-.5,2,8.73,8.73,0,0,0-.18,2c.05,1.32.81,2.58,1,4.06a6.21,6.21,0,0,1-1.08,4.16l-.18-.41A2.29,2.29,0,0,1,135,69a3.3,3.3,0,0,1,.64,1.63,8.62,8.62,0,0,1,0,1.68c0,.54,0,1.1,0,1.65-.09,2.2-.3,4.38-.29,6.56l.06,6.58,0,6.58-.23-6.58c-.07-2.19-.15-4.38-.2-6.57s.13-4.4.18-6.59c0-.54,0-1.08,0-1.64a9.4,9.4,0,0,0-.06-1.6,3,3,0,0,0-.57-1.39,1.78,1.78,0,0,0-1.18-.74l-.44,0,.25-.36a5.71,5.71,0,0,0,1-3.8c-.12-1.33-.9-2.58-1-4.09a9.51,9.51,0,0,1,.18-2.15,11.71,11.71,0,0,1,.52-2.1,3.74,3.74,0,0,1,.57-1,2.85,2.85,0,0,1,.88-.74,6.34,6.34,0,0,1,4.34-.43,2.57,2.57,0,0,1,1,.64,3.52,3.52,0,0,1,.65.94,6.31,6.31,0,0,1,.51,2.13,16.77,16.77,0,0,1,.1,2.14,4.54,4.54,0,0,1-.15,1.09,4.14,4.14,0,0,1-.43,1,7.29,7.29,0,0,0-.48.91,3.62,3.62,0,0,0-.25.94,4.09,4.09,0,0,0,1.24,3.57l.38.35-.49.11a2,2,0,0,0-1.19.86,3.57,3.57,0,0,0-.58,1.45,12.64,12.64,0,0,0-.16,1.65c0,.56-.05,1.12-.07,1.68,0,1.13,0,2.25,0,3.37,0,.56,0,1.12.07,1.68l0,.43a1.15,1.15,0,0,0,0,.19.34.34,0,0,0,0,.12,1.32,1.32,0,0,0,.29.23c.12.09.23.19.34.29a3.47,3.47,0,0,1,.89,1.51,3.25,3.25,0,0,1,0,1.75,3.57,3.57,0,0,1-.34.81c-.14.26-.35.47-.48.69a3.84,3.84,0,0,0-.39,1.58A60.89,60.89,0,0,0,139.71,92.7Z"/><rect x="138.47" y="73.82" width="0.31" height="34.54"/><rect x="137.24" y="73.97" width="0.31" height="34.54"/><rect x="136.33" y="73.97" width="0.31" height="34.54"/><path d="M132.33,106.71a3,3,0,0,0,.86,1,4,4,0,0,0,1.15.61,7.6,7.6,0,0,0,2.59.37,6.55,6.55,0,0,0,2.54-.59,6.12,6.12,0,0,0,1.13-.67,6.49,6.49,0,0,0,1-.92,5.34,5.34,0,0,1-.87,1,5.78,5.78,0,0,1-1.13.77,6,6,0,0,1-2.63.68,6.81,6.81,0,0,1-2.68-.45,4.31,4.31,0,0,1-1.16-.71A2.82,2.82,0,0,1,132.33,106.71Z"/><path d="M139.3,101.57h-.05c-.19,0-.29-.23-.28-.54l.23-6.46-.13-2.2h.15c0-.17,0-.34,0-.5l.15,0a15.94,15.94,0,0,1,0,2.29l0,.44.16,2.74a1.1,1.1,0,0,0,.08.4,1,1,0,0,0,.52.38,2.16,2.16,0,0,1,.37.19,1.56,1.56,0,0,1,.29,1.9,2.83,2.83,0,0,1-1.24,1.32A.48.48,0,0,1,139.3,101.57Zm0-5.35-.16,4.82c0,.08,0,.35.15.38s.1,0,.17,0a2.67,2.67,0,0,0,1.18-1.26,1.4,1.4,0,0,0-.24-1.7,1.92,1.92,0,0,0-.35-.18,1.13,1.13,0,0,1-.59-.46,1.17,1.17,0,0,1-.09-.45Z"/><path d="M135.74,101.57a.48.48,0,0,1-.23-.07,2.83,2.83,0,0,1-1.24-1.32,1.56,1.56,0,0,1,.29-1.9,2.16,2.16,0,0,1,.37-.19,1,1,0,0,0,.52-.38,1.1,1.1,0,0,0,.08-.4l.16-2.74,0-.44a15.94,15.94,0,0,1,0-2.29l.15,0c0,.16,0,.33,0,.5H136l-.13,2.2.23,6.46c0,.31-.09.51-.28.54Zm0-5.35-.07,1.1a1.17,1.17,0,0,1-.09.45,1.13,1.13,0,0,1-.59.46,1.92,1.92,0,0,0-.35.18,1.4,1.4,0,0,0-.24,1.7,2.67,2.67,0,0,0,1.18,1.26c.07,0,.12.06.17,0s.16-.3.15-.38Z"/><path d="M133.85,31.73A6.36,6.36,0,1,1,140.21,38,6.28,6.28,0,0,1,133.85,31.73Zm11.41,0a5.05,5.05,0,1,0-5,5.13A5.06,5.06,0,0,0,145.26,31.73Zm-7.51-3.4h2.88a1.86,1.86,0,0,1,2.05,1.87A1.82,1.82,0,0,1,141.41,32l1.85,3.13h-1.38l-1.8-3h-1v3h-1.31Zm2.88,2.61a.73.73,0,1,0,0-1.46h-1.57v1.46Z"/></svg>