<svg xmlns="http://www.w3.org/2000/svg" xmlns:xlink="http://www.w3.org/1999/xlink" viewBox="0 0 498.91 379.36"><defs><clipPath id="a" transform="translate(-11.06)"><path d="M450.46,307.17c-8.26,3.54-16.66,7.25-23.27,13.34s-11.19,15.1-9.72,24a28.78,28.78,0,0,0,3.07,8.53c6.68,12.62,19.78,21.8,34,23.07a51,51,0,0,0,16.37-1.42c13.62-3.27,26.51-11.23,33.6-23.31a21.85,21.85,0,0,0,2.88-7.25,23.3,23.3,0,0,0-.12-7.12c-.89-6.37-2.9-12.74-6.89-17.78-5.56-7-14.25-10.68-22.55-14.06Z" style="fill:none"/></clipPath><linearGradient id="b" x1="-1916.49" y1="-466.36" x2="-1915.49" y2="-466.36" gradientTransform="matrix(-67.19, 0, 0, 67.19, -128272.35, 31675.39)" gradientUnits="userSpaceOnUse"><stop offset="0" stop-color="#fbfbfb"/><stop offset="1" stop-color="#f8a41a"/></linearGradient><clipPath id="c" transform="translate(-11.06)"><path d="M461.5,176.45c-3.3.24-6.78.94-9.17,3.23-2.56,2.44-3.35,6.14-4,9.62a29.58,29.58,0,0,0-.68,8.63c.43,3.71,2.19,7.13,2.89,10.79a19.38,19.38,0,0,1-3.12,14.6c2.77.33,4.94,2.72,5.86,5.35A22.62,22.62,0,0,1,454,237c0,9.07-1,18.14-.85,27.21q.29,14.06.58,28.1.13,7,.28,14.05l14.1-3A174,174,0,0,1,469.18,283c.31-2.8.21-5.76,2-8A10.43,10.43,0,0,0,469,259.85a2.58,2.58,0,0,1-1-1,2.36,2.36,0,0,1-.14-.74,196.7,196.7,0,0,1-.27-24.76,22.83,22.83,0,0,1,1.33-7.67,8.41,8.41,0,0,1,5.5-5.16,14.35,14.35,0,0,1-3.25-16.37c.67-1.41,1.58-2.7,2.17-4.14,1.26-3.06,1-6.49.76-9.78a29.33,29.33,0,0,0-1.15-7.11,9.91,9.91,0,0,0-4.26-5.61,10.76,10.76,0,0,0-5.31-1.16c-.63,0-1.27,0-1.89.08" style="fill:none"/></clipPath><linearGradient id="d" x1="-1957.18" y1="-506.13" x2="-1956.18" y2="-506.13" gradientTransform="matrix(0, -130.2, -130.2, 0, -65438.77, -254530.84)" xlink:href="#b"/></defs><title>nemi fixed logo</title><path d="M16.77,305v12.26a4,4,0,0,0,.91,2.83,3.41,3.41,0,0,0,2.65,1,3.52,3.52,0,0,0,2.69-1,4,4,0,0,0,.94-2.83V305h5v12.23a8.66,8.66,0,0,1-1.17,4.64,7.41,7.41,0,0,1-3.14,2.86,9.76,9.76,0,0,1-4.39,1,9.68,9.68,0,0,1-4.34-1,7.11,7.11,0,0,1-3-2.86,9.16,9.16,0,0,1-1.11-4.66V305Z" transform="translate(-11.06)" style="fill:#fbb03b"/><path d="M47,310.91a7.23,7.23,0,0,1,1.71,5.1v9.51h-5v-8.84a3.55,3.55,0,0,0-.85-2.54,3.3,3.3,0,0,0-4.55,0,3.59,3.59,0,0,0-.85,2.54v8.84h-5V309.23h5v2.16a5.31,5.31,0,0,1,2.05-1.71,6.59,6.59,0,0,1,2.89-.62A5.9,5.9,0,0,1,47,310.91Z" transform="translate(-11.06)" style="fill:#fbb03b"/><path d="M52.49,306.76a2.51,2.51,0,0,1-.83-1.91,2.56,2.56,0,0,1,.83-1.94,3.06,3.06,0,0,1,2.15-.77,3,3,0,0,1,2.12.77,2.56,2.56,0,0,1,.83,1.94,2.51,2.51,0,0,1-.83,1.91,3,3,0,0,1-2.12.78A3,3,0,0,1,52.49,306.76Zm4.63,2.47v16.29h-5V309.23Z" transform="translate(-11.06)" style="fill:#fbb03b"/><path d="M69.82,321.29v4.23H67.28a6.23,6.23,0,0,1-4.23-1.32,5.52,5.52,0,0,1-1.52-4.34v-6.48h-2v-4.15h2v-4h5v4h3.27v4.15H66.52v6.54a1.38,1.38,0,0,0,.35,1.05,1.76,1.76,0,0,0,1.17.32Z" transform="translate(-11.06)" style="fill:#fbb03b"/><path d="M73,306.76a2.51,2.51,0,0,1-.83-1.91,2.56,2.56,0,0,1,.83-1.94,3.06,3.06,0,0,1,2.15-.77,3,3,0,0,1,2.11.77,2.53,2.53,0,0,1,.84,1.94,2.48,2.48,0,0,1-.84,1.91,3,3,0,0,1-2.11.78A3,3,0,0,1,73,306.76Zm4.63,2.47v16.29h-5V309.23Z" transform="translate(-11.06)" style="fill:#fbb03b"/><path d="M95.71,310.91a7.27,7.27,0,0,1,1.7,5.1v9.51h-5v-8.84a3.55,3.55,0,0,0-.85-2.54,3.3,3.3,0,0,0-4.55,0,3.55,3.55,0,0,0-.85,2.54v8.84h-5V309.23h5v2.16a5.31,5.31,0,0,1,2-1.71,6.59,6.59,0,0,1,2.89-.62A5.91,5.91,0,0,1,95.71,310.91Z" transform="translate(-11.06)" style="fill:#fbb03b"/><path d="M110.1,309.7a5.24,5.24,0,0,1,2,1.84v-2.31h5v16.26a9.25,9.25,0,0,1-.89,4.08,6.81,6.81,0,0,1-2.71,2.9,8.79,8.79,0,0,1-4.54,1.08,9.43,9.43,0,0,1-5.87-1.71,6.41,6.41,0,0,1-2.57-4.62h4.93a2.39,2.39,0,0,0,1.11,1.47,4.07,4.07,0,0,0,2.16.54,3.42,3.42,0,0,0,2.47-.89,3.83,3.83,0,0,0,.92-2.85v-2.3a5.48,5.48,0,0,1-2,1.85,6,6,0,0,1-3,.72,6.67,6.67,0,0,1-3.65-1,7.19,7.19,0,0,1-2.59-3,10.73,10.73,0,0,1,0-8.83,7.11,7.11,0,0,1,2.59-2.92,6.74,6.74,0,0,1,3.65-1A6.24,6.24,0,0,1,110.1,309.7Zm1,4.73a3.51,3.51,0,0,0-5,0,4,4,0,0,0-1,2.94,4.14,4.14,0,0,0,1,3,3.47,3.47,0,0,0,5,0,4.7,4.7,0,0,0,0-5.9Z" transform="translate(-11.06)" style="fill:#fbb03b"/><path d="M144.48,305l-7.1,13.72v6.77h-5v-6.77L125.3,305H131l4,8.58,3.94-8.58Z" transform="translate(-11.06)" style="fill:#fbb03b"/><path d="M149.6,324.74a7.52,7.52,0,0,1-3-2.92,9.45,9.45,0,0,1,0-8.87,7.52,7.52,0,0,1,3-2.93,9.66,9.66,0,0,1,8.64,0,7.56,7.56,0,0,1,3,2.93,8.67,8.67,0,0,1,1.11,4.43,8.54,8.54,0,0,1-1.12,4.42,7.62,7.62,0,0,1-3.07,2.94,9.16,9.16,0,0,1-4.33,1A9,9,0,0,1,149.6,324.74Zm6.75-4.36a4.17,4.17,0,0,0,1-3,4.26,4.26,0,0,0-1-3,3.32,3.32,0,0,0-4.84,0,4.28,4.28,0,0,0-1,3,4.34,4.34,0,0,0,.95,3,3.05,3.05,0,0,0,2.38,1.06A3.24,3.24,0,0,0,156.35,320.38Z" transform="translate(-11.06)" style="fill:#fbb03b"/><path d="M181.18,309.23v16.29h-5V323.3a5.5,5.5,0,0,1-2.06,1.74,6.29,6.29,0,0,1-2.88.66,6.52,6.52,0,0,1-3.3-.83,5.7,5.7,0,0,1-2.22-2.41,8.28,8.28,0,0,1-.78-3.71v-9.52h5v8.85a3.55,3.55,0,0,0,.85,2.54,3,3,0,0,0,2.27.9,3,3,0,0,0,2.31-.9,3.59,3.59,0,0,0,.85-2.54v-8.85Z" transform="translate(-11.06)" style="fill:#fbb03b"/><path d="M193.85,321.29v4.23h-2.54a6.23,6.23,0,0,1-4.23-1.32c-1-.89-1.52-2.34-1.52-4.34v-6.48h-2v-4.15h2v-4h5v4h3.27v4.15h-3.27v6.54a1.38,1.38,0,0,0,.35,1.05,1.72,1.72,0,0,0,1.17.32Z" transform="translate(-11.06)" style="fill:#fbb03b"/><path d="M211.13,310.91a7.27,7.27,0,0,1,1.7,5.1v9.51h-5v-8.84a3.59,3.59,0,0,0-.84-2.54,3.31,3.31,0,0,0-4.56,0,3.59,3.59,0,0,0-.84,2.54v8.84h-5v-21.6h5v7.5a5.27,5.27,0,0,1,2.07-1.72,6.59,6.59,0,0,1,2.95-.64A5.77,5.77,0,0,1,211.13,310.91Z" transform="translate(-11.06)" style="fill:#fbb03b"/><path d="M250.7,305l-5.35,20.49h-6L236,312l-3.39,13.49h-6L221.41,305h5.34L229.7,320,233.35,305h5.49L242.35,320l3-14.92Z" transform="translate(-11.06)" style="fill:#fbb03b"/><path d="M253.57,306.76a2.51,2.51,0,0,1-.83-1.91,2.56,2.56,0,0,1,.83-1.94,3.06,3.06,0,0,1,2.15-.77,3,3,0,0,1,2.11.77,2.53,2.53,0,0,1,.84,1.94,2.48,2.48,0,0,1-.84,1.91,3,3,0,0,1-2.11.78A3,3,0,0,1,253.57,306.76Zm4.63,2.47v16.29h-5V309.23Z" transform="translate(-11.06)" style="fill:#fbb03b"/><path d="M270.9,321.29v4.23h-2.54a6.23,6.23,0,0,1-4.23-1.32c-1-.89-1.52-2.34-1.52-4.34v-6.48h-2v-4.15h2v-4h5v4h3.27v4.15H267.6v6.54A1.38,1.38,0,0,0,268,321a1.72,1.72,0,0,0,1.17.32Z" transform="translate(-11.06)" style="fill:#fbb03b"/><path d="M288.18,310.91a7.27,7.27,0,0,1,1.7,5.1v9.51h-5v-8.84a3.59,3.59,0,0,0-.84-2.54,3.31,3.31,0,0,0-4.56,0,3.59,3.59,0,0,0-.84,2.54v8.84h-5v-21.6h5v7.5a5.27,5.27,0,0,1,2.07-1.72,6.62,6.62,0,0,1,2.95-.64A5.77,5.77,0,0,1,288.18,310.91Z" transform="translate(-11.06)" style="fill:#fbb03b"/><path d="M300,309.83a9.4,9.4,0,0,1,3.66-3.71,10.73,10.73,0,0,1,5.33-1.33,10.23,10.23,0,0,1,6.25,1.93,9.27,9.27,0,0,1,3.47,5.26h-5.49a4.37,4.37,0,0,0-1.73-2,4.87,4.87,0,0,0-2.56-.67,4.74,4.74,0,0,0-3.73,1.6,7.17,7.17,0,0,0,0,8.59,4.74,4.74,0,0,0,3.73,1.6,4.87,4.87,0,0,0,2.56-.67,4.34,4.34,0,0,0,1.73-2h5.49a9.18,9.18,0,0,1-3.47,5.24,10.29,10.29,0,0,1-6.25,1.91,10.62,10.62,0,0,1-5.33-1.33,9.41,9.41,0,0,1-3.66-3.69,11.75,11.75,0,0,1,0-10.82Z" transform="translate(-11.06)" style="fill:#fbb03b"/><path d="M321.75,312.94a7,7,0,0,1,2.58-2.92,6.76,6.76,0,0,1,3.65-1,6.24,6.24,0,0,1,3,.7,5.17,5.17,0,0,1,2,1.84v-2.31h5v16.29h-5v-2.3a5.41,5.41,0,0,1-2,1.84,6.32,6.32,0,0,1-3,.7,6.64,6.64,0,0,1-3.62-1,7.1,7.1,0,0,1-2.58-3,10.73,10.73,0,0,1,0-8.83ZM332,314.43a3.36,3.36,0,0,0-2.52-1.08,3.4,3.4,0,0,0-2.53,1.06,4,4,0,0,0-1,2.94,4.14,4.14,0,0,0,1,3,3.47,3.47,0,0,0,5,0,4.7,4.7,0,0,0,0-5.9Z" transform="translate(-11.06)" style="fill:#fbb03b"/><path d="M348.8,309.83a5.57,5.57,0,0,1,2.92-.77v5.28h-1.38a4.23,4.23,0,0,0-2.8.8,3.59,3.59,0,0,0-.93,2.82v7.56h-5V309.23h5V312A6.52,6.52,0,0,1,348.8,309.83Z" transform="translate(-11.06)" style="fill:#fbb03b"/><path d="M369.38,318.57h-11.3a3.4,3.4,0,0,0,1,2.33,3,3,0,0,0,2.12.8,2.62,2.62,0,0,0,2.59-1.58h5.32a7.39,7.39,0,0,1-4.15,4.91,9.31,9.31,0,0,1-7.85-.29,7.33,7.33,0,0,1-2.92-2.92,10,10,0,0,1,0-8.88,7.12,7.12,0,0,1,2.91-2.92,8.78,8.78,0,0,1,4.29-1,8.69,8.69,0,0,1,4.2,1,7.13,7.13,0,0,1,2.88,2.83,8.62,8.62,0,0,1,1,4.29A12.3,12.3,0,0,1,369.38,318.57Zm-5-2.77a2.53,2.53,0,0,0-.88-2,3.19,3.19,0,0,0-2.19-.76,3.13,3.13,0,0,0-2.11.73,3.25,3.25,0,0,0-1.07,2.07Z" transform="translate(-11.06)" style="fill:#fbb03b"/><path d="M387.37,318.57h-11.3a3.39,3.39,0,0,0,1,2.33,3,3,0,0,0,2.12.8,2.63,2.63,0,0,0,2.6-1.58h5.31A7.22,7.22,0,0,1,385.6,323a7.39,7.39,0,0,1-2.67,2,8.69,8.69,0,0,1-3.59.73,8.78,8.78,0,0,1-4.27-1,7.39,7.39,0,0,1-2.92-2.92,10,10,0,0,1,0-8.88A7.16,7.16,0,0,1,375,310a8.84,8.84,0,0,1,4.3-1,8.74,8.74,0,0,1,4.2,1,7.19,7.19,0,0,1,2.88,2.83,8.62,8.62,0,0,1,1,4.29C387.45,317.58,387.42,318.07,387.37,318.57Zm-5-2.77a2.55,2.55,0,0,0-.87-2,3.23,3.23,0,0,0-2.19-.76,3.14,3.14,0,0,0-2.12.73,3.3,3.3,0,0,0-1.07,2.07Z" transform="translate(-11.06)" style="fill:#fbb03b"/><path d="M397.26,309.83a5.62,5.62,0,0,1,2.92-.77v5.28h-1.37a4.21,4.21,0,0,0-2.8.8,3.56,3.56,0,0,0-.94,2.82v7.56h-5V309.23h5V312A6.71,6.71,0,0,1,397.26,309.83Z" transform="translate(-11.06)" style="fill:#fbb03b"/><path d="M405.41,325a6.56,6.56,0,0,1-2.63-2,5.32,5.32,0,0,1-1.08-2.85h4.93a1.91,1.91,0,0,0,.79,1.37,2.8,2.8,0,0,0,1.73.53,2.4,2.4,0,0,0,1.44-.37,1.12,1.12,0,0,0,.51-.95,1.09,1.09,0,0,0-.73-1A14.79,14.79,0,0,0,408,319a22.07,22.07,0,0,1-2.92-.86,5.09,5.09,0,0,1-2-1.43,3.91,3.91,0,0,1-.84-2.64,4.46,4.46,0,0,1,.77-2.56,5.27,5.27,0,0,1,2.28-1.82,8.65,8.65,0,0,1,3.57-.67,7.15,7.15,0,0,1,4.84,1.52,5.89,5.89,0,0,1,2,4H411.1a2,2,0,0,0-.74-1.35,2.59,2.59,0,0,0-1.65-.49,2.28,2.28,0,0,0-1.34.33,1.06,1.06,0,0,0-.47.92,1.12,1.12,0,0,0,.74,1.05,11.35,11.35,0,0,0,2.32.7,27.42,27.42,0,0,1,3,.92,5.15,5.15,0,0,1,2,1.46,4.11,4.11,0,0,1,.89,2.7,4.26,4.26,0,0,1-.8,2.56,5.23,5.23,0,0,1-2.31,1.76,8.76,8.76,0,0,1-3.49.65A9.45,9.45,0,0,1,405.41,325Z" transform="translate(-11.06)" style="fill:#fbb03b"/><path d="M11.06,292.51h0Z" transform="translate(-11.06)"/><line y1="292.51" x2="403" y2="292.51" style="fill:none;stroke:#0b4290;stroke-miterlimit:10;stroke-width:5px"/><path d="M81.67,182.89a33.4,33.4,0,0,1,14,13.91q5,9.22,5,22.27V275.6H81.06V222q0-12.87-6.44-19.75t-17.57-6.87q-11.13,0-17.65,6.87T32.88,222V275.6H13.05V179.76H32.88v11a32.67,32.67,0,0,1,12.43-9.22,39.68,39.68,0,0,1,16.09-3.31A43,43,0,0,1,81.67,182.89Z" transform="translate(-11.06)" style="fill:#0b4290"/><path d="M159.94,145.86v43.93h51.67v20H159.94v45.86h58.13v20H135.39V125.84h82.68v20Z" transform="translate(-11.06)" style="fill:#0b4290"/><path d="M388.27,183.11A33.92,33.92,0,0,1,402.36,197q5.13,9.22,5.13,22.26v56.54H387.84V222.25q0-12.87-6.44-19.74t-17.57-6.87q-11.13,0-17.65,6.87t-6.53,19.74v53.58H320V222.25q0-12.87-6.44-19.74T296,195.64q-11.13,0-17.65,6.87t-6.53,19.74v53.58H252V180h19.83v11a33,33,0,0,1,12.35-9.22,39.22,39.22,0,0,1,16-3.3,42.55,42.55,0,0,1,20.52,4.87,33.26,33.26,0,0,1,13.92,14.09,32.12,32.12,0,0,1,13.57-13.83A40.1,40.1,0,0,1,368,178.42,43,43,0,0,1,388.27,183.11Z" transform="translate(-11.06)" style="fill:#0b4290"/><path d="M203.88,73.91h-8.3L184.53,57.22V73.91h-8.3V44.05h8.3L195.58,61V44.05h8.3Z" transform="translate(-11.06)" style="fill:#0b4290"/><path d="M221.5,40.75v7h13.62v9H221.5v7.69h15.43v9.5H209.64V31.25h27.29v9.5Z" transform="translate(-11.06)" style="fill:#0b4290"/><path d="M276.64,44.05V73.91h-8.3V57.43l-5.63,16.48h-6.95L250.09,57.3V73.91h-8.31V44.05h10l7.5,19.4,7.33-19.4Z" transform="translate(-11.06)" style="fill:#0b4290"/><path d="M289.69,44.05V73.91h-8.31V44.05Z" transform="translate(-11.06)" style="fill:#0b4290"/><path d="M18.06,161c-.56-12.18,1.11-24.44,3.92-36.39A144.61,144.61,0,0,1,27.46,107l1.67-4.32L31,98.4c1.19-2.86,2.66-5.59,4.06-8.36A147,147,0,0,1,56.57,59.59,158.36,158.36,0,0,1,85.08,35.3l8-5,1-.62,1-.56L97.15,28l4.14-2.21c1.38-.73,2.75-1.49,4.15-2.18l4.28-1.91,4.29-1.9,2.14-1c.71-.32,1.43-.63,2.17-.88l8.78-3.24,2.19-.81a23.18,23.18,0,0,1,2.22-.75L136,11.89l9-2.63,9.09-2.08c6-1.55,12.18-2.38,18.3-3.42L177,3l4.61-.5,9.23-1c1.54-.15,3.08-.38,4.62-.45L200,.8,209.3.31c1.54-.07,3.08-.18,4.62-.22l4.63,0,9.25,0C234-.11,240.14.36,246.31.6l4.63.22c1.55.05,3.09.26,4.63.39l9.24.89c1.54.16,3.08.29,4.62.48l4.59.7,9.2,1.4c.76.12,1.53.21,2.29.36l2.29.47,4.56,1c3,.65,6.09,1.21,9.1,2l9,2.43c1.5.41,3,.8,4.49,1.23l4.44,1.47c3,1,5.91,1.94,8.85,3L336.93,20c1.44.6,2.9,1.12,4.31,1.79l4.24,2,4.22,2,2.12,1c.7.33,1.37.74,2.06,1.1l8.19,4.53c2.69,1.56,5.29,3.3,7.94,5a184,184,0,0,1,29.06,23.4,175.55,175.55,0,0,1,23.46,28.82,180.58,180.58,0,0,1,16.7,32.92c2.13,5.76,4,11.59,5.57,17.51l1.05,4.47c.31,1.5.65,3,.92,4.49a89.59,89.59,0,0,1,1.29,9,134.12,134.12,0,0,0-5.14-17.43c-2.05-5.69-4.42-11.24-7-16.67a186.14,186.14,0,0,0-18.62-30.7A179.84,179.84,0,0,0,364.59,46c-20.3-12.2-42.83-20.28-65.93-25.59-1.43-.38-2.92-.58-4.37-.88l-4.37-.84-4.37-.85-2.19-.43c-.73-.13-1.47-.21-2.21-.32l-8.84-1.22-4.41-.62c-1.48-.17-3-.27-4.45-.4l-8.9-.81c-1.49-.12-3-.32-4.46-.36l-4.47-.19c-6-.21-11.92-.64-17.91-.49H214.25c-1.49,0-3,.14-4.47.2l-8.94.44-4.47.22c-1.5.06-3,.27-4.45.39l-8.9.86-4.45.42-4.4.67c-5.87.92-11.79,1.65-17.56,3L147.89,21l-8.57,2.32L135,24.49c-1.44.36-2.81.91-4.22,1.36l-8.41,2.81c-.7.22-1.39.49-2.07.78l-2,.84L114.2,32l-4.09,1.68c-1.34.62-2.65,1.29-4,1.92l-4,1.94-2,1-1,.48-1,.55-7.66,4.4c-1.3.69-2.49,1.56-3.72,2.37l-3.67,2.45-1.84,1.22a20.9,20.9,0,0,0-1.8,1.28L76,53.91l-3.5,2.69c-1.15.93-2.22,1.94-3.33,2.91-2.18,2-4.5,3.81-6.52,6a142.14,142.14,0,0,0-22.1,27.7,155.64,155.64,0,0,0-15.14,32.43A159,159,0,0,0,20.68,143a123,123,0,0,0-2.62,18" transform="translate(-11.06)" style="fill:#fbb03b"/><path d="M458.45,101.74h7.79v1.81H463.5v9.52h-2.31l0-9.52h-2.77Zm22.53,0v11.33h-2.15l0-8.2-3.5,8.2h-1.65l-3.47-8.33v8.33H468V101.74h3l3.51,8.6,3.6-8.6Z" transform="translate(-11.06)"/><path d="M487.12,107.41A17.4,17.4,0,1,1,469.72,90,17.4,17.4,0,0,1,487.12,107.41Z" transform="translate(-11.06)" style="fill:none;stroke:#000;stroke-miterlimit:10;stroke-width:3px"/><path d="M450.47,168.85a45.32,45.32,0,0,1,1.06-15.92,25.52,25.52,0,0,1,8.39-13.36c5.52-4.38,12.8-5.66,19.4-8.14a53.52,53.52,0,0,0,16.53-9.91c-2.33,6.28-1.11,13.31-2.37,19.88a27.11,27.11,0,0,1-16,19.59c-4.54,1.88-9.49,2.47-14.21,3.82s-12.74,8.7-12.74,8.7Z" transform="translate(-11.06)" style="fill:#0b4290"/><path d="M471.56,203h6l1-3s4,4,0,8a3.1,3.1,0,0,1-1-2h-6l-2-1Z" transform="translate(-11.06)" style="fill:#000200"/><path d="M473.56,184h6l1-3s4,4,0,8a3.1,3.1,0,0,1-1-2h-6l-2-1Z" transform="translate(-11.06)" style="fill:#000200"/><path d="M474.56,193h6l1-3s4,4,0,8a3.1,3.1,0,0,1-1-2h-6l-2-1Z" transform="translate(-11.06)" style="fill:#000200"/><path d="M451.33,203h-6l-1-3s-4,4,0,8a3.1,3.1,0,0,0,1-2h6l2-1Z" transform="translate(-11.06)" style="fill:#000200"/><path d="M449.33,184h-6l-1-3s-4,4,0,8a3.1,3.1,0,0,0,1-2h6l2-1Z" transform="translate(-11.06)" style="fill:#000200"/><path d="M448.33,193h-6l-1-3s-4,4,0,8a3.1,3.1,0,0,0,1-2h6l2-1Z" transform="translate(-11.06)" style="fill:#000200"/><g style="clip-path:url(#a)"><rect x="424.79" y="293.88" width="74.2" height="93.93" transform="translate(96.04 792.11) rotate(-88.25)" style="fill:url(#b)"/></g><path d="M450.46,307.17c-4.28,1.95-8.55,3.91-12.62,6.22a50.59,50.59,0,0,0-11.18,8.32,31.84,31.84,0,0,0-7.4,11.56,21.63,21.63,0,0,0-.5,13.42,30.86,30.86,0,0,0,2.73,6.28,45.13,45.13,0,0,0,3.8,5.76,44.56,44.56,0,0,0,10,9.38,40.71,40.71,0,0,0,26.09,7,59.93,59.93,0,0,0,26.18-8.29,49.35,49.35,0,0,0,10.73-8.67,42.92,42.92,0,0,0,4.28-5.41,29.53,29.53,0,0,0,3.26-6c1.71-4.19.94-9,.09-13.48a34.29,34.29,0,0,0-5.21-12.75,32.77,32.77,0,0,0-10.3-9.21,106.74,106.74,0,0,0-12.62-6.17,94.83,94.83,0,0,1,12.89,5.71,33.62,33.62,0,0,1,10.83,9.1A35.34,35.34,0,0,1,507.2,333a46.09,46.09,0,0,1,1.08,7.06,17.43,17.43,0,0,1-.95,7.22,31.85,31.85,0,0,1-3.31,6.41,43.85,43.85,0,0,1-4.41,5.66,51.46,51.46,0,0,1-11.05,9.06,60.35,60.35,0,0,1-13,5.92,59.7,59.7,0,0,1-14,2.8,44.28,44.28,0,0,1-7.19-.09c-1.19-.17-2.39-.24-3.57-.52l-1.77-.35-1.74-.46a44,44,0,0,1-13-6.08,46.63,46.63,0,0,1-10.39-9.83,39,39,0,0,1-6.65-12.68,22.26,22.26,0,0,1-.74-7.22,25,25,0,0,1,1.53-7.05A32.74,32.74,0,0,1,426,321a51.58,51.58,0,0,1,11.61-8.09,133.48,133.48,0,0,1,12.88-5.76" transform="translate(-11.06)"/><g style="clip-path:url(#c)"><rect x="446.49" y="176.2" width="28.97" height="130.29" transform="translate(-14.18 6.06) rotate(-0.75)" style="fill:url(#d)"/></g><path d="M468.12,303.28c-.08-3.68-.06-7.38.11-11.06s.49-7.38.8-11a13.22,13.22,0,0,1,1.23-5.5c.51-.88,1.12-1.51,1.51-2.31a10.39,10.39,0,0,0,1-2.46,10,10,0,0,0-2.84-9.63,10.13,10.13,0,0,0-1-.83,5.12,5.12,0,0,1-1.19-1,1.89,1.89,0,0,1-.36-.89c0-.29-.05-.5-.07-.73l-.11-1.39c-.13-1.84-.24-3.69-.32-5.53-.16-3.7-.23-7.4-.19-11.1,0-1.85.07-3.7.14-5.55a43.17,43.17,0,0,1,.47-5.61,12.91,12.91,0,0,1,2.1-5.45,8.47,8.47,0,0,1,4.89-3.51l-.39,1.48a15.26,15.26,0,0,1-4.7-13.23,13.73,13.73,0,0,1,.94-3.54,25.49,25.49,0,0,1,1.63-3.13,12.31,12.31,0,0,0,1.23-2.95,14.77,14.77,0,0,0,.42-3.2,57,57,0,0,0-.37-6.73,18.72,18.72,0,0,0-1.51-6.32,7.76,7.76,0,0,0-4.28-4.15,14.93,14.93,0,0,0-6.36-.42,15.7,15.7,0,0,0-6.19,1.66,9,9,0,0,0-3.92,4.67,33,33,0,0,0-1.61,6.46,28.81,28.81,0,0,0-.61,6.61c.17,4.32,2.67,8.44,3.16,13.29a20.32,20.32,0,0,1-3.54,13.61l-.6-1.34a7.61,7.61,0,0,1,5,3.09,11.24,11.24,0,0,1,2.08,5.34,29.26,29.26,0,0,1,.14,5.52c-.06,1.76-.06,3.58-.15,5.37-.28,7.2-1,14.34-.93,21.48l.19,21.52.12,21.53-.75-21.52c-.22-7.17-.5-14.33-.67-21.52s.43-14.39.61-21.53c.06-1.79,0-3.56.06-5.39a28.17,28.17,0,0,0-.2-5.22,9.61,9.61,0,0,0-1.84-4.55,5.91,5.91,0,0,0-3.89-2.42l-1.42-.16.82-1.18a18.58,18.58,0,0,0,3.16-12.45c-.39-4.33-2.95-8.43-3.24-13.37a31.49,31.49,0,0,1,.61-7,34.6,34.6,0,0,1,1.69-6.85,12.22,12.22,0,0,1,1.85-3.22,10,10,0,0,1,2.88-2.43,17.47,17.47,0,0,1,7-1.95,16.6,16.6,0,0,1,7.23.56,8.81,8.81,0,0,1,3.22,2.08,11.44,11.44,0,0,1,2.12,3.08,20.33,20.33,0,0,1,1.66,7,59.32,59.32,0,0,1,.35,7,17.07,17.07,0,0,1-.51,3.59,13.13,13.13,0,0,1-1.42,3.37,29.09,29.09,0,0,0-1.55,3,12.12,12.12,0,0,0-.84,3.08A13.55,13.55,0,0,0,475,219.9l1.23,1.11-1.62.37a6.78,6.78,0,0,0-3.89,2.8,11.88,11.88,0,0,0-1.88,4.77,43,43,0,0,0-.53,5.39c-.09,1.84-.17,3.67-.22,5.51-.1,3.67-.09,7.35,0,11,.05,1.83.13,3.67.23,5.51l.09,1.37c0,.23,0,.48,0,.65a.82.82,0,0,0,.14.38,4.86,4.86,0,0,0,.93.75,10.11,10.11,0,0,1,1.11,1,11.2,11.2,0,0,1,2.94,4.94,10.68,10.68,0,0,1,0,5.72,11.62,11.62,0,0,1-1.11,2.65c-.45.85-1.15,1.56-1.58,2.27a12.92,12.92,0,0,0-1.27,5.18,198.05,198.05,0,0,0-1.54,22" transform="translate(-11.06)"/><line x1="453.5" y1="241.51" x2="453.5" y2="354.51" style="fill:none;stroke:#000;stroke-miterlimit:10"/><line x1="449.5" y1="242.01" x2="449.5" y2="355.01" style="fill:none;stroke:#000;stroke-miterlimit:10"/><line x1="446.5" y1="242.01" x2="446.5" y2="355.01" style="fill:none;stroke:#000;stroke-miterlimit:10"/><path d="M444,349.1a9.85,9.85,0,0,0,2.83,3.25,13.11,13.11,0,0,0,3.77,2,24.58,24.58,0,0,0,8.47,1.2,21.46,21.46,0,0,0,8.3-1.91,19.26,19.26,0,0,0,3.7-2.21,19.83,19.83,0,0,0,3.16-3,16.59,16.59,0,0,1-2.85,3.36,19.32,19.32,0,0,1-3.67,2.53,19.86,19.86,0,0,1-8.61,2.22,22.06,22.06,0,0,1-8.77-1.49,13.19,13.19,0,0,1-3.81-2.33A9.27,9.27,0,0,1,444,349.1" transform="translate(-11.06)"/><path d="M466.63,300.49a48.87,48.87,0,0,1,.12,7.46L466,330.54c0,.6.1,1.4.7,1.5a1.2,1.2,0,0,0,.73-.19,9.1,9.1,0,0,0,4-4.22c.89-2,.86-4.64-.89-5.89-1-.7-2.44-.89-3-2a3.41,3.41,0,0,1-.28-1.38q-.47-8.1-.94-16.2" transform="translate(-11.06)" style="fill:none;stroke:#000;stroke-miterlimit:10;stroke-width:0.5px"/><path d="M455.29,300.49a48.87,48.87,0,0,0-.12,7.46l.78,22.59c0,.6-.1,1.4-.7,1.5a1.2,1.2,0,0,1-.73-.19,9,9,0,0,1-4-4.22c-.9-2-.87-4.64.88-5.89,1-.7,2.44-.89,3-2a3.41,3.41,0,0,0,.28-1.38l.94-16.2" transform="translate(-11.06)" style="fill:none;stroke:#000;stroke-miterlimit:10;stroke-width:0.5px"/></svg>