<?xml version="1.0" encoding="UTF-8"?><svg xmlns="http://www.w3.org/2000/svg" viewBox="0 0 130.65 137.98"><defs><style>.d{fill:none;stroke:#0b4290;stroke-miterlimit:10;stroke-width:5px;}.e{fill:#0b4290;}.f{fill:#f2f2f2;}</style></defs><g id="a"/><g id="b"><g id="c"><g><path class="e" d="M92,5V116H5V5H92m5-5H0V121H97V0h0Z"/><line class="d" x1="11.5" y1="20.5" x2="87" y2="20.5"/><line class="d" x1="11.5" y1="36.5" x2="87" y2="36.5"/><line class="d" x1="11.5" y1="52.5" x2="87" y2="52.5"/><line class="d" x1="11.5" y1="69.5" x2="87" y2="69.5"/><path class="e" d="M79.5,89.5v12H16.5v-12h63m5-5H11.5v22H84.5v-22h0Z"/><g><g><path class="f" d="M73.79,103.2c-10.54,0-20.74-4.35-27.98-11.94-1.1-1.14-2.16-2.39-3.14-3.72-6.16-8.31-8.72-18.52-7.21-28.75,1.52-10.23,6.93-19.26,15.24-25.42,6.73-4.99,14.69-7.63,23.04-7.63,12.22,0,23.85,5.85,31.12,15.66,12.72,17.15,9.12,41.45-8.03,54.17-2.92,2.17-6.11,3.9-9.46,5.16-4.35,1.63-8.92,2.46-13.59,2.46Z"/><path class="e" d="M73.74,28.25c11.08,0,22.01,5.06,29.12,14.64,11.92,16.07,8.56,38.75-7.51,50.67-2.78,2.06-5.76,3.67-8.85,4.83-4.12,1.55-8.42,2.31-12.71,2.31-9.64,0-19.18-3.84-26.17-11.17-1.04-1.08-2.02-2.24-2.94-3.48-11.92-16.07-8.56-38.75,7.51-50.67,6.49-4.81,14.05-7.13,21.55-7.13m0-5h0c-8.89,0-17.37,2.81-24.53,8.12-18.25,13.54-22.09,39.41-8.55,57.66,1.04,1.41,2.17,2.74,3.35,3.97,7.7,8.06,18.56,12.7,29.77,12.7,4.97,0,9.83-.88,14.47-2.63,3.57-1.34,6.96-3.19,10.07-5.49,18.26-13.54,22.09-39.41,8.55-57.67-7.74-10.44-20.13-16.67-33.13-16.67h0Z"/></g><path class="e" d="M108.47,107.1c1.21,0,2.41,.55,3.19,1.6l13.22,17.82c1.3,1.76,.94,4.24-.82,5.55l-.17,.12c-.71,.53-1.54,.78-2.36,.78-1.21,0-2.41-.55-3.19-1.6l-13.22-17.82c-1.3-1.76-.94-4.24,.82-5.55l.17-.12c.71-.53,1.54-.78,2.36-.78m0-5h0c-1.94,0-3.78,.61-5.34,1.77l-.17,.13c-1.92,1.43-3.17,3.52-3.52,5.88-.35,2.37,.24,4.73,1.67,6.66l13.22,17.82c1.68,2.27,4.38,3.62,7.2,3.62,1.94,0,3.78-.61,5.34-1.77l.17-.12c3.97-2.95,4.8-8.57,1.86-12.54l-13.22-17.82c-1.68-2.27-4.38-3.62-7.2-3.62h0Z"/><rect class="e" x="97.19" y="93.51" width="6.51" height="13.84" transform="translate(-40.06 79.62) rotate(-36.57)"/></g><rect class="e" x="38" y="46.5" width="49.5" height="12.47"/><rect class="e" x="37" y="68.53" width="49.5" height="12.47"/><path class="e" d="M86.5,89.53v8.86c-13.38,5.03-28.78,1.72-38.88-8.86h38.88Z"/><path class="f" d="M73.5,31c18.47,0,33.5,15.03,33.5,33.5s-15.03,33.5-33.5,33.5-33.5-15.03-33.5-33.5,15.03-33.5,33.5-33.5m0-3c-20.16,0-36.5,16.34-36.5,36.5s16.34,36.5,36.5,36.5,36.5-16.34,36.5-36.5-16.34-36.5-36.5-36.5h0Z"/></g></g></g></svg>