<?xml version="1.0" encoding="UTF-8"?><svg xmlns="http://www.w3.org/2000/svg" viewBox="0 0 182.78 40.55"><defs><style>.d{fill:#4b4b4b;}.e{fill:#4a4a4a;}.f{fill:#868686;}.g{fill:#878787;}.h{fill:#7a7a7a;}.i{fill:#7f7f7f;}</style></defs><g id="a"/><g id="b"><g id="c"><g><path class="f" d="M117.47,8.43c-2.57-3.03-6.48-3.19-10.49-.36,.38-2.26-1.19-1.59-2.32-1.68-.92-.08-1.22,.29-1.21,1.2,.03,6.11,.03,12.22,0,18.33,0,1.65,1.19,.99,1.96,1.07,.78,.09,1.63,.24,1.56-1.11-.09-2.19-.02-4.39-.02-6.7,3.26,2.8,7.49,2.78,10.14,.08,2.78-2.83,2.95-7.81,.38-10.84Zm-5.8,9.39c-2.37,.02-4.22-1.8-4.24-4.15-.03-2.28,1.83-4.23,4.14-4.33,2.21-.09,4.17,1.9,4.2,4.24,.03,2.42-1.72,4.22-4.1,4.25Z"/><path class="f" d="M156.84,.21c-.75-.08-1.64-.3-1.58,1.08,.09,2.15,.03,4.31,.03,6.69-3.52-2.73-7.55-2.72-10.13-.14-2.66,2.65-2.97,7.59-.65,10.58,1.02,1.32,2.32,2.23,3.99,2.56,2.52,.5,4.77,.04,6.81-2.12-.37,2.52,1.22,1.75,2.25,1.87,.87,.1,1.24-.21,1.23-1.17-.03-6.1-.03-12.2,0-18.3,0-1.68-1.2-.97-1.95-1.05Zm-6.16,17.72c-2.37-.02-4.2-1.84-4.22-4.21,0-2.31,1.84-4.31,4.09-4.4,2.24-.08,4.36,2.04,4.35,4.34,0,2.29-1.96,4.28-4.22,4.27Z"/><path class="f" d="M15.67,9.26c-.1-.83,.39-2-1.24-1.76-.91,.13-.94-.37-.71-1.07,.18-.56,.28-1.15,.39-1.73,.07-.36,.21-.71-.34-.91-1.38-.51-2.57,.12-2.92,1.6-.08,.37-.23,.73-.27,1.1-.18,1.49-1.34,1.03-2.13,.98-1.19-.08-.43-.98-.39-1.49,.05-.7,.26-1.37,.41-2.06-2.88-.38-2.91-.39-3.52,2.18-.24,1.05-.66,1.62-1.83,1.42-.68-.12-1.55-.27-1.36,.9,.13,.8-.65,2.15,1.15,2.03,.43-.03,.97-.02,.84,.64-.23,1.17-.36,2.4-.86,3.44-.29,.63-1.3,.25-1.97,.26-.95,0-.91,.66-.82,1.22,.11,.63-.56,1.8,.7,1.76,1.75-.06,1.28,.85,1.09,1.84-.08,.42-.75,1.15,.32,1.39,1.71,.39,2.55,0,2.79-1.72,.23-1.55,1.21-1.64,2.31-1.43,1.38,.27,.18,1.2,.33,1.8,.1,.43-.63,1.03,.25,1.33,1.47,.5,2.66-.08,2.9-1.61,.19-1.21,.68-1.74,1.9-1.57,.89,.13,1.51-.09,1.36-1.18-.11-.81,.44-2.02-1.19-1.83-.83,.09-1.07-.24-.81-1.04,.2-.61,.37-1.25,.42-1.89,.1-1.17,.7-1.59,1.82-1.44,.86,.12,1.51-.06,1.38-1.17Zm-6.81,5.01c-.18,.86-.96,.43-1.45,.54-1.34,.25-1.51-.35-1.13-1.43,.18-.5,.23-1.04,.35-1.56,.3-1.27,1.21-1.77,2.46-1.34,.15,.05,.4,.13,.4,.2,.04,1.25-.39,2.42-.64,3.6Z"/><path class="f" d="M58.59,7.72c0-.44,.23-1-.37-1.29-1.21-.62-2.84,.2-3.07,1.54-3.46-2.68-7.63-2.61-10.18,.18-2.72,2.95-2.69,8.04,.06,10.99,2.67,2.88,6.59,2.91,10.39-.12-.55,2.15,.72,1.85,1.89,1.95,1.52,.13,1.31-.82,1.31-1.73,0-3.84,0-7.67-.02-11.51Zm-7.84,10.34c-2.22-.03-4.2-2.21-4.14-4.55,.06-2.42,1.88-4.3,4.15-4.31,2.36,0,4.21,1.93,4.19,4.39,0,2.42-1.96,4.49-4.2,4.46Z"/><path class="f" d="M182.61,18.88c.08-3.61,.05-7.23,.02-10.84,0-.71,.4-1.8-1.02-1.65-1.03,.09-2.59-.65-2.3,1.69-3.78-2.81-7.68-2.72-10.28,.05-2.78,2.95-2.76,7.93,.06,11.07,2.48,2.77,6.22,2.79,10.23-.06-.41,2.31,1.17,1.79,2.37,1.78,1.7,0,.91-1.33,.93-2.04Zm-7.75-.84c-2.24,.03-4.18-2.06-4.17-4.46,0-2.48,1.84-4.41,4.18-4.38,2.28,.02,4.19,2.1,4.12,4.47-.07,2.35-1.96,4.35-4.13,4.37Z"/><path class="i" d="M151.4,40.46c-5.28,.03-10.56,.05-15.85,.09-.76,0-1-.25-1.04-1.02-.14-2.67-.17-2.67,2.44-2.67,3.24,0,6.47-.05,9.71,.03,1.18,.03,1.58-.26,1.55-1.51-.09-3.56-.05-7.12-.01-10.68,0-.48-.32-1.08,.3-1.45,4.23,.29,8.46,.07,12.7,.11,1.28,.01,2.57,.19,3.84-.13,.72,1,.32,2.13,.25,3.18-.04,.62-.79,.36-1.23,.36-3.54,.02-7.07,0-10.61,.02-.57,0-1.19-.19-1.67,.32-.41,.59-.18,1.25-.2,1.88-.12,3.82,.19,7.64-.17,11.45Z"/><path class="f" d="M130.28,8.09c1.58-1.34,3.04-2.15,4.89-2.08,3.09,.13,5.67,2.3,5.88,5.38,.19,2.85,.07,5.72,.12,8.58,.01,.64-.23,.89-.85,.86-.49-.02-.98-.05-1.46,0-1.13,.14-1.36-.42-1.33-1.42,.06-2.05,.05-4.11,0-6.16-.05-2.43-1.48-4.02-3.52-3.99-1.95,.03-3.37,1.6-3.44,3.96-.07,2-.15,4.01,0,5.99,.13,1.69-.79,1.58-1.95,1.65-1.37,.08-1.74-.37-1.71-1.72,.09-3.67,0-7.35,.06-11.02,0-.65-.58-1.88,.86-1.75,.99,.09,2.79-1.01,2.44,1.71Z"/><path class="f" d="M98.16,19.18c-4.2,3.63-9,1.57-10.31-1.66-.42-1.03-.49-2.09-.49-3.18,0-2.22,.09-4.44-.03-6.65-.08-1.48,.77-1.39,1.72-1.33,.87,.06,2.03-.45,1.93,1.27-.11,2.1-.05,4.22-.01,6.33,.05,2.36,1.42,3.91,3.42,3.94,1.97,.03,3.46-1.53,3.53-3.86,.07-2.16,.1-4.33,.01-6.49-.07-1.78,1.19-1.09,2-1.18,.89-.11,1.67-.15,1.64,1.24-.09,3.84-.01,7.68-.05,11.52,0,.69,.48,1.81-.96,1.72-1.04-.07-2.59,.65-2.39-1.66Z"/><path class="f" d="M23.98,21.58c-1.73-.09-3.67-.63-5.39-1.88-.66-.48-1.2-1-.38-1.79,.59-.56,.69-1.99,2.14-.96,1.38,.98,2.99,1.52,4.75,1.24,.98-.15,1.87-.56,1.88-1.66,0-1.07-.85-1.35-1.8-1.46-1.07-.12-2.13-.3-3.19-.52-2.43-.49-3.91-2.06-3.9-4.07,.01-2.21,1.58-3.97,4.02-4.38,2.28-.38,4.53-.18,6.62,.88,.43,.22,1.49,.39,.9,1.1-.61,.72-.74,2.49-2.39,1.73-1.19-.55-2.37-1.02-3.71-.9-.89,.08-1.63,.42-1.69,1.4-.06,.95,.68,1.28,1.47,1.41,1.17,.19,2.36,.29,3.52,.51,2.07,.38,3.34,1.57,3.56,3.24,.35,2.66-.48,4.42-2.6,5.36-1.09,.48-2.24,.76-3.81,.76Z"/><path class="f" d="M82.04,21c-3.1,0-4.71-1.4-4.91-4.26-.13-1.88-.12-3.78-.05-5.67,.04-1.12-.16-1.81-1.47-1.56-1.3,.24-1.5-.43-1.49-1.56,.01-1.1,.13-1.81,1.47-1.58,.96,.17,1.43-.22,1.29-1.24-.04-.32,0-.65,0-.97,0-1.59,1.72-2.54,3.16-1.77,.29,.15,.33,.4,.34,.66,.01,.43,.07,.87,0,1.3-.26,1.59,.27,2.22,1.98,2.06,1.88-.17,2.38,.63,1.94,2.49-.17,.71-.65,.58-1.11,.61q-2.91,.16-2.79,3.16c.04,.91,.16,1.83,.18,2.74,.04,2,.25,2.23,2.24,2.29,.73,.02,1.44-.18,1.77,.9,.58,1.94,.54,2.13-1.51,2.35-.43,.05-.86,.05-1.04,.05Z"/><path class="f" d="M34.81,14.03c0-1.03-.07-2.06,.02-3.08,.09-1.13-.31-1.63-1.45-1.45-1.19,.19-1.6-.26-1.58-1.5,.02-1.2,.24-1.87,1.6-1.64,.93,.16,1.28-.29,1.17-1.19-.03-.21,0-.43,0-.65,0-2.04,1.18-2.86,3.1-2.17,.29,.11,.46,.25,.47,.55,.01,.32,.02,.65,.02,.97,.02,2.45,.03,2.54,2.48,2.45,1.34-.05,1.45,.52,1.47,1.61,.02,1.15-.2,1.64-1.5,1.59-2.44-.08-2.44,0-2.44,2.49,0,1.03,0,2.05,0,3.08,0,2.33,.17,2.51,2.45,2.58,.67,.02,1.19,.01,1.51,.84,.8,2.06,.85,2.07-1.33,2.3-.38,.04-.75,.09-1.13,.1-3.59,.12-4.82-1.06-4.84-4.62,0-.76,0-1.51,0-2.27Z"/><path class="f" d="M64.76,8.02c2.22-2.35,4.49-2.41,6.95-1.44,.97,.38,1.25,.9,.58,1.8-.29,.39-.53,.82-.73,1.25-.3,.62-.61,.68-1.26,.37-3.05-1.46-5.21-.13-5.29,3.24-.05,2.16-.06,4.32,0,6.47,.03,1-.31,1.3-1.29,1.28-2.85-.08-2.33,.19-2.35-2.29-.03-3.56-.03-7.12,.01-10.68,0-.64-.43-1.76,.88-1.6,.95,.11,2.61-.94,2.5,1.61Z"/><path class="e" d="M165.36,13.63c0,1.94-.07,3.89,.03,5.82,.06,1.19-.38,1.55-1.47,1.39-.26-.04-.54-.04-.81,0-1.25,.19-1.66-.27-1.63-1.59,.09-3.83,.07-7.66,0-11.48-.02-1.1,.24-1.62,1.41-1.44,.42,.06,.87,.05,1.29,0,.9-.11,1.22,.21,1.19,1.15-.07,2.05-.02,4.1-.02,6.15Z"/><path class="f" d="M121.13,13.45c0-1.62-.02-3.24,0-4.86,.03-2.59-.37-2.13,2.2-2.28,1.32-.07,1.61,.39,1.59,1.63-.07,3.84-.06,7.67,0,11.51,.01,1.02-.22,1.55-1.34,1.4-.43-.06-.87-.05-1.3,0-.96,.11-1.19-.36-1.17-1.24,.05-2.05,.02-4.11,.02-6.16Z"/><path class="d" d="M163.44,4.4c-1.14-.02-2.18-1.05-2.19-2.16,0-1.08,1.09-2.22,2.15-2.24,1.21-.02,2.27,1.05,2.24,2.27-.03,1.18-1.03,2.15-2.2,2.13Z"/><path class="g" d="M122.93,.03c1.17-.03,2.19,.94,2.22,2.11,.04,1.23-.86,2.21-2.06,2.26-1.18,.04-2.19-.9-2.23-2.1-.04-1.16,.95-2.24,2.07-2.27Z"/><path class="h" d="M165.03,23.25c-.28,.34-.67,.3-1.05,.3-4.81,0-9.62,0-14.43,0-.38,0-.77,.04-1.05-.28,5.51-.15,11.02-.13,16.53-.01Z"/><path class="h" d="M151.4,40.46c0-3.89,0-7.78,.01-11.68,0-.56-.24-1.21,.36-1.65,.02,4.14,.04,8.28,.04,12.43,0,.34,.13,.79-.41,.91Z"/></g></g></g></svg>